<?xml version="1.0" encoding="utf-8"?>
<!-- Generator: Adobe Illustrator 15.0.0, SVG Export Plug-In  -->
<!DOCTYPE svg PUBLIC "-//W3C//DTD SVG 1.1//EN" "http://www.w3.org/Graphics/SVG/1.1/DTD/svg11.dtd" [
	<!ENTITY ns_flows "http://ns.adobe.com/Flows/1.0/">
]>
<svg version="1.1"
	 xmlns="http://www.w3.org/2000/svg" xmlns:xlink="http://www.w3.org/1999/xlink" xmlns:a="http://ns.adobe.com/AdobeSVGViewerExtensions/3.0/"
	 x="0px" y="0px" width="200px" height="109px" viewBox="-0.239 -0.882 200 109"
	 overflow="visible" enable-background="new -0.239 -0.882 200 109" xml:space="preserve">
<defs>
</defs>
<path fill="#F26522" d="M161.483,83.275c-0.471,0.095-0.853,0.296-1.159,0.597c-0.304,0.307-0.577,0.481-0.807,0.527l-3.581-12.437
	l-1.054,0.21l-0.351,0.07c-0.237,0.047-0.563,0.237-0.984,0.562c-0.425,0.33-0.752,0.516-0.984,0.562
	c-0.328-0.42-0.771-1.124-1.332-2.108c-0.563-0.983-1.126-1.658-1.687-2.037c-0.046-0.231-0.613-0.609-1.687-1.125
	c-1.079-0.516-1.639-0.889-1.687-1.124c-0.517-0.137-0.891-0.49-1.122-1.055c-0.237-0.559-0.397-1.074-0.492-1.546
	c-0.235,0.047-0.749-0.091-1.546-0.422c-0.796-0.327-1.217-0.608-1.265-0.844c-0.235,0.047-0.481-0.27-0.737-0.949
	c-0.261-0.679-0.668-1.202-1.229-1.581c-0.046-0.23-0.234-0.866-0.562-1.897c-0.33-1.028-0.61-1.521-0.842-1.476
	c-0.329-0.419-0.867-1.287-1.615-2.6c-0.375-0.655-0.728-1.19-1.054-1.616c-0.563-0.373-1.312-0.771-2.248-1.195
	c-0.939-0.417-1.687-0.815-2.246-1.195c-0.566-0.372-1.633-1.136-3.196-2.284c-1.572-1.147-2.612-1.79-3.127-1.933
	c-0.281-0.184-0.528-0.5-0.737-0.949c-0.214-0.442-0.437-0.643-0.667-0.597c-0.046-0.23-0.624-0.664-1.722-1.301
	c-1.102-0.63-1.795-1.04-2.072-1.23c-0.046-0.23-0.226-0.502-0.525-0.808c-0.308-0.305-0.48-0.572-0.527-0.809
	c-0.046-0.23-0.317-0.667-0.808-1.3c-0.491-0.633-0.858-0.924-1.09-0.878c-0.329-0.42-0.599-0.852-0.808-1.301
	c-0.214-0.442-0.435-0.645-0.667-0.598c-0.471,0.094-0.633,0.492-0.492,1.195c-0.471,0.094-0.856,0.599-1.158,1.51
	c-0.309,0.917-0.554,1.515-0.74,1.791c-0.938,0.188-1.356,0.517-1.263,0.983c-0.191,0.283-0.719,0.691-1.583,1.229
	c-0.868,0.539-1.511,0.975-1.932,1.299l-0.353,0.07c-0.046-0.23-0.303-0.607-0.772-1.124c-0.467-0.513-0.725-0.89-0.771-1.125
	l-0.491-0.633l-0.423-0.28c0.231-0.047-0.07-0.352-0.911-0.914l-0.844-0.562c-0.283-0.184-0.643-0.478-1.089-0.879
	c-0.444-0.396-0.902-0.55-1.371-0.456c-0.186-0.935-0.676-1.565-1.474-1.897l-0.913,0.912c0.047,0.236-0.005,0.612-0.142,1.125
	c-0.142,0.52-0.187,0.894-0.141,1.123l0.421,0.281c0.047,0.236,0.209,0.449,0.493,0.633l0.14,0.703
	c0.048,0.235,0.209,0.449,0.49,0.632c-0.234,0.047-0.646,0.129-1.229,0.246c-0.588,0.117-0.976,0.32-1.16,0.597
	c-0.703,0.141-1.335,0.632-1.898,1.476c-0.424,0.329-0.868,0.539-1.333,0.632c-0.474,0.095-0.867,0.235-1.194,0.421
	c-0.329,0.19-0.612,0.305-0.845,0.352l-1.826,1.825c-0.608,0.613-1.104,1.196-1.478,1.756c-0.188,0.284-0.482,0.953-0.879,2.003
	c-0.398,1.056-0.67,1.841-0.809,2.354c-0.093-0.467-0.585-0.796-1.475-0.984c-0.893-0.188-1.456-0.257-1.686-0.211l-0.421-0.281
	l-0.985,0.562c0.936-0.187,1.523,0.306,1.757,1.476l-1.126,1.686c0.095,0.472,0.096,1.385,0,2.74
	c-0.093,1.36-0.237,2.182-0.421,2.458c0.094,0.473-0.68,1.175-2.319,2.107c-1.64,0.938-2.558,1.55-2.741,1.826
	c-0.142,0.52-0.309,0.918-0.492,1.194c-0.188,0.283-0.401,0.445-0.633,0.491c-0.235,0.047-0.327,0.19-0.28,0.422
	c-0.19,0.284-0.621,0.552-1.301,0.808c-0.679,0.262-1.139,0.41-1.371,0.457c-0.281-0.185-0.541-0.258-0.772-0.212
	c-0.701,0.141-1.077,0.096-1.124-0.141c-0.235,0.047-0.494-0.021-0.772-0.212c-0.236,0.048-0.494-0.021-0.773-0.21l-0.141-0.702
	l-0.069-0.352l1.265-0.983c-0.093-0.467-0.318-0.97-0.666-1.512c-0.354-0.534-0.573-1.038-0.668-1.51l-1.756,0.351l0.561,2.811
	l-0.983,0.562c-0.473,0.095-0.891,0.424-1.266,0.983c-0.377,0.566-0.538,0.964-0.492,1.194c-0.235,0.047-0.444,0.517-0.632,1.404
	c-0.188,0.895-0.257,1.456-0.211,1.687c-0.237,0.047-0.305,0.307-0.212,0.773l0.141,0.702c0.095,0.473,0.223,1.114,0.386,1.932
	c0.165,0.824,0.36,1.207,0.598,1.159l0.07,0.352l0.07,0.352c-0.144,0.52-0.634,1.405-1.477,2.67
	c-0.843,1.264-1.455,2.18-1.827,2.739c-0.237,0.047-0.375-0.045-0.423-0.281c-0.281-0.183-0.443-0.396-0.49-0.632
	c-0.237,0.048-0.367-0.292-0.387-1.02c-0.025-0.726-0.058-1.204-0.104-1.439c-0.237,0.047-0.496-0.021-0.773-0.212l-0.843-0.562
	l-0.843,1.264c-0.19,0.284-0.295,0.67-0.316,1.159c-0.028,0.497-0.156,0.762-0.389,0.809c0.047,0.235,0.046,0.538,0.001,0.913
	c-0.05,0.375-0.023,0.798,0.069,1.265c-0.141,0.52-0.162,1.009-0.069,1.475c-0.19,0.284-0.271,0.482-0.247,0.599
	c0.023,0.12-0.062,0.319-0.246,0.596l-0.282,0.422c-0.235,0.048-0.632-0.113-1.193-0.492c-0.282-0.184-0.681-0.349-1.193-0.492
	c-0.238,0.047-0.479,0.342-0.739,0.879c-0.256,0.542-0.507,0.831-0.736,0.877c0.047,0.236-0.051,0.986-0.282,2.249
	c-0.238,1.27-0.541,2.18-0.915,2.74l-0.212,2.599c-0.095,0.751-0.54,2.181-1.335,4.285c-0.801,2.113-1.385,3.445-1.758,4.005
	c-0.473,0.095-0.965,0.375-1.477,0.843c-0.516,0.468-0.868,0.848-1.054,1.124c-0.236,0.047-0.54,0.353-0.914,0.913
	c-0.188,0.282-0.258,0.543-0.212,0.773c-0.235,0.047-0.373-0.046-0.42-0.282l-0.421-0.281l-0.493-0.633l-0.14-0.702
	c-0.047-0.23,0.021-0.49,0.212-0.772l0.631-0.491l0.212-0.774c-0.046-0.229-0.214-0.441-0.493-0.631
	c-0.235,0.047-0.373-0.046-0.42-0.281c-0.282-0.185-0.443-0.396-0.491-0.634c-0.52-0.136-1.336-0.886-2.459-2.248
	c-1.127-1.356-1.853-2.245-2.179-2.671l-1.403,0.28l-0.353,0.07c-0.424,0.331-0.844,0.66-1.264,0.983
	c-0.426,0.331-0.753,0.516-0.985,0.562c0.047,0.235-0.118,0.634-0.492,1.193c-0.188,0.284-0.256,0.542-0.21,0.773
	c-0.188,0.283-0.257,0.542-0.211,0.772c0.048,0.235-0.025,0.496-0.212,0.773l-1.405,0.28l-1.404,0.28l-0.844-0.562
	c-0.234,0.047-0.362,0.016-0.387-0.106c-0.023-0.115-0.155-0.151-0.386-0.105c-0.235,0.047-0.373-0.045-0.421-0.281
	c-0.237,0.048-0.496-0.021-0.773-0.211c-0.283-0.183-0.542-0.257-0.772-0.211c-0.473,0.095-1.3-0.105-2.493-0.598
	c-1.196-0.492-1.838-0.969-1.933-1.44c-0.471,0.094-1.031-0.28-1.686-1.125c-0.658-0.839-1.148-1.472-1.475-1.897
	c-0.093-0.467-0.331-1.029-0.701-1.687c-0.66-0.839-1.03-1.495-1.124-1.967l-0.07-0.352l-0.141-0.703
	c0.23-0.046,0.502-0.522,0.809-1.44c0.304-0.911,0.572-1.393,0.808-1.439c0.562-0.843,1.287-2.084,2.18-3.724
	c0.888-1.639,1.52-2.734,1.898-3.302c0.465-0.093,0.897-0.362,1.3-0.809c0.395-0.442,0.713-0.689,0.947-0.736
	c0.185-0.276,1.021-1.299,2.496-3.056c1.476-1.756,2.421-2.795,2.847-3.126c0.184-0.276,0.816-0.768,1.896-1.475
	c1.077-0.7,1.708-1.191,1.898-1.475l-0.141-0.703c-0.093-0.467-0.048-0.841,0.14-1.123c0.138-0.513,0.258-1.148,0.353-1.897
	l0.843-1.265c0.187-0.276,0.489-0.583,0.913-0.913c0.139-0.513,0.234-1.263,0.282-2.248c0.046-0.979,0.164-1.614,0.353-1.896
	c0.186-0.277,0.716-0.994,1.581-2.143c0.867-1.145,1.485-1.998,1.862-2.563c-0.046-0.23,0.21-0.466,0.774-0.703
	c0.559-0.231,1.074-0.397,1.545-0.491l0.422-1.546l0.423-1.545l1.053-0.211l1.056-0.211c0.184-0.276,0.375-0.862,0.562-1.756
	c0.189-0.889,0.396-1.358,0.634-1.405c-0.093-0.467-0.004-1.216,0.281-2.248c0.279-1.026,0.629-1.707,1.054-2.037
	c-0.046-0.23,0.021-0.489,0.212-0.773c0.184-0.276,0.35-0.674,0.493-1.193c0.136-0.514,0.302-0.912,0.489-1.194l2.109-0.421
	l0.562-0.844c0.562-0.842,0.723-1.239,0.492-1.193c0.185-0.277,0.563-0.844,1.123-1.687c0.563-0.843,1.052-1.426,1.477-1.756
	l0.353-0.07l1.054-0.21c-0.189,0.282-0.422,0.632-0.702,1.053c-0.282,0.422-0.377,0.869-0.283,1.336l0.28,1.404l1.406-0.28
	l-0.07-0.351l0.282-0.422c0.465-0.093,0.91-0.302,1.334-0.632c0.468-0.094,0.868-0.23,1.194-0.422
	c0.33-0.186,0.608-0.304,0.844-0.351c-0.093-0.467,0.115-0.937,0.632-1.405c0.512-0.468,0.866-0.841,1.055-1.123l0.422-1.546
	c0.139-0.514,0.188-0.889,0.142-1.125c-0.046-0.23,0.022-0.489,0.211-0.772c0.231-0.046,0.329-0.186,0.282-0.422l0.28-0.421
	l0.351-0.069l0.702-0.141c0.279,0.189,0.833,0.507,1.651,0.949c0.82,0.446,1.368,0.766,1.651,0.949l0.773,0.209l0.983-0.561
	l0.351-0.069c0.231-0.047,0.342-0.126,0.317-0.247c-0.023-0.115,0.079-0.198,0.315-0.245l0.703-0.141
	c0.184-0.276,0.441-0.819,0.772-1.616c0.327-0.795,0.584-1.332,0.774-1.615c-0.046-0.23,0.066-0.863,0.351-1.896
	c0.138-0.514,0.304-0.912,0.492-1.195c-0.046-0.23,0.187-0.585,0.704-1.053c0.512-0.468,0.748-0.818,0.701-1.054
	c0.374-0.56,0.643-1.041,0.811-1.44c0.159-0.397,0.429-0.874,0.808-1.439c0.374-0.561,0.632-1.098,0.772-1.617
	c-0.093-0.466-0.397-1.073-0.912-1.826c-0.514-0.747-1.031-1.193-1.545-1.336l0.279-0.421c0.232-0.046,0.491,0.027,0.773,0.211
	c0.047,0.235,0.597,0.554,1.651,0.949c1.05,0.4,1.721,0.694,2.002,0.879l0.353-0.07l0.701-0.141l-0.07-0.352
	c-0.047-0.23,0.023-0.489,0.212-0.772c-0.046-0.23,0.022-0.49,0.21-0.772l4.145,6.113l0.351-0.069l1.688-2.529l-0.07-0.352
	c-0.046-0.23-0.132-0.339-0.246-0.316c-0.121,0.024-0.199-0.08-0.247-0.316c-0.281-0.184-0.443-0.396-0.491-0.633l-0.28-1.404
	l-0.28-1.405c0.42-0.324,0.889-0.727,1.404-1.194c0.513-0.467,1.052-0.512,1.617-0.141l-1.266-0.843
	c0.186-0.276,0.447-0.512,0.774-0.703c0.327-0.185,0.7-0.442,1.124-0.771c0.184-0.277,0.488-0.584,0.913-0.913
	c0.562-0.844,0.822-1.381,0.774-1.616c0.23-0.046,0.91-0.302,2.037-0.772c1.124-0.464,1.801-0.725,2.038-0.772
	c0.372-0.559,0.947-1.342,1.722-2.354c0.769-1.003,1.113-1.74,1.02-2.212c0.562,0.378,2.049,1.114,4.462,2.215
	c2.411,1.104,3.896,1.842,4.459,2.214c0.562,0.379,0.867,0.684,0.913,0.914l0.703-0.141l1.054-0.21
	c0.279,0.189,0.888,0.496,1.827,0.914c0.936,0.423,1.567,0.845,1.896,1.265c0.047,0.236,0.396,0.777,1.054,1.616
	c0.654,0.846,1.122,1.362,1.403,1.546c0.562,0.379,1.945,1.501,4.146,3.374c2.201,1.878,3.579,3.001,4.144,3.374
	c0.562,0.378,0.913,0.913,1.054,1.616c0.047,0.235,0.447,0.401,1.193,0.492l1.546,0.421c0.048,0.237,0.28,0.801,0.703,1.687
	c0.418,0.894,0.771,1.434,1.053,1.617c0.047,0.235,0.246,0.624,0.598,1.159c0.347,0.541,0.781,0.883,1.299,1.02
	c0.279,0.189,1.102,0.938,2.459,2.248c1.358,1.316,2.2,2.181,2.529,2.601c0.229-0.046,0.476,0.271,0.736,0.949
	c0.256,0.68,0.549,1.231,0.878,1.651c0.562,0.379,1.66,1.621,3.301,3.724c1.639,2.11,2.62,3.376,2.951,3.796l2.948,3.795
	c0.232-0.047,0.423,0.281,0.563,0.983c0.14,0.702,0.349,1.151,0.631,1.335c0.324,0.427,0.91,1.525,1.755,3.303
	c0.842,1.784,1.379,2.647,1.617,2.6l3.863,1.055c0.047,0.237,0.323,0.427,0.843,0.563c0.513,0.144,1.003,0.165,1.474,0.071
	l-0.56,0.842l-0.282,0.423l0.42,2.107l1.054-0.21c1.171-0.234,1.688-0.703,1.548-1.406c0.56,0.379,1.155,0.929,1.79,1.652
	c0.632,0.73,1.11,1.302,1.441,1.722c0.276,0.189,0.651,1.148,1.122,2.881c0.467,1.733,0.771,2.951,0.911,3.654l0.771,3.864
	c0.048,0.236,0.267,1.043,0.668,2.424c0.396,1.382,0.736,2.17,1.018,2.354c0.095,0.472,0.187,1.241,0.282,2.318
	c0.09,1.077,0.254,1.593,0.489,1.546c0.048,0.236,0.329,0.728,0.843,1.476c0.517,0.753,0.798,1.244,0.844,1.476l0.491,0.633
	l-2.038,0.772c0.047,0.235-0.069,0.562-0.352,0.983c-0.28,0.421-0.397,0.752-0.352,0.983c0.095,0.472,0.279,0.801,0.563,0.984
	c0.276,0.189,0.582,0.494,0.911,0.913l0.141,0.703c0.047,0.235,0.187,0.327,0.422,0.28c0.047,0.236-0.026,0.496-0.212,0.772
	l0.07,0.352c-0.235,0.048-0.653,0.377-1.264,0.983c-0.608,0.612-1.15,0.961-1.616,1.054l-0.282,0.421l-0.772-0.21
	c-0.518-0.137-1.088-0.88-1.721-2.214c-0.632-1.336-1.139-2.33-1.509-2.987l-0.351-1.756l-0.423-0.281
	c-0.235,0.047-0.495-0.021-0.771-0.211l-0.703,0.14L161.483,83.275z M47.448,99.473c-0.472,0.094-0.668,0.315-0.598,0.667
	c0.069,0.352,0.337,0.48,0.808,0.387c0.421-0.324,0.609-0.606,0.562-0.844C48.175,99.453,47.915,99.379,47.448,99.473z
	 M48.234,52.188c0.048,0.235,0.209,0.449,0.493,0.632c0.229-0.046,0.374,0.051,0.42,0.281c0.095,0.472,0.256,0.68,0.493,0.633
	c0.229-0.046,0.327-0.187,0.28-0.422c-0.046-0.231,0.021-0.489,0.21-0.772l0.562-0.843l-0.843-0.562
	c-0.235,0.047-0.494-0.021-0.771-0.211c-0.473,0.094-0.632,0.491-0.492,1.194L48.234,52.188z M54.773,41.019
	c-0.473,0.095-0.644,0.437-0.527,1.019c0.117,0.587,0.405,0.832,0.878,0.737c0.701-0.14,0.995-0.501,0.878-1.088
	C55.886,41.104,55.475,40.879,54.773,41.019z M65.8,50.507l-0.21-1.054l-1.054,0.21L65.8,50.507z M66.016,35.12l1.054-0.21
	l-0.211-1.055L66.016,35.12z M69.665,47.909c-0.472,0.094-0.644,0.436-0.527,1.018c0.117,0.588,0.406,0.832,0.878,0.738
	c0.468-0.094,0.646-0.432,0.527-1.019C70.427,48.064,70.132,47.815,69.665,47.909z M70.717,53.178
	c0.048,0.236,0.21,0.449,0.493,0.632c0.277,0.191,0.535,0.259,0.773,0.212l-0.421-2.108l-1.406,0.281L70.717,53.178z M75.353,61.751
	l1.757-0.351l-0.211-1.055l-1.756,0.352L75.353,61.751z M79.922,55.359c-0.237,0.047-0.449,0.215-0.632,0.491
	c-0.191,0.283-0.259,0.542-0.213,0.772l0.351,1.757l1.056-0.21l1.123-1.687l-0.141-0.703c-0.046-0.23-0.025-0.417,0.071-0.562
	c0.093-0.138,0.118-0.326,0.071-0.562L79.922,55.359z M96.934,23.466l1.054-0.211l-0.141-0.702l-1.054,0.211L96.934,23.466z
	 M104.165,35.904c0.048,0.235,0.2,0.389,0.458,0.456c0.254,0.075,0.41,0.227,0.456,0.457c0.467-0.094,0.979,0.051,1.546,0.422
	c0.277,0.189,0.538,0.259,0.773,0.212l2.106-0.421l1.056-0.211l0.351-0.07c0.229-0.046,0.444-0.209,0.633-0.491
	c0.184-0.277,0.489-0.583,0.913-0.914c0.186-0.276,0.702-0.744,1.546-1.403l-0.141-0.703l-0.141-0.703l-1.053,0.21
	c-0.236,0.048-0.494-0.021-0.773-0.211c-0.235,0.047-0.373-0.045-0.42-0.28l-0.141-0.703c-0.282-0.184-0.446-0.396-0.493-0.633
	c-0.093-0.466-0.408-1.134-0.948-2.002c-0.536-0.863-0.95-1.392-1.228-1.581c-0.046-0.231-0.552-0.621-1.51-1.161
	c-0.964-0.537-1.701-0.876-2.213-1.019c0.094,0.473,0.184,1.242,0.279,2.318c0.09,1.078,0.066,1.877-0.071,2.389
	c-0.426,0.331-0.729,0.637-0.912,0.914c-0.609,0.612-0.868,1.149-0.775,1.615c-0.188,0.283-0.256,0.542-0.21,0.772l0.211,1.054
	L104.165,35.904z"/>
<path fill="#414042" d="M0,58.82h0.551c0,0.137-0.138,0.283-0.413,0.436L0,58.957V58.82z M13.219,49.502h0.574
	c0.397,0,0.673,1.951,0.826,5.853c-0.092,0.505-0.138,0.872-0.138,1.102h0.138c0,0.49-0.467,0.772-1.4,0.849
	c0-1.07-1.063-2.601-3.19-4.59c-0.459,0-1.063-0.145-1.813-0.436c-2.326,0-3.81,0.696-4.452,2.088
	c0.184,0.612,0.275,1.033,0.275,1.263v0.413c1.331,1.117,2.073,1.676,2.226,1.676l0.964-0.139c1.622,0.734,2.463,1.102,2.524,1.102
	c0.092,0,0.229-0.045,0.413-0.137c3.09,0.52,4.712,1.216,4.865,2.088c1.025,1.087,1.538,1.828,1.538,2.227v1.262
	c0.229,0.812,0.459,1.369,0.688,1.676c-0.26,0.382-0.673,1.399-1.239,3.052c-0.627,1.225-1.14,1.874-1.538,1.95
	c-0.521,0.75-1.17,1.125-1.951,1.125h-0.413c-0.092,0-0.138-0.046-0.138-0.138l-1.125,0.413c-2.02-0.229-3.825-0.65-5.416-1.262
	c-0.888,1.208-1.583,1.812-2.088,1.812H2.915c-0.734-0.627-1.102-1.415-1.102-2.363h0.138v-0.551l-0.688-0.139v-0.16l0.275-0.413
	c0-0.184-0.467-0.505-1.4-0.964v-0.413H1.4v-0.298c0-0.199-0.046-0.383-0.138-0.551C1.354,66.745,1.4,66.562,1.4,66.348
	c-0.291,0-0.436-0.092-0.436-0.275c0.474-0.367,0.711-0.788,0.711-1.263C1.492,64.52,1.4,64.29,1.4,64.121
	c0.459-0.459,0.964-0.788,1.515-0.986c0.336,0.092,1.178,1.346,2.524,3.764c1.423,1.561,2.532,2.44,3.328,2.639h0.688
	c1.928,0,3.32-0.643,4.177-1.928l-0.138-0.574l0.436-2.363c0-0.933-1.997-1.629-5.99-2.088l-1.262,0.137
	c-0.245-0.045-0.757-0.32-1.538-0.826c-0.49,0-1.086-0.282-1.79-0.849l-0.987,0.161v-0.161l0.275-0.413v-0.275
	c0-0.198-0.604-0.611-1.813-1.239l-0.138-0.573c0.184-0.092,0.329-0.139,0.436-0.139c0-0.459-0.1-0.688-0.298-0.688
	c0.092-0.184,0.138-0.322,0.138-0.414v-0.137H0.826v0.275c-0.168-0.092-0.306-0.139-0.413-0.139v-0.137
	c0.275-0.353,0.413-0.681,0.413-0.987l-0.138-0.964c0.291,0,0.436-0.191,0.436-0.574l-0.161-0.688
	c0.52-1.087,1.079-1.966,1.675-2.64c0.397-0.673,1.882-1.231,4.452-1.675c0.306,0.184,0.589,0.275,0.849,0.275v-0.139l0.275,0.139
	l0.826-0.139c0,0.139,0.558,0.322,1.675,0.551c0,0.077,0.229,0.223,0.688,0.437h0.298C12.377,49.924,12.882,49.502,13.219,49.502z"
	/>
<path fill="#414042" d="M26.575,40.506h0.138c0.52,0,0.895,0.422,1.125,1.263c-0.092,0.184-0.138,0.321-0.138,0.413
	c0,0.321,0.046,0.559,0.138,0.711c-0.092,0.643-0.138,1.156-0.138,1.538v1.124c0,0.092,0.046,0.139,0.138,0.139
	c-0.184,0.474-0.275,0.849-0.275,1.124c0.184,1.071,0.321,2.143,0.413,3.213h1.974l1.951-0.413l0.275,0.138l0.849-0.138
	c0.75,0.536,1.125,1.193,1.125,1.974c-0.321,0.842-1.163,1.263-2.524,1.263c0-0.199-0.092-0.299-0.275-0.299
	c-0.123,0-0.589,0.046-1.4,0.138l-0.574-0.138c-0.826,0-1.339,0.75-1.538,2.249c0.092,0.888,0.138,1.729,0.138,2.524v0.413
	l0.436,1.974c-0.077,0.199-0.176,0.711-0.298,1.537c0.092,0.766,0.375,2.028,0.849,3.787c-0.092,0.505-0.138,0.926-0.138,1.262
	c0.413,1.408,0.925,2.111,1.538,2.111l1.4,0.139c0.933-0.643,1.4-2.188,1.4-4.637c0-0.152-0.092-0.436-0.275-0.849
	c0-0.581,0.658-0.994,1.974-1.239c0.734,0.796,1.102,1.913,1.102,3.351c-0.092,0.153-0.138,0.39-0.138,0.712h0.138
	c-0.367,1.729-0.788,2.754-1.262,3.074c-0.796,1.867-1.683,2.801-2.662,2.801c-0.275,0.168-1.117,0.497-2.524,0.986h-0.551
	c-2.524-0.841-3.787-1.499-3.787-1.974c0-0.184-0.092-0.275-0.275-0.275v-0.688c-0.367-1.056-0.559-2.18-0.574-3.373
	c0-0.077,0.046-0.451,0.138-1.125c-0.184-1.79-0.275-3.145-0.275-4.062l0.138-2.248c-0.092-0.506-0.138-0.926-0.138-1.263
	c0.092-0.505,0.138-0.88,0.138-1.124c-0.444-2.311-0.765-3.52-0.964-3.627h-2.111c-0.521,0-0.941-0.42-1.262-1.262
	c0-0.979,1.025-1.683,3.075-2.111c0-0.184,0.145-0.275,0.436-0.275v-0.85c1.025-1.713,1.538-2.784,1.538-3.213v-0.849
	c0-0.092-0.046-0.138-0.138-0.138c0.184-0.336,0.275-0.711,0.275-1.125c0-0.061-0.046-0.665-0.138-1.812
	C25.695,40.79,26.208,40.506,26.575,40.506z"/>
<path fill="#414042" d="M52.301,49.388c4.528,0.459,6.793,1.193,6.793,2.203c0.704,0.75,1.056,1.836,1.056,3.259l-0.298,3.855
	c0.092,0.934,0.138,1.966,0.138,3.098c0,0.215-0.046,0.758-0.138,1.63h0.138c-0.092,0.184-0.138,0.329-0.138,0.437
	c0.291,0.887,0.436,1.629,0.436,2.226v1.331c0,0.734,0.688,1.225,2.065,1.469l0.734-0.436h0.161c0.122,0,0.367,0.244,0.734,0.734
	c0,1.346-0.788,2.333-2.364,2.96c-0.413,0-0.957,0.146-1.629,0.437c-2.065-0.353-3.098-0.842-3.098-1.469
	c-0.597-0.475-0.895-1.117-0.895-1.928h-0.298c-1.239,1.285-3.504,2.417-6.793,3.396c-3.244,0-5.363-1.63-6.357-4.889
	c0-2.8,0.841-4.666,2.524-5.6c0.505-0.749,1.981-1.445,4.429-2.088l0.436-0.574l0.734,0.138c0.107,0,0.26-0.046,0.459-0.138
	l0.872,0.138h0.161c0.551-0.489,1.828-0.88,3.833-1.171c0-0.535,0.145-0.879,0.436-1.032c-0.275-3.351-0.865-5.026-1.767-5.026
	c0-0.152-0.291-0.404-0.872-0.757c-3.06,0-4.59,0.345-4.59,1.032c-0.138,0-0.283,0.153-0.436,0.459v0.437l0.138,0.896
	c-0.092,0.168-0.138,0.359-0.138,0.573c0.092,0.307,0.184,0.459,0.275,0.459c-0.184,0.291-0.375,1.179-0.574,2.662
	c-0.062,0-0.704,0.046-1.928,0.138c-1.484-0.597-2.226-1.483-2.226-2.662v-1.17c0-0.107-0.046-0.161-0.138-0.161
	c1.377-2.662,2.754-3.993,4.131-3.993C49.165,49.893,50.496,49.603,52.301,49.388z M50.052,61.115l-1.469-0.139
	c-1.698,0.781-2.884,1.416-3.557,1.905c-0.888,1.071-1.331,2.157-1.331,3.259h0.161l-0.161,0.299c0,1.683,1.04,2.814,3.121,3.396
	h0.436c2.662-0.812,3.993-1.744,3.993-2.801c0.688-0.627,1.033-2.256,1.033-4.888c0.199,0,0.298-0.198,0.298-0.597
	c-0.168-0.443-0.467-0.788-0.895-1.033h-0.138C51.36,60.518,50.863,60.717,50.052,61.115z M54.78,53.427v0.161
	c0.03,0.198,0.13,0.298,0.298,0.298h0.298v-0.459c0-0.198-0.1-0.298-0.298-0.298C54.879,53.159,54.78,53.259,54.78,53.427z
	 M55.078,56.525v0.16h0.298c0.199,0,0.298-0.1,0.298-0.299v-0.298h-0.138C55.384,56.089,55.231,56.234,55.078,56.525z"/>
<path fill="#414042" d="M83.65,40.277c0.688,0.352,1.01,0.856,0.964,1.514l-0.275,2.111l0.367,2.181
	c-0.168,0.016-0.26,0.092-0.275,0.229l-0.069,0.941c0.168,0.229,0.245,0.412,0.229,0.551l-0.298,0.504
	c-0.123,1.791,0.023,4.2,0.436,7.229l-0.184,0.505c0.076,3.412,0.207,5.378,0.39,5.898H84.82c0.061,1.208,0.184,1.928,0.367,2.156
	l-0.138,0.253l-0.023,0.39c-0.062,0.796,0.038,1.829,0.298,3.099l-0.184,0.78c0.459,0.566,0.971,0.864,1.538,0.895
	c0.199,0.016,0.382-0.015,0.551-0.092c0.872,0.215,1.285,0.643,1.239,1.285L88.377,71.9c-0.062,0.291-0.742,0.56-2.042,0.804
	l-0.023,0.138l-0.757-0.459c-0.979,0.016-1.829,0.13-2.547,0.344c-1.071-0.076-1.652-0.734-1.744-1.973
	c-0.107-0.367-0.222-0.551-0.344-0.551l-0.321,0.504h0.138c-0.796,0.781-2.219,1.484-4.269,2.111l-0.941-0.068
	c-1.438-0.092-2.77-0.719-3.993-1.882c-1.255-0.703-2.295-2.991-3.121-6.862c-0.153-0.397-0.245-0.94-0.275-1.629
	c0-0.092,0.053-0.222,0.161-0.391c-0.016-0.887-0.077-1.33-0.184-1.33l0.161-0.275l0.046-0.643c0-0.092-0.046-0.146-0.138-0.161
	c0.015-0.152,0.283-0.795,0.803-1.928l-0.138-0.022c0.933-2.602,1.736-3.879,2.41-3.833c0.061-0.841,1.484-1.538,4.269-2.089
	l0.666,0.161c0.489-0.046,0.841-0.061,1.056-0.046c1.04,0.077,1.889,0.619,2.547,1.629l0.803,0.069v-0.138
	c0.046-0.459,0.03-0.856-0.046-1.193c0.122-0.489,0.191-0.841,0.207-1.056c-0.062-2.585-0.191-3.886-0.39-3.901l0.184-0.643
	c0.046-0.688-0.1-1.231-0.436-1.629l0.184-0.666c-0.352-0.551-0.727-0.841-1.125-0.872l-0.941-0.069
	c-0.245-0.015-0.513,0.055-0.803,0.207c-0.597-0.321-0.888-0.604-0.872-0.85c-0.092-0.152-0.123-0.374-0.092-0.665l0.023-0.275
	c0.015-0.321,0.833-0.62,2.456-0.896l0.918,0.207C80.292,40.836,81.554,40.567,83.65,40.277z M72.405,60.197
	c0.245,3.503,0.734,5.981,1.469,7.436c0.933,1.499,1.912,2.248,2.938,2.248h0.252c0.092,0,0.138-0.037,0.138-0.114
	c0.291,0.169,0.558,0.253,0.803,0.253h0.528c1.774-0.704,2.662-2.035,2.662-3.994c0.092-0.902,0.176-1.43,0.252-1.583
	c-0.107-1.882-0.237-3.167-0.39-3.855l0.138-0.275c-0.643-3.09-1.262-4.636-1.859-4.636c0-0.734-0.888-1.224-2.662-1.469
	c-2.402,0.688-3.603,1.622-3.603,2.8C72.825,57.374,72.604,58.438,72.405,60.197z"/>
<path fill="#414042" d="M96.364,40.506h0.138c0.52,0,0.895,0.422,1.125,1.263c-0.092,0.184-0.138,0.321-0.138,0.413
	c0,0.321,0.046,0.559,0.138,0.711c-0.092,0.643-0.138,1.156-0.138,1.538v1.124c0,0.092,0.046,0.139,0.138,0.139
	c-0.184,0.474-0.275,0.849-0.275,1.124c0.184,1.071,0.321,2.143,0.413,3.213h1.974l1.951-0.413l0.275,0.138l0.849-0.138
	c0.75,0.536,1.125,1.193,1.125,1.974c-0.321,0.842-1.163,1.263-2.524,1.263c0-0.199-0.092-0.299-0.275-0.299
	c-0.123,0-0.589,0.046-1.4,0.138l-0.574-0.138c-0.826,0-1.339,0.75-1.538,2.249c0.092,0.888,0.138,1.729,0.138,2.524v0.413
	l0.436,1.974c-0.077,0.199-0.176,0.711-0.298,1.537c0.092,0.766,0.375,2.028,0.849,3.787c-0.092,0.505-0.138,0.926-0.138,1.262
	c0.413,1.408,0.925,2.111,1.538,2.111l1.4,0.139c0.933-0.643,1.4-2.188,1.4-4.637c0-0.152-0.092-0.436-0.275-0.849
	c0-0.581,0.658-0.994,1.974-1.239c0.734,0.796,1.102,1.913,1.102,3.351c-0.092,0.153-0.138,0.39-0.138,0.712h0.138
	c-0.367,1.729-0.788,2.754-1.262,3.074c-0.796,1.867-1.683,2.801-2.662,2.801c-0.275,0.168-1.117,0.497-2.524,0.986H98.75
	c-2.524-0.841-3.787-1.499-3.787-1.974c0-0.184-0.092-0.275-0.275-0.275v-0.688c-0.367-1.056-0.559-2.18-0.574-3.373
	c0-0.077,0.046-0.451,0.138-1.125c-0.184-1.79-0.275-3.145-0.275-4.062l0.138-2.248c-0.092-0.506-0.138-0.926-0.138-1.263
	c0.092-0.505,0.138-0.88,0.138-1.124c-0.444-2.311-0.765-3.52-0.964-3.627H91.04c-0.521,0-0.941-0.42-1.262-1.262
	c0-0.979,1.025-1.683,3.075-2.111c0-0.184,0.145-0.275,0.436-0.275v-0.85c1.025-1.713,1.538-2.784,1.538-3.213v-0.849
	c0-0.092-0.046-0.138-0.138-0.138c0.184-0.336,0.275-0.711,0.275-1.125c0-0.061-0.046-0.665-0.138-1.812
	C95.484,40.79,95.997,40.506,96.364,40.506z"/>
<path fill="#414042" d="M115.389,40.805l1.216,0.092c0.168,0.016,0.245,0.16,0.23,0.436c0,0.092-0.047,0.131-0.139,0.115
	l0.092,0.551c-0.137,0.643-0.214,1.002-0.229,1.078l0.092,0.551l-0.184,0.666l0.229,0.551h-0.137
	c0.061,0.215,0.106,0.812,0.137,1.79c-0.32,0.628-0.489,1.018-0.504,1.171l0.573,1.399l-0.184,0.665l-0.138,1.768
	c-0.046,0.643-0.023,2.097,0.068,4.36c-0.092,0.123-0.16,0.39-0.206,0.804c0.138,0.596,0.198,1.01,0.184,1.238v0.139
	c-0.03,0.367-0.114,0.856-0.253,1.469c0.199,0.871,0.291,1.377,0.275,1.514c0.689,0.062,1.706-0.765,3.053-2.479
	c0.03-0.229,0.321-0.436,0.872-0.619c0.397-0.78,0.88-1.147,1.446-1.102c0.198-0.198,0.436-0.91,0.711-2.135
	c-0.78-0.412-1.4-0.643-1.859-0.688c0,0.152-0.191,0.32-0.573,0.504h-0.138c-0.352-0.152-0.505-0.573-0.459-1.262
	c0.03-0.321,0.191-0.581,0.482-0.78l0.252,0.161c0.902,0.061,1.361,0,1.377-0.184l0.252,0.16l6.564-0.16l0.527,0.045
	c0.627,0.047,0.918,0.383,0.872,1.01l-0.022,0.414c-0.047,0.535-0.345,0.871-0.896,1.01c-0.077,0-0.437-0.069-1.079-0.207
	c-1.193,0.153-2.379,0.78-3.557,1.882c-0.062,0.505-0.788,1.133-2.18,1.882c-0.414,0.597-0.628,1.033-0.643,1.309
	c1.07,1.545,2.371,3.549,3.9,6.012c0.842,0.796,1.24,1.462,1.193,1.997c-0.336,0.016-0.619,0.176-0.849,0.481l0.114,0.275
	c0.139,0.016,0.467-0.184,0.987-0.596c0.719,1.116,1.751,1.836,3.099,2.156l0.551,0.023c0.092,0.016,0.137-0.023,0.137-0.115
	c0.49,0.031,0.758,0.689,0.804,1.975c-0.03,0.443-0.995,0.596-2.892,0.459c-2.127-0.261-3.336-0.49-3.626-0.689
	c-0.107,0.261-0.383,0.376-0.826,0.345l-0.688-0.069c0.061-0.657,0.512-1.162,1.354-1.514l0.023-0.414l-0.252-0.16l0.184-0.666
	v-0.137c-0.092,0-0.223-0.054-0.391-0.161c-0.168,0.077-0.352,0.107-0.551,0.092h-0.138l0.046-0.413
	c0.184-0.198,0.291-0.467,0.321-0.803l0.275,0.022c-0.03,0.459,0.038,0.696,0.206,0.712h0.139l0.688-0.069l0.023-0.275l-0.275-0.022
	l0.023-0.275c0.015-0.107,0.305-0.313,0.871-0.62c0-0.076-0.298-0.367-0.895-0.872c-0.168-0.015-0.268,0.153-0.299,0.505
	l-0.94-0.206l-0.161,0.275c0.076,0.184,0.115,0.32,0.115,0.412c-0.184,0.016-0.283,0.101-0.299,0.253l0.092,0.688l-0.137-0.023
	c-0.643-0.045-1.913-1.866-3.811-5.461c-0.076,0-0.114-0.047-0.114-0.139v-0.137l0.161-0.275c-0.307-0.291-0.613-0.444-0.918-0.459
	l-0.139-0.023c-1.346,1.102-2.042,1.913-2.088,2.433c0,0.092,0.046,0.138,0.138,0.138l-0.161,0.252
	c-0.122,1.516-0.022,2.617,0.299,3.305c-0.215,0.275-0.329,0.536-0.344,0.781l-0.047,0.688c-0.03,0.383,0.719,0.666,2.25,0.85
	v-0.138c0.428,0.031,0.665,0.459,0.711,1.285c-0.031,0.49-0.413,0.727-1.147,0.712l-0.528-0.161
	c-3.564,0.169-5.607,0.237-6.127,0.206l-0.803-0.206c-0.016,0.138-0.215,0.307-0.597,0.505c-0.627-0.489-0.956-0.88-0.987-1.17
	c0.062-0.796,0.329-1.362,0.803-1.699l0.826,0.047c0.811,0.061,1.247-0.313,1.309-1.125c0.352-1.056,0.535-1.721,0.551-1.996
	l-0.184-0.965c0.122-0.474,0.199-0.871,0.229-1.193c-0.153-0.306-0.229-0.542-0.229-0.711c0.475-0.78,0.826-1.162,1.056-1.147
	l0.022-0.253c-0.459-1.162-0.665-1.996-0.619-2.501l-0.299-1.652l0.184-0.528c-0.016-0.643-0.084-0.971-0.206-0.986l0.161-0.252
	l0.092-1.217l-0.345-0.711c0.214-0.521,0.405-1.277,0.573-2.272c-0.214-0.643-0.313-1.102-0.298-1.377l0.184-0.665
	c-0.153-0.734-0.261-1.102-0.321-1.102c0.229-0.551,0.352-0.91,0.367-1.079c-0.199-2.906-0.451-4.375-0.758-4.406l-0.504-0.437
	l-0.275-0.022c-0.903,0.107-1.4,0.153-1.492,0.138c-0.521-0.367-0.75-0.926-0.688-1.676c0.948-0.749,2.509-1.04,4.682-0.871
	c0.153,0.106,0.329,0.168,0.528,0.184C114.86,40.858,115.144,40.79,115.389,40.805z M115.55,52.646l-0.023,0.275l0.413,0.046
	l0.022-0.275L115.55,52.646z M117.431,61.78l-0.022,0.138c0.015,0.184,0.099,0.283,0.253,0.299h0.137l0.047-0.391L117.431,61.78z
	 M119.772,61.413l-0.047,0.551c0.275,0.566,0.482,0.857,0.62,0.872l0.437-0.527c-0.43-0.307-0.628-0.589-0.598-0.85L119.772,61.413z
	 M120.483,61.068l-0.023,0.275c0.016,0.184,0.223,0.383,0.62,0.598c0.198-0.322,0.489-0.528,0.872-0.62
	c-0.062-0.367-0.229-0.565-0.505-0.597C120.988,60.97,120.667,61.084,120.483,61.068z M121.86,71.373l0.275,0.023
	c0.168,0.045,0.244,0.146,0.229,0.298v0.275c-0.459-0.046-0.696,0.022-0.712,0.206c-0.352-0.152-0.52-0.298-0.504-0.436
	C121.593,71.771,121.829,71.648,121.86,71.373z M121.218,70.776l0.413,0.046c-0.016,0.184-0.114,0.268-0.298,0.252l-0.139-0.022
	L121.218,70.776z M124.224,65.314c-0.016,0.169-0.068,0.252-0.16,0.252c0.076,0.643,0.191,0.973,0.344,0.987l0.689-0.092
	l0.045-0.551l-0.551-0.022c0.031-0.367-0.045-0.559-0.229-0.574H124.224z M124.431,71.441l-0.023,0.275l0.414,0.023l0.022-0.275
	L124.431,71.441z M128.171,43.834c0.367,0.077,0.551,0.169,0.551,0.275v0.184c-0.244,0.628-0.367,1.025-0.367,1.193
	c-0.795-0.428-1.193-0.826-1.193-1.193v-0.092C127.161,44.018,127.498,43.896,128.171,43.834z"/>
<path fill="#414042" d="M141.022,41.195c0.551,0,0.949,0.222,1.193,0.665v1.722c0.275,0.336,0.414,0.65,0.414,0.94v0.275
	l-0.275,0.39v0.551c0,0.383,0.092,0.734,0.275,1.057c-0.184,0.367-0.275,0.635-0.275,0.803c0,0.199,0.092,1.002,0.275,2.41
	c-0.184,0.352-0.275,0.665-0.275,0.94c0,0.092,0.045,0.138,0.137,0.138l-0.137,0.666v2.662c0,0.719,0.137,1.3,0.412,1.744
	c-0.275,0.443-0.412,0.795-0.412,1.055c0.275,1.332,0.412,2.089,0.412,2.272l-0.275,0.551l0.139,1.331
	c0,0.215-0.047,0.566-0.139,1.056c0.092,0.766,0.139,1.393,0.139,1.882c0,0.307-0.047,1.063-0.139,2.271
	c0.245,0.857,0.421,1.301,0.528,1.332c-0.169,0.32-0.253,0.681-0.253,1.078c0,0.628,0.352,0.941,1.057,0.941h1.605
	c0.23,0,0.451,0.443,0.666,1.33c-0.199,0.796-0.421,1.193-0.666,1.193h-1.881l-0.781,0.139c-0.336-0.184-0.695-0.275-1.078-0.275
	h-0.527c-0.246,0-0.514,0.092-0.804,0.275c-0.459-0.184-0.772-0.275-0.94-0.275c-0.107,0-0.551,0.045-1.332,0.137
	c-1.055-0.092-1.812-0.137-2.271-0.137v-0.528c0-0.198-0.046-0.375-0.138-0.528c0-0.504,0.849-0.909,2.548-1.216
	c0.26,0,0.436-0.62,0.527-1.858l-0.275-0.528c0.184-0.306,0.321-1.109,0.413-2.409l-0.138-1.332l0.138-1.216l-0.275-0.665
	c0.092-0.169,0.138-0.299,0.138-0.391c-0.184-0.565-0.275-1.018-0.275-1.354c0.092-0.261,0.184-0.391,0.275-0.391l-0.138-1.217
	c0-0.184,0.046-0.673,0.138-1.469l-0.138-0.252c0.092-0.152,0.138-0.336,0.138-0.551l-0.138-0.78l0.275-1.744
	c-0.169-0.811-0.306-1.216-0.413-1.216c0.184-0.322,0.275-0.72,0.275-1.193c-0.184-0.566-0.275-0.88-0.275-0.941
	c0.092-0.26,0.184-0.391,0.275-0.391l-0.138-1.33v-0.804l-0.39-0.665l0.114-0.275l-0.114-0.666l0.114-1.606
	c-0.046-0.244-0.269-0.467-0.665-0.665h-0.253l-1.354,0.137c0-0.106-0.352-0.29-1.055-0.551l-0.139-0.665
	C134.872,42.182,136.923,41.562,141.022,41.195z"/>
<path fill="#414042" d="M160.806,49.388c4.527,0.459,6.793,1.193,6.793,2.203c0.703,0.75,1.055,1.836,1.055,3.259l-0.298,3.855
	c0.092,0.934,0.138,1.966,0.138,3.098c0,0.215-0.046,0.758-0.138,1.63h0.138c-0.092,0.184-0.138,0.329-0.138,0.437
	c0.29,0.887,0.437,1.629,0.437,2.226v1.331c0,0.734,0.688,1.225,2.064,1.469l0.734-0.436h0.161c0.122,0,0.367,0.244,0.734,0.734
	c0,1.346-0.788,2.333-2.364,2.96c-0.412,0-0.956,0.146-1.629,0.437c-2.065-0.353-3.098-0.842-3.098-1.469
	c-0.598-0.475-0.896-1.117-0.896-1.928h-0.298c-1.24,1.285-3.504,2.417-6.793,3.396c-3.244,0-5.363-1.63-6.357-4.889
	c0-2.8,0.842-4.666,2.524-5.6c0.505-0.749,1.981-1.445,4.429-2.088l0.437-0.574l0.734,0.138c0.106,0,0.26-0.046,0.459-0.138
	l0.872,0.138h0.16c0.551-0.489,1.828-0.88,3.833-1.171c0-0.535,0.146-0.879,0.437-1.032c-0.275-3.351-0.865-5.026-1.768-5.026
	c0-0.152-0.291-0.404-0.872-0.757c-3.06,0-4.59,0.345-4.59,1.032c-0.138,0-0.283,0.153-0.437,0.459v0.437l0.139,0.896
	c-0.092,0.168-0.139,0.359-0.139,0.573c0.092,0.307,0.184,0.459,0.275,0.459c-0.184,0.291-0.375,1.179-0.573,2.662
	c-0.062,0-0.704,0.046-1.928,0.138c-1.484-0.597-2.226-1.483-2.226-2.662v-1.17c0-0.107-0.047-0.161-0.139-0.161
	c1.377-2.662,2.754-3.993,4.131-3.993C157.669,49.893,158.999,49.603,160.806,49.388z M158.556,61.115l-1.469-0.139
	c-1.697,0.781-2.884,1.416-3.557,1.905c-0.888,1.071-1.331,2.157-1.331,3.259h0.161l-0.161,0.299c0,1.683,1.04,2.814,3.121,3.396
	h0.437c2.662-0.812,3.992-1.744,3.992-2.801c0.689-0.627,1.033-2.256,1.033-4.888c0.199,0,0.299-0.198,0.299-0.597
	c-0.169-0.443-0.467-0.788-0.896-1.033h-0.138C159.864,60.518,159.366,60.717,158.556,61.115z M163.284,53.427v0.161
	c0.029,0.198,0.129,0.298,0.298,0.298h0.298v-0.459c0-0.198-0.1-0.298-0.298-0.298C163.383,53.159,163.284,53.259,163.284,53.427z
	 M163.582,56.525v0.16h0.298c0.199,0,0.299-0.1,0.299-0.299v-0.298h-0.138C163.888,56.089,163.735,56.234,163.582,56.525z"/>
<path fill="#414042" d="M191.396,50.467c0.887,0.076,2.034,0.757,3.442,2.042c0.046,0.383,0.122,0.582,0.229,0.597l-0.16,0.275
	l-0.023,0.299l0.734,1.354l-0.207,0.85l0.139,0.022l-0.161,0.275c0.152,0.321,0.222,0.612,0.206,0.872
	c-0.229,4.621-0.146,6.946,0.253,6.977l-0.229,0.986c-0.016,1.316-0.046,2.234-0.092,2.754c0.184,0.047,0.268,0.146,0.252,0.299
	l-0.229,0.85c0.32,0.32,0.887,0.52,1.697,0.596l1.148,0.092c0.412,0.047,0.634,0.789,0.665,2.227
	c-0.046,0.582-1.216,0.772-3.511,0.574c-0.307-0.23-0.59-0.353-0.85-0.367c-0.658,0.32-1.201,0.467-1.629,0.436l0.022-0.138
	l-0.298,0.114l-0.299-0.022c-0.215-0.214-0.398-0.329-0.551-0.345l-1.309,0.023l-0.551-0.184c-0.734,0.123-1.124,0.184-1.17,0.184
	c-0.169-0.765-0.321-1.262-0.459-1.492c0.046-0.52,0.268-0.841,0.666-0.963l0.436,0.045l0.85,0.23
	c0.688-0.184,1.047-0.444,1.078-0.781c0.106-1.238,0.1-2.203-0.023-2.891c0.139-0.521,0.222-0.949,0.253-1.285l0.092-1.148
	c0.03-0.26-0.038-0.558-0.206-0.895l0.229-0.986c-0.106-0.873-0.152-1.454-0.137-1.744l0.252-1.285
	c-0.215-0.704-0.321-1.102-0.321-1.193c0.138-0.367,0.214-0.696,0.229-0.987c0.076-0.826-0.834-1.966-2.73-3.419l-1.01-0.092
	c-2.219-0.199-3.956,1.477-5.21,5.025l-0.206,0.574c0.03,0.703,0.168,1.346,0.412,1.928c-0.152,0.688-0.352,1.293-0.596,1.812
	c0.275,0.429,0.45,1.698,0.527,3.81c-0.107,0.169-0.169,0.359-0.184,0.573c0.138,0.169,0.313,0.903,0.527,2.203
	c0.383,0.291,1.179,0.56,2.387,0.804c0.322,0.78,0.475,1.225,0.459,1.331c-0.03,0.398-0.926,0.704-2.685,0.918
	c-0.812-0.168-1.477-0.275-1.997-0.321c-0.412-0.03-0.849,0.031-1.308,0.184l-0.85-0.229c-0.229-0.015-1.393,0.031-3.488,0.138
	c-0.26-0.413-0.451-1.01-0.573-1.79c0.214-0.29,0.337-0.565,0.367-0.826l0.046-0.436c0.275,0.03,0.627-0.184,1.056-0.643
	l0.092,0.596l0.872,0.069l0.391,0.345l0.298,0.022c0.138,0,0.352-0.222,0.643-0.665v-0.161c-0.337-0.428-0.489-0.826-0.459-1.193
	l0.022-0.298c0.047-0.184,0.146-0.268,0.299-0.253c0-0.948-0.138-1.583-0.413-1.905l0.114-1.17c0.047-0.611,0.146-1.224,0.299-1.836
	c0.016-0.076-0.054-0.956-0.207-2.639c0.016-0.153,0.115-0.72,0.299-1.699c-0.199-0.627-0.329-1.896-0.391-3.809l-0.527-0.482
	h-0.138c-0.353-0.03-0.804,0.123-1.354,0.459c-0.719-0.061-1.293-0.643-1.721-1.744c0.107-1.147,1.645-1.591,4.613-1.331
	c0.152,0.016,0.543-0.046,1.17-0.184l0.849,0.206c0.016-0.137,0.169-0.267,0.459-0.39l0.437,0.046
	c0.152,0.016,0.321,0.321,0.505,0.918c-0.123,0.169-0.184,0.307-0.184,0.413c0.138,0.628,0.198,0.972,0.184,1.032
	c-0.107,0.169-0.16,0.307-0.16,0.414c0.106,0.397,0.229,0.604,0.367,0.619l0.298,0.023l0.069-0.873
	c0.551,0.047,1.124-0.481,1.721-1.583c0.611-0.061,1.217-0.298,1.812-0.712l0.275,0.184
	C188.834,50.436,190.188,50.359,191.396,50.467z M181.23,60.725v0.138c0,0.199,0.084,0.298,0.252,0.298l0.138,0.023
	c0.138,0.016,0.298-0.115,0.481-0.391v-0.137l-0.137-0.023L181.23,60.725z M181.459,59.875l-0.045,0.414l0.436,0.045l0.046-0.436
	L181.459,59.875z M192.016,63.249l-0.022,0.298l0.413,0.047l0.023-0.299L192.016,63.249z"/>
</svg>
