<?xml version="1.0" encoding="utf-8"?>
<!-- Generator: Adobe Illustrator 15.0.0, SVG Export Plug-In  -->
<!DOCTYPE svg PUBLIC "-//W3C//DTD SVG 1.1//EN" "http://www.w3.org/Graphics/SVG/1.1/DTD/svg11.dtd" [
	<!ENTITY ns_flows "http://ns.adobe.com/Flows/1.0/">
]>
<svg version="1.1"
	 xmlns="http://www.w3.org/2000/svg" xmlns:xlink="http://www.w3.org/1999/xlink" xmlns:a="http://ns.adobe.com/AdobeSVGViewerExtensions/3.0/"
	 x="0px" y="0px" width="698px" height="136px" viewBox="-3 -6 698 136" overflow="visible" enable-background="new -3 -6 698 136"
	 xml:space="preserve">
<defs>
</defs>
<path fill="#F26522" d="M79.948,46.427c-0.263,0.053-0.475,0.165-0.646,0.332c-0.169,0.172-0.321,0.269-0.449,0.295l-1.997-6.934
	l-0.588,0.118l-0.195,0.039c-0.132,0.026-0.314,0.132-0.549,0.312c-0.237,0.185-0.42,0.288-0.549,0.313
	c-0.183-0.234-0.431-0.626-0.743-1.175c-0.314-0.548-0.628-0.924-0.94-1.136c-0.025-0.129-0.342-0.339-0.94-0.627
	c-0.602-0.287-0.914-0.495-0.94-0.627c-0.289-0.076-0.497-0.273-0.625-0.588c-0.133-0.311-0.222-0.599-0.274-0.862
	c-0.131,0.026-0.418-0.05-0.862-0.235c-0.444-0.182-0.679-0.339-0.706-0.471c-0.131,0.027-0.268-0.15-0.411-0.529
	c-0.146-0.378-0.373-0.669-0.686-0.881c-0.026-0.129-0.131-0.483-0.314-1.058c-0.184-0.573-0.34-0.849-0.469-0.823
	c-0.183-0.233-0.483-0.717-0.9-1.449c-0.209-0.365-0.406-0.663-0.587-0.901c-0.314-0.208-0.732-0.429-1.254-0.666
	c-0.523-0.232-0.939-0.455-1.251-0.667c-0.316-0.207-0.911-0.633-1.782-1.273c-0.877-0.639-1.457-0.999-1.743-1.077
	c-0.157-0.102-0.295-0.279-0.411-0.529c-0.119-0.247-0.244-0.358-0.372-0.333c-0.026-0.129-0.348-0.371-0.96-0.725
	c-0.615-0.351-1.001-0.58-1.155-0.687c-0.026-0.128-0.126-0.279-0.293-0.45c-0.171-0.17-0.268-0.319-0.294-0.451
	c-0.026-0.128-0.177-0.371-0.45-0.725c-0.273-0.353-0.479-0.515-0.608-0.489c-0.183-0.234-0.333-0.475-0.45-0.725
	c-0.119-0.247-0.242-0.36-0.372-0.333c-0.263,0.052-0.353,0.274-0.274,0.667c-0.263,0.052-0.478,0.333-0.646,0.841
	c-0.172,0.512-0.309,0.845-0.413,0.999c-0.523,0.104-0.757,0.288-0.704,0.548c-0.107,0.158-0.401,0.386-0.882,0.686
	c-0.485,0.3-0.843,0.543-1.077,0.724l-0.197,0.039c-0.025-0.128-0.169-0.338-0.431-0.626c-0.26-0.286-0.404-0.496-0.43-0.627
	l-0.273-0.353l-0.236-0.156c0.13-0.026-0.039-0.196-0.507-0.51l-0.471-0.313c-0.158-0.102-0.358-0.267-0.607-0.49
	c-0.248-0.221-0.503-0.306-0.764-0.254c-0.104-0.521-0.377-0.873-0.822-1.058l-0.509,0.508c0.027,0.131-0.002,0.341-0.079,0.627
	c-0.079,0.29-0.104,0.498-0.078,0.626l0.234,0.157c0.026,0.131,0.117,0.25,0.275,0.353l0.078,0.392
	c0.026,0.131,0.116,0.25,0.273,0.352c-0.131,0.027-0.361,0.072-0.685,0.137c-0.328,0.066-0.543,0.179-0.646,0.333
	c-0.392,0.079-0.744,0.352-1.059,0.823c-0.236,0.183-0.483,0.3-0.743,0.352c-0.264,0.054-0.483,0.132-0.666,0.235
	c-0.183,0.106-0.341,0.17-0.471,0.196l-1.018,1.018c-0.339,0.342-0.615,0.667-0.824,0.979c-0.105,0.159-0.269,0.532-0.489,1.117
	c-0.223,0.588-0.374,1.026-0.451,1.312c-0.052-0.261-0.326-0.444-0.822-0.549c-0.498-0.104-0.812-0.143-0.939-0.117l-0.235-0.157
	l-0.549,0.313c0.521-0.104,0.849,0.171,0.979,0.823l-0.628,0.939c0.053,0.263,0.053,0.771,0,1.527
	c-0.052,0.759-0.132,1.216-0.234,1.371c0.052,0.263-0.379,0.655-1.293,1.175c-0.914,0.523-1.426,0.864-1.528,1.018
	c-0.079,0.29-0.172,0.512-0.274,0.666c-0.105,0.158-0.224,0.248-0.353,0.273c-0.131,0.026-0.183,0.106-0.156,0.235
	c-0.106,0.159-0.346,0.308-0.726,0.451c-0.378,0.146-0.635,0.228-0.764,0.254c-0.157-0.102-0.301-0.144-0.431-0.118
	c-0.39,0.078-0.6,0.054-0.626-0.078c-0.132,0.026-0.276-0.012-0.431-0.118c-0.132,0.027-0.276-0.011-0.431-0.117l-0.079-0.391
	l-0.039-0.197l0.706-0.547c-0.052-0.261-0.178-0.542-0.372-0.844c-0.198-0.297-0.32-0.578-0.373-0.842l-0.979,0.195l0.312,1.567
	l-0.548,0.313c-0.264,0.053-0.498,0.236-0.706,0.549c-0.211,0.315-0.301,0.537-0.275,0.665c-0.131,0.026-0.248,0.288-0.352,0.783
	c-0.104,0.499-0.144,0.812-0.118,0.94c-0.132,0.026-0.169,0.171-0.118,0.431l0.078,0.392c0.054,0.264,0.125,0.621,0.215,1.077
	c0.092,0.459,0.201,0.673,0.333,0.646l0.039,0.196l0.039,0.196c-0.08,0.29-0.353,0.783-0.823,1.488
	c-0.47,0.704-0.811,1.215-1.019,1.527c-0.132,0.026-0.209-0.025-0.236-0.157c-0.156-0.101-0.247-0.221-0.273-0.353
	c-0.132,0.027-0.205-0.162-0.216-0.568c-0.014-0.404-0.032-0.671-0.059-0.803c-0.131,0.027-0.276-0.011-0.431-0.118l-0.47-0.313
	l-0.469,0.705c-0.106,0.158-0.165,0.374-0.177,0.646c-0.015,0.277-0.087,0.424-0.216,0.451c0.026,0.131,0.025,0.3,0,0.509
	c-0.028,0.209-0.013,0.444,0.039,0.705c-0.078,0.29-0.09,0.562-0.039,0.821c-0.106,0.159-0.151,0.27-0.138,0.334
	c0.013,0.067-0.034,0.178-0.138,0.332l-0.157,0.235c-0.131,0.027-0.352-0.063-0.666-0.274c-0.157-0.102-0.379-0.194-0.665-0.274
	c-0.133,0.026-0.268,0.19-0.413,0.49c-0.143,0.302-0.282,0.463-0.411,0.489c0.026,0.132-0.028,0.55-0.157,1.254
	c-0.133,0.708-0.302,1.215-0.511,1.527l-0.118,1.449c-0.053,0.418-0.301,1.216-0.745,2.389c-0.446,1.178-0.771,1.92-0.979,2.232
	c-0.263,0.053-0.539,0.209-0.823,0.471c-0.287,0.261-0.484,0.472-0.587,0.626c-0.132,0.026-0.301,0.196-0.51,0.509
	c-0.105,0.157-0.144,0.302-0.118,0.431c-0.131,0.026-0.208-0.026-0.234-0.158l-0.234-0.156l-0.275-0.353l-0.079-0.392
	c-0.026-0.129,0.012-0.274,0.118-0.431l0.352-0.274l0.118-0.432c-0.025-0.127-0.119-0.246-0.274-0.352
	c-0.131,0.026-0.208-0.025-0.234-0.156c-0.157-0.103-0.247-0.221-0.273-0.354c-0.29-0.075-0.745-0.494-1.371-1.253
	c-0.628-0.756-1.033-1.252-1.215-1.489l-0.782,0.157l-0.197,0.039c-0.236,0.184-0.47,0.368-0.704,0.547
	c-0.238,0.185-0.42,0.288-0.55,0.314c0.026,0.132-0.066,0.354-0.274,0.666c-0.105,0.158-0.143,0.302-0.117,0.431
	c-0.105,0.158-0.143,0.302-0.117,0.43c0.027,0.132-0.015,0.277-0.119,0.432L8.145,57.1l-0.783,0.156l-0.471-0.313
	c-0.13,0.027-0.202,0.009-0.215-0.059C6.663,56.82,6.59,56.8,6.461,56.825C6.33,56.851,6.253,56.8,6.227,56.668
	c-0.132,0.027-0.276-0.011-0.431-0.118c-0.159-0.102-0.303-0.144-0.432-0.118C5.101,56.485,4.64,56.375,3.975,56.1
	c-0.667-0.275-1.025-0.541-1.078-0.803c-0.263,0.052-0.575-0.157-0.939-0.627c-0.367-0.468-0.641-0.821-0.822-1.058
	c-0.052-0.261-0.185-0.574-0.391-0.94c-0.368-0.468-0.574-0.834-0.626-1.097l-0.04-0.196L0,50.987
	c0.128-0.025,0.28-0.292,0.451-0.804c0.169-0.507,0.319-0.776,0.45-0.802c0.313-0.47,0.717-1.162,1.215-2.076
	c0.495-0.914,0.847-1.524,1.058-1.841c0.26-0.051,0.5-0.201,0.726-0.45c0.22-0.247,0.397-0.384,0.528-0.411
	c0.104-0.154,0.569-0.724,1.392-1.704c0.822-0.979,1.349-1.558,1.587-1.743c0.102-0.154,0.455-0.428,1.057-0.822
	c0.601-0.39,0.953-0.664,1.059-0.822l-0.078-0.392c-0.052-0.26-0.027-0.468,0.077-0.626c0.078-0.286,0.145-0.64,0.197-1.058
	l0.47-0.705c0.104-0.154,0.273-0.325,0.509-0.509c0.078-0.286,0.131-0.704,0.158-1.253c0.025-0.547,0.091-0.901,0.196-1.058
	c0.104-0.155,0.399-0.555,0.882-1.195c0.483-0.638,0.828-1.113,1.038-1.429c-0.025-0.129,0.117-0.26,0.431-0.393
	c0.312-0.129,0.6-0.222,0.862-0.273l0.235-0.862l0.236-0.861l0.586-0.118l0.589-0.117c0.102-0.154,0.208-0.48,0.312-0.979
	c0.106-0.496,0.221-0.757,0.354-0.784c-0.052-0.26-0.002-0.678,0.157-1.253c0.156-0.573,0.351-0.952,0.587-1.136
	c-0.025-0.128,0.012-0.273,0.118-0.431c0.103-0.154,0.196-0.375,0.275-0.665c0.076-0.287,0.168-0.509,0.273-0.666l1.176-0.235
	l0.314-0.47c0.313-0.47,0.402-0.691,0.274-0.666c0.103-0.155,0.314-0.471,0.626-0.94c0.314-0.47,0.586-0.795,0.823-0.979l0.196-0.04
	l0.588-0.116c-0.106,0.157-0.235,0.352-0.392,0.587c-0.157,0.235-0.21,0.484-0.158,0.744l0.157,0.783l0.784-0.156l-0.039-0.195
	l0.157-0.235c0.259-0.051,0.507-0.168,0.744-0.352c0.26-0.053,0.484-0.129,0.666-0.235c0.184-0.104,0.339-0.169,0.47-0.196
	c-0.051-0.26,0.064-0.522,0.352-0.783c0.285-0.261,0.483-0.469,0.588-0.626l0.235-0.862c0.077-0.287,0.105-0.495,0.079-0.628
	c-0.026-0.128,0.012-0.272,0.117-0.43c0.129-0.026,0.183-0.104,0.157-0.235l0.156-0.235l0.196-0.039l0.391-0.078
	c0.156,0.106,0.465,0.282,0.921,0.529c0.457,0.249,0.762,0.427,0.92,0.529l0.432,0.117l0.548-0.312l0.196-0.04
	c0.129-0.026,0.19-0.07,0.177-0.137c-0.013-0.064,0.044-0.111,0.176-0.137l0.392-0.079c0.103-0.154,0.246-0.456,0.431-0.9
	c0.182-0.443,0.326-0.743,0.432-0.901c-0.026-0.129,0.037-0.481,0.195-1.057c0.077-0.287,0.169-0.509,0.274-0.667
	c-0.026-0.128,0.104-0.326,0.392-0.587c0.286-0.261,0.417-0.456,0.391-0.587c0.208-0.312,0.358-0.581,0.452-0.803
	c0.089-0.222,0.239-0.487,0.45-0.802c0.208-0.313,0.353-0.612,0.431-0.902c-0.051-0.259-0.221-0.598-0.509-1.018
	c-0.286-0.416-0.574-0.665-0.861-0.745l0.156-0.234c0.13-0.025,0.274,0.015,0.432,0.117c0.026,0.132,0.332,0.309,0.92,0.529
	c0.586,0.224,0.959,0.387,1.116,0.49l0.197-0.039l0.391-0.078l-0.04-0.196c-0.026-0.128,0.014-0.273,0.119-0.431
	c-0.026-0.128,0.012-0.274,0.117-0.431l2.311,3.408l0.195-0.039l0.942-1.41l-0.04-0.196c-0.025-0.128-0.073-0.189-0.137-0.176
	c-0.067,0.013-0.11-0.045-0.137-0.177c-0.157-0.103-0.248-0.221-0.274-0.353l-0.156-0.783L38.44,6.853
	c0.234-0.181,0.495-0.406,0.783-0.666c0.286-0.261,0.586-0.285,0.902-0.078l-0.706-0.47c0.103-0.154,0.249-0.286,0.432-0.392
	c0.183-0.103,0.391-0.247,0.627-0.43c0.102-0.154,0.272-0.325,0.509-0.509c0.313-0.471,0.458-0.77,0.432-0.901
	c0.129-0.025,0.507-0.168,1.136-0.431c0.627-0.258,1.004-0.404,1.137-0.43c0.207-0.312,0.527-0.749,0.96-1.312
	c0.428-0.56,0.62-0.971,0.568-1.233c0.313,0.21,1.143,0.621,2.488,1.234c1.344,0.615,2.172,1.027,2.486,1.234
	c0.312,0.211,0.483,0.381,0.509,0.51l0.393-0.079l0.587-0.116c0.156,0.105,0.495,0.276,1.019,0.509
	c0.522,0.236,0.875,0.471,1.058,0.705c0.026,0.132,0.22,0.433,0.587,0.901c0.365,0.472,0.625,0.76,0.782,0.862
	c0.313,0.211,1.084,0.836,2.312,1.88c1.227,1.048,1.995,1.674,2.31,1.882c0.313,0.21,0.509,0.509,0.587,0.901
	c0.027,0.131,0.25,0.224,0.665,0.274l0.862,0.235c0.026,0.132,0.156,0.447,0.393,0.94c0.232,0.498,0.429,0.799,0.586,0.901
	c0.026,0.131,0.137,0.349,0.333,0.646c0.193,0.301,0.436,0.493,0.725,0.568c0.155,0.106,0.614,0.523,1.37,1.253
	c0.757,0.734,1.227,1.216,1.41,1.45c0.128-0.025,0.265,0.151,0.411,0.529c0.143,0.379,0.306,0.687,0.489,0.921
	c0.313,0.211,0.926,0.903,1.84,2.076c0.914,1.176,1.461,1.881,1.646,2.116l1.643,2.115c0.13-0.026,0.236,0.157,0.315,0.549
	c0.078,0.391,0.194,0.642,0.351,0.744c0.181,0.237,0.508,0.85,0.979,1.842c0.469,0.995,0.769,1.475,0.901,1.448l2.154,0.589
	c0.026,0.132,0.18,0.237,0.47,0.313c0.286,0.081,0.559,0.092,0.822,0.041l-0.312,0.469l-0.158,0.236l0.234,1.175l0.587-0.117
	c0.653-0.131,0.942-0.393,0.863-0.784c0.312,0.211,0.644,0.518,0.998,0.921c0.352,0.408,0.619,0.726,0.804,0.96
	c0.154,0.105,0.363,0.641,0.625,1.606c0.26,0.966,0.43,1.645,0.508,2.037l0.43,2.154c0.026,0.132,0.148,0.582,0.372,1.352
	c0.221,0.771,0.411,1.21,0.568,1.312c0.053,0.263,0.104,0.692,0.157,1.293c0.051,0.6,0.142,0.888,0.273,0.861
	c0.027,0.132,0.184,0.406,0.47,0.823c0.288,0.419,0.444,0.694,0.47,0.823l0.274,0.353l-1.137,0.431
	c0.027,0.131-0.038,0.313-0.195,0.548c-0.156,0.234-0.222,0.42-0.196,0.549c0.053,0.263,0.156,0.446,0.314,0.548
	c0.154,0.106,0.325,0.275,0.508,0.509l0.078,0.392c0.026,0.132,0.104,0.182,0.235,0.156c0.026,0.132-0.014,0.276-0.119,0.431
	l0.04,0.196c-0.131,0.027-0.364,0.21-0.705,0.549c-0.339,0.341-0.641,0.535-0.901,0.587l-0.158,0.235l-0.43-0.117
	c-0.289-0.077-0.606-0.491-0.96-1.235c-0.352-0.745-0.634-1.298-0.84-1.665l-0.196-0.979l-0.235-0.157
	c-0.131,0.026-0.275-0.012-0.43-0.118l-0.393,0.078L79.948,46.427z M16.372,55.458c-0.263,0.052-0.373,0.176-0.333,0.372
	c0.039,0.195,0.188,0.267,0.45,0.215c0.235-0.18,0.34-0.337,0.313-0.47C16.777,55.447,16.632,55.405,16.372,55.458z M16.811,29.096
	c0.026,0.132,0.116,0.25,0.274,0.353c0.128-0.026,0.208,0.028,0.235,0.157c0.053,0.263,0.143,0.378,0.275,0.353
	c0.127-0.025,0.183-0.104,0.156-0.235c-0.026-0.129,0.012-0.273,0.117-0.431l0.314-0.47l-0.471-0.314
	c-0.131,0.027-0.275-0.011-0.43-0.117c-0.263,0.052-0.352,0.274-0.274,0.666L16.811,29.096z M20.455,22.868
	c-0.263,0.053-0.358,0.244-0.293,0.568c0.065,0.327,0.226,0.464,0.489,0.411c0.39-0.078,0.555-0.279,0.49-0.607
	C21.076,22.916,20.846,22.79,20.455,22.868z M26.603,28.158l-0.117-0.587l-0.588,0.117L26.603,28.158z M26.723,19.58l0.588-0.117
	l-0.117-0.588L26.723,19.58z M28.758,26.71c-0.263,0.052-0.359,0.242-0.293,0.567c0.065,0.328,0.227,0.464,0.489,0.412
	c0.261-0.052,0.36-0.241,0.294-0.567C29.183,26.796,29.019,26.657,28.758,26.71z M29.344,29.647c0.027,0.131,0.117,0.25,0.275,0.352
	c0.155,0.107,0.298,0.145,0.431,0.119l-0.235-1.175l-0.784,0.156L29.344,29.647z M31.929,34.427l0.979-0.195l-0.117-0.588
	l-0.979,0.196L31.929,34.427z M34.477,30.863c-0.133,0.026-0.25,0.12-0.353,0.274c-0.106,0.158-0.144,0.302-0.118,0.431l0.195,0.979
	l0.589-0.117l0.625-0.94l-0.079-0.392c-0.025-0.128-0.014-0.232,0.04-0.313c0.051-0.077,0.066-0.182,0.04-0.313L34.477,30.863z
	 M43.96,13.083l0.588-0.118l-0.079-0.391l-0.587,0.117L43.96,13.083z M47.992,20.018c0.027,0.131,0.111,0.216,0.255,0.254
	c0.142,0.042,0.229,0.126,0.254,0.254c0.26-0.052,0.546,0.029,0.862,0.236c0.155,0.105,0.3,0.144,0.431,0.118l1.175-0.235
	l0.588-0.117l0.195-0.039c0.127-0.026,0.248-0.117,0.353-0.274c0.102-0.155,0.273-0.325,0.509-0.51
	c0.104-0.153,0.392-0.415,0.862-0.782l-0.079-0.393l-0.078-0.392l-0.586,0.117c-0.132,0.027-0.276-0.011-0.432-0.118
	c-0.131,0.026-0.208-0.025-0.234-0.157l-0.079-0.392c-0.157-0.103-0.249-0.221-0.275-0.353c-0.051-0.26-0.227-0.633-0.528-1.116
	c-0.298-0.481-0.53-0.776-0.684-0.882c-0.025-0.129-0.308-0.346-0.842-0.647c-0.537-0.3-0.949-0.489-1.234-0.568
	c0.052,0.264,0.102,0.693,0.156,1.293c0.05,0.601,0.037,1.046-0.04,1.332c-0.238,0.184-0.406,0.354-0.508,0.51
	c-0.34,0.341-0.484,0.64-0.432,0.9c-0.106,0.158-0.143,0.302-0.118,0.431l0.118,0.588L47.992,20.018z"/>
<g>
	<path fill="#E6E7E8" d="M34.259,79.961h1.314c0,0.329-0.329,0.676-0.985,1.04l-0.329-0.711V79.961z M65.79,57.736h1.368
		c0.949,0,1.605,4.653,1.971,13.959c-0.219,1.205-0.328,2.081-0.328,2.628h0.328c0,1.168-1.114,1.843-3.339,2.025
		c0-2.554-2.537-6.204-7.609-10.948c-1.095,0-2.537-0.347-4.325-1.04c-5.547,0-9.087,1.661-10.62,4.981
		c0.438,1.46,0.657,2.463,0.657,3.011v0.985c3.175,2.664,4.945,3.996,5.31,3.996l2.299-0.329c3.868,1.752,5.875,2.627,6.021,2.627
		c0.219,0,0.547-0.109,0.985-0.328c7.371,1.241,11.24,2.901,11.605,4.981c2.445,2.592,3.668,4.361,3.668,5.31v3.011
		c0.547,1.935,1.095,3.266,1.642,3.996c-0.621,0.913-1.606,3.339-2.956,7.28c-1.497,2.92-2.719,4.471-3.667,4.653
		c-1.241,1.788-2.792,2.682-4.653,2.682h-0.985c-0.219,0-0.328-0.109-0.328-0.329l-2.683,0.985
		c-4.817-0.547-9.124-1.551-12.919-3.011c-2.117,2.883-3.777,4.325-4.981,4.325h-1.04c-1.752-1.496-2.627-3.375-2.627-5.638h0.328
		v-1.314l-1.642-0.329v-0.383l0.657-0.985c0-0.438-1.113-1.205-3.339-2.299v-0.985h3.011v-0.711c0-0.474-0.109-0.912-0.329-1.314
		c0.219-0.364,0.329-0.802,0.329-1.314c-0.694,0-1.04-0.219-1.04-0.657c1.13-0.876,1.697-1.879,1.697-3.011
		c-0.438-0.693-0.657-1.24-0.657-1.642c1.095-1.095,2.299-1.879,3.613-2.354c0.802,0.219,2.81,3.212,6.021,8.978
		c3.394,3.722,6.04,5.821,7.938,6.295h1.642c4.599,0,7.919-1.533,9.963-4.599l-0.328-1.368l1.04-5.639
		c0-2.226-4.763-3.887-14.288-4.981l-3.011,0.329c-0.584-0.109-1.807-0.767-3.667-1.971c-1.168,0-2.592-0.675-4.27-2.025
		l-2.354,0.383v-0.383l0.657-0.985v-0.657c0-0.474-1.442-1.459-4.325-2.956l-0.329-1.369c0.438-0.219,0.785-0.329,1.04-0.329
		c0-1.095-0.238-1.642-0.711-1.642c0.219-0.438,0.329-0.767,0.329-0.985V76.02h-0.329v0.657c-0.402-0.219-0.73-0.328-0.985-0.328
		V76.02c0.657-0.839,0.985-1.624,0.985-2.354l-0.329-2.299c0.693,0,1.04-0.456,1.04-1.369l-0.383-1.642
		c1.24-2.591,2.573-4.689,3.996-6.295c0.948-1.605,4.489-2.937,10.62-3.996c0.729,0.438,1.404,0.657,2.025,0.657v-0.328l0.657,0.328
		l1.971-0.328c0,0.328,1.332,0.766,3.996,1.313c0,0.183,0.548,0.53,1.643,1.04h0.711C63.782,58.74,64.987,57.736,65.79,57.736z"/>
	<path fill="#E6E7E8" d="M97.649,36.277h0.328c1.24,0,2.135,1.004,2.683,3.011c-0.219,0.438-0.329,0.767-0.329,0.985
		c0,0.767,0.109,1.333,0.329,1.697c-0.219,1.533-0.329,2.756-0.329,3.667v2.682c0,0.219,0.109,0.329,0.329,0.329
		c-0.438,1.132-0.657,2.025-0.657,2.682c0.438,2.555,0.767,5.11,0.985,7.664h4.708l4.653-0.985l0.657,0.329l2.025-0.329
		c1.788,1.278,2.682,2.847,2.682,4.708c-0.767,2.008-2.774,3.011-6.021,3.011c0-0.474-0.219-0.711-0.657-0.711
		c-0.293,0-1.406,0.109-3.339,0.329l-1.369-0.329c-1.971,0-3.194,1.789-3.667,5.365c0.219,2.117,0.328,4.125,0.328,6.021v0.985
		l1.04,4.708c-0.183,0.475-0.42,1.697-0.711,3.668c0.219,1.825,0.894,4.836,2.025,9.032c-0.219,1.204-0.329,2.208-0.329,3.011
		c0.985,3.358,2.208,5.036,3.668,5.036l3.339,0.329c2.226-1.533,3.339-5.218,3.339-11.058c0-0.365-0.219-1.041-0.657-2.026
		c0-1.386,1.569-2.372,4.708-2.956c1.752,1.898,2.628,4.562,2.628,7.992c-0.219,0.365-0.329,0.93-0.329,1.697h0.329
		c-0.876,4.125-1.88,6.569-3.011,7.335c-1.898,4.453-4.015,6.678-6.35,6.678c-0.657,0.402-2.665,1.187-6.021,2.354h-1.314
		c-6.021-2.007-9.032-3.576-9.032-4.708c0-0.438-0.219-0.657-0.657-0.657v-1.642c-0.876-2.518-1.333-5.201-1.369-8.047
		c0-0.182,0.109-1.076,0.329-2.683c-0.438-4.27-0.657-7.5-0.657-9.689l0.329-5.365c-0.219-1.204-0.329-2.208-0.329-3.011
		c0.219-1.205,0.329-2.098,0.329-2.683c-1.059-5.51-1.825-8.393-2.299-8.649h-5.036c-1.241,0-2.244-1.003-3.011-3.011
		c0-2.335,2.444-4.014,7.335-5.036c0-0.438,0.346-0.657,1.04-0.657v-2.026c2.444-4.086,3.667-6.642,3.667-7.664v-2.025
		c0-0.219-0.109-0.329-0.328-0.329c0.438-0.802,0.657-1.697,0.657-2.682c0-0.146-0.109-1.587-0.329-4.325
		C95.55,36.953,96.773,36.277,97.649,36.277z"/>
	<path fill="#E6E7E8" d="M159.014,57.462c10.802,1.095,16.203,2.847,16.203,5.255c1.678,1.789,2.518,4.379,2.518,7.773l-0.711,9.197
		c0.219,2.226,0.329,4.689,0.329,7.39c0,0.512-0.11,1.807-0.329,3.887h0.329c-0.219,0.438-0.329,0.785-0.329,1.04
		c0.693,2.117,1.04,3.887,1.04,5.31v3.175c0,1.752,1.642,2.92,4.927,3.503l1.752-1.04h0.383c0.292,0,0.876,0.584,1.752,1.752
		c0,3.212-1.88,5.565-5.638,7.062c-0.985,0-2.281,0.347-3.887,1.04c-4.927-0.839-7.39-2.006-7.39-3.503
		c-1.423-1.131-2.135-2.664-2.135-4.598h-0.711c-2.956,3.065-8.357,5.767-16.204,8.102c-7.737,0-12.792-3.887-15.163-11.66
		c0-6.679,2.006-11.13,6.021-13.357c1.204-1.788,4.726-3.449,10.565-4.981l1.04-1.369l1.752,0.329c0.255,0,0.62-0.11,1.095-0.329
		l2.08,0.329h0.383c1.314-1.167,4.36-2.098,9.142-2.792c0-1.277,0.347-2.098,1.041-2.463c-0.657-7.992-2.062-11.988-4.215-11.988
		c0-0.364-0.694-0.966-2.08-1.807c-7.299,0-10.948,0.821-10.948,2.463c-0.329,0-0.676,0.365-1.04,1.095v1.04l0.328,2.135
		c-0.219,0.402-0.328,0.858-0.328,1.369c0.219,0.73,0.438,1.095,0.657,1.095c-0.438,0.694-0.895,2.811-1.369,6.35
		c-0.146,0-1.679,0.109-4.598,0.328c-3.54-1.423-5.31-3.539-5.31-6.35v-2.792c0-0.255-0.109-0.383-0.328-0.383
		c3.284-6.35,6.569-9.525,9.854-9.525C151.532,58.667,154.708,57.974,159.014,57.462z M153.649,85.435l-3.503-0.329
		c-4.051,1.861-6.879,3.376-8.485,4.544c-2.117,2.555-3.175,5.146-3.175,7.773h0.383l-0.383,0.712c0,4.015,2.481,6.715,7.445,8.102
		h1.04c6.35-1.934,9.525-4.16,9.525-6.678c1.642-1.496,2.463-5.383,2.463-11.66c0.474,0,0.711-0.474,0.711-1.423
		c-0.402-1.058-1.114-1.879-2.135-2.463h-0.329C156.77,84.012,155.583,84.486,153.649,85.435z M164.926,67.097v0.383
		c0.073,0.475,0.31,0.711,0.711,0.711h0.712v-1.095c0-0.474-0.238-0.711-0.712-0.711C165.163,66.458,164.926,66.696,164.926,67.097z
		 M165.638,74.487v0.383h0.712c0.474,0,0.711-0.237,0.711-0.712v-0.711h-0.329C166.367,73.447,166.002,73.794,165.638,74.487z"/>
	<path fill="#E6E7E8" d="M233.791,35.73c1.643,0.84,2.409,2.044,2.299,3.613l-0.657,5.036l0.875,5.201
		c-0.402,0.037-0.621,0.219-0.657,0.547l-0.164,2.245c0.401,0.547,0.583,0.985,0.547,1.313l-0.712,1.205
		c-0.292,4.27,0.055,10.018,1.04,17.243l-0.438,1.205c0.182,8.138,0.493,12.828,0.93,14.068h-0.273
		c0.146,2.883,0.438,4.598,0.876,5.146l-0.329,0.603l-0.055,0.931c-0.146,1.898,0.091,4.361,0.711,7.39l-0.438,1.861
		c1.095,1.351,2.317,2.062,3.668,2.135c0.474,0.037,0.912-0.036,1.313-0.219c2.081,0.512,3.066,1.533,2.956,3.065l-0.219,2.847
		c-0.146,0.694-1.771,1.333-4.872,1.916l-0.055,0.328l-1.807-1.095c-2.336,0.037-4.361,0.311-6.076,0.821
		c-2.555-0.182-3.941-1.752-4.16-4.708c-0.256-0.875-0.53-1.313-0.821-1.313l-0.766,1.204h0.328
		c-1.898,1.861-5.292,3.541-10.182,5.036l-2.245-0.164c-3.431-0.219-6.605-1.715-9.525-4.489c-2.993-1.678-5.474-7.134-7.445-16.368
		c-0.365-0.949-0.584-2.245-0.657-3.887c0-0.219,0.127-0.528,0.383-0.931c-0.037-2.116-0.183-3.175-0.438-3.175l0.383-0.657
		l0.11-1.533c0-0.219-0.11-0.346-0.329-0.383c0.036-0.365,0.675-1.897,1.916-4.599l-0.329-0.055
		c2.226-6.204,4.142-9.251,5.748-9.142c0.145-2.007,3.539-3.667,10.182-4.981L216,63.375c1.167-0.11,2.007-0.146,2.518-0.11
		c2.481,0.183,4.507,1.478,6.077,3.887l1.916,0.165v-0.329c0.109-1.095,0.072-2.043-0.11-2.847c0.292-1.167,0.456-2.006,0.493-2.518
		c-0.146-6.167-0.457-9.269-0.931-9.306l0.438-1.533c0.11-1.642-0.238-2.937-1.04-3.887l0.438-1.587
		c-0.84-1.313-1.734-2.006-2.682-2.08l-2.245-0.164c-0.584-0.036-1.223,0.128-1.916,0.493c-1.423-0.767-2.117-1.441-2.08-2.025
		c-0.219-0.365-0.292-0.894-0.219-1.588l0.055-0.657c0.036-0.766,1.989-1.478,5.857-2.135l2.189,0.493
		C225.78,37.062,228.791,36.424,233.791,35.73z M206.968,83.246c0.583,8.357,1.752,14.27,3.503,17.736
		c2.226,3.577,4.562,5.365,7.007,5.365h0.603c0.219,0,0.328-0.09,0.328-0.273c0.693,0.402,1.332,0.602,1.916,0.602h1.259
		c4.233-1.678,6.35-4.853,6.35-9.525c0.219-2.153,0.419-3.412,0.603-3.777c-0.256-4.489-0.566-7.554-0.931-9.196l0.328-0.657
		c-1.533-7.371-3.011-11.058-4.434-11.058c0-1.752-2.117-2.919-6.35-3.503c-5.73,1.642-8.595,3.869-8.595,6.678
		C207.971,76.512,207.442,79.049,206.968,83.246z"/>
	<path fill="#E6E7E8" d="M264.118,36.277h0.328c1.24,0,2.135,1.004,2.683,3.011c-0.219,0.438-0.329,0.767-0.329,0.985
		c0,0.767,0.109,1.333,0.329,1.697c-0.219,1.533-0.329,2.756-0.329,3.667v2.682c0,0.219,0.109,0.329,0.329,0.329
		c-0.438,1.132-0.657,2.025-0.657,2.682c0.438,2.555,0.767,5.11,0.985,7.664h4.708l4.653-0.985l0.657,0.329l2.025-0.329
		c1.788,1.278,2.682,2.847,2.682,4.708c-0.767,2.008-2.774,3.011-6.021,3.011c0-0.474-0.219-0.711-0.657-0.711
		c-0.293,0-1.406,0.109-3.339,0.329l-1.369-0.329c-1.971,0-3.194,1.789-3.667,5.365c0.219,2.117,0.328,4.125,0.328,6.021v0.985
		l1.04,4.708c-0.183,0.475-0.42,1.697-0.711,3.668c0.219,1.825,0.894,4.836,2.025,9.032c-0.219,1.204-0.329,2.208-0.329,3.011
		c0.985,3.358,2.208,5.036,3.668,5.036l3.339,0.329c2.226-1.533,3.339-5.218,3.339-11.058c0-0.365-0.219-1.041-0.657-2.026
		c0-1.386,1.569-2.372,4.708-2.956c1.752,1.898,2.628,4.562,2.628,7.992c-0.219,0.365-0.329,0.93-0.329,1.697h0.329
		c-0.876,4.125-1.88,6.569-3.011,7.335c-1.898,4.453-4.015,6.678-6.35,6.678c-0.657,0.402-2.665,1.187-6.021,2.354h-1.314
		c-6.021-2.007-9.032-3.576-9.032-4.708c0-0.438-0.219-0.657-0.657-0.657v-1.642c-0.876-2.518-1.333-5.201-1.369-8.047
		c0-0.182,0.109-1.076,0.329-2.683c-0.438-4.27-0.657-7.5-0.657-9.689l0.329-5.365c-0.219-1.204-0.329-2.208-0.329-3.011
		c0.219-1.205,0.329-2.098,0.329-2.683c-1.059-5.51-1.825-8.393-2.299-8.649h-5.036c-1.241,0-2.244-1.003-3.011-3.011
		c0-2.335,2.444-4.014,7.335-5.036c0-0.438,0.346-0.657,1.04-0.657v-2.026c2.444-4.086,3.667-6.642,3.667-7.664v-2.025
		c0-0.219-0.109-0.329-0.328-0.329c0.438-0.802,0.657-1.697,0.657-2.682c0-0.146-0.109-1.587-0.329-4.325
		C262.019,36.953,263.242,36.277,264.118,36.277z"/>
	<path fill="#E6E7E8" d="M309.499,36.989l2.901,0.219c0.401,0.037,0.583,0.383,0.548,1.04c0,0.219-0.11,0.311-0.329,0.274
		l0.219,1.313c-0.328,1.533-0.511,2.391-0.547,2.573l0.219,1.314l-0.438,1.587l0.547,1.314h-0.329
		c0.146,0.511,0.255,1.935,0.329,4.27c-0.767,1.497-1.168,2.427-1.205,2.792l1.369,3.339l-0.438,1.587l-0.328,4.215
		c-0.11,1.533-0.055,5,0.164,10.401c-0.219,0.292-0.383,0.93-0.493,1.916c0.329,1.423,0.474,2.409,0.438,2.956v0.329
		c-0.074,0.876-0.274,2.044-0.602,3.503c0.474,2.08,0.693,3.285,0.657,3.613c1.642,0.146,4.069-1.824,7.281-5.912
		c0.073-0.547,0.766-1.04,2.08-1.478c0.948-1.861,2.098-2.737,3.449-2.627c0.474-0.474,1.04-2.171,1.697-5.091
		c-1.861-0.985-3.339-1.533-4.434-1.642c0,0.365-0.457,0.766-1.369,1.204h-0.328c-0.84-0.364-1.205-1.369-1.095-3.011
		c0.073-0.767,0.456-1.387,1.149-1.861l0.602,0.383c2.153,0.146,3.248,0,3.285-0.438l0.602,0.383l15.656-0.383l1.259,0.109
		c1.496,0.11,2.189,0.913,2.08,2.409l-0.055,0.985c-0.109,1.278-0.821,2.08-2.135,2.409c-0.183,0-1.04-0.164-2.573-0.493
		c-2.847,0.365-5.675,1.861-8.485,4.489c-0.146,1.204-1.88,2.701-5.201,4.489c-0.985,1.423-1.497,2.463-1.533,3.12
		c2.554,3.687,5.656,8.467,9.306,14.342c2.006,1.898,2.956,3.486,2.846,4.763c-0.803,0.037-1.478,0.42-2.025,1.149l0.274,0.657
		c0.329,0.037,1.113-0.438,2.354-1.423c1.715,2.664,4.178,4.379,7.39,5.146l1.313,0.055c0.219,0.037,0.329-0.055,0.329-0.273
		c1.167,0.073,1.807,1.642,1.916,4.708c-0.074,1.059-2.373,1.423-6.897,1.095c-5.073-0.62-7.957-1.167-8.649-1.642
		c-0.255,0.621-0.913,0.895-1.971,0.821l-1.642-0.165c0.146-1.568,1.222-2.773,3.23-3.613l0.055-0.985l-0.602-0.383l0.438-1.587
		v-0.329c-0.219,0-0.529-0.127-0.93-0.383c-0.402,0.183-0.84,0.255-1.314,0.219h-0.329l0.109-0.985
		c0.438-0.474,0.693-1.113,0.767-1.916l0.657,0.055c-0.073,1.095,0.091,1.661,0.493,1.697h0.329l1.642-0.165l0.055-0.657
		l-0.657-0.055l0.055-0.657c0.036-0.255,0.729-0.748,2.08-1.478c0-0.182-0.711-0.876-2.135-2.081
		c-0.402-0.036-0.639,0.365-0.711,1.205l-2.245-0.493l-0.383,0.657c0.182,0.438,0.274,0.767,0.274,0.985
		c-0.438,0.037-0.676,0.238-0.712,0.602l0.219,1.643l-0.329-0.055c-1.533-0.11-4.562-4.452-9.087-13.029
		c-0.183,0-0.274-0.109-0.274-0.328v-0.329l0.383-0.657c-0.73-0.693-1.46-1.058-2.189-1.095l-0.329-0.055
		c-3.212,2.628-4.872,4.562-4.981,5.803c0,0.219,0.109,0.329,0.329,0.329l-0.383,0.602c-0.292,3.613-0.055,6.241,0.711,7.883
		c-0.511,0.657-0.785,1.278-0.821,1.861l-0.109,1.642c-0.074,0.913,1.715,1.587,5.364,2.025v-0.329
		c1.021,0.074,1.588,1.095,1.697,3.065c-0.074,1.168-0.985,1.734-2.737,1.697l-1.259-0.383c-8.504,0.402-13.376,0.566-14.616,0.493
		l-1.916-0.493c-0.037,0.329-0.511,0.73-1.423,1.205c-1.497-1.168-2.281-2.098-2.354-2.792c0.146-1.897,0.784-3.248,1.916-4.051
		l1.971,0.109c1.934,0.146,2.974-0.748,3.12-2.682c0.839-2.518,1.277-4.106,1.314-4.763l-0.438-2.299
		c0.292-1.13,0.474-2.08,0.547-2.846c-0.365-0.73-0.547-1.295-0.547-1.697c1.13-1.861,1.971-2.773,2.518-2.737l0.055-0.603
		c-1.095-2.773-1.587-4.762-1.478-5.967l-0.712-3.941l0.438-1.259c-0.037-1.533-0.201-2.317-0.493-2.354l0.383-0.602l0.219-2.901
		l-0.821-1.697c0.511-1.24,0.966-3.047,1.369-5.419c-0.512-1.533-0.749-2.627-0.712-3.285l0.438-1.587
		c-0.365-1.751-0.621-2.627-0.766-2.627c0.547-1.314,0.839-2.171,0.875-2.573c-0.475-6.934-1.077-10.437-1.806-10.511l-1.205-1.04
		l-0.657-0.055c-2.154,0.256-3.339,0.365-3.558,0.329c-1.241-0.876-1.788-2.208-1.643-3.996c2.263-1.788,5.985-2.481,11.167-2.08
		c0.364,0.255,0.784,0.402,1.259,0.438C308.239,37.117,308.914,36.953,309.499,36.989z M309.881,65.235l-0.055,0.657l0.985,0.109
		l0.055-0.657L309.881,65.235z M314.37,87.022l-0.055,0.329c0.036,0.438,0.237,0.676,0.602,0.711h0.329l0.109-0.93L314.37,87.022z
		 M319.954,86.147l-0.11,1.313c0.657,1.351,1.15,2.044,1.478,2.08l1.04-1.259c-1.022-0.729-1.497-1.404-1.423-2.025L319.954,86.147z
		 M321.651,85.326l-0.055,0.657c0.036,0.438,0.528,0.913,1.478,1.423c0.474-0.766,1.167-1.259,2.08-1.478
		c-0.146-0.876-0.547-1.35-1.204-1.423C322.855,85.089,322.089,85.362,321.651,85.326z M324.936,109.904l0.657,0.055
		c0.401,0.11,0.583,0.348,0.547,0.712v0.657c-1.095-0.109-1.661,0.055-1.697,0.493c-0.84-0.364-1.241-0.711-1.205-1.04
		C324.296,110.854,324.862,110.562,324.936,109.904z M323.403,108.481l0.985,0.109c-0.037,0.438-0.274,0.639-0.712,0.602
		l-0.329-0.055L323.403,108.481z M330.574,95.453c-0.037,0.402-0.164,0.602-0.383,0.602c0.182,1.533,0.456,2.318,0.821,2.354
		l1.642-0.219l0.109-1.314l-1.313-0.055c0.073-0.876-0.109-1.332-0.547-1.369H330.574z M331.066,110.069l-0.055,0.657l0.985,0.055
		l0.055-0.657L331.066,110.069z M339.989,44.215c0.876,0.183,1.314,0.402,1.314,0.657v0.438c-0.584,1.497-0.876,2.445-0.876,2.847
		c-1.898-1.021-2.847-1.971-2.847-2.847v-0.219C337.581,44.653,338.383,44.361,339.989,44.215z"/>
	<path fill="#E6E7E8" d="M370.645,37.919c1.313,0,2.262,0.53,2.846,1.588v4.105c0.657,0.803,0.985,1.552,0.985,2.244v0.657
		l-0.657,0.931v1.313c0,0.913,0.219,1.752,0.657,2.518c-0.438,0.876-0.657,1.515-0.657,1.916c0,0.475,0.219,2.391,0.657,5.748
		c-0.438,0.84-0.657,1.587-0.657,2.244c0,0.219,0.109,0.329,0.329,0.329l-0.329,1.587v6.35c0,1.716,0.329,3.102,0.985,4.16
		c-0.657,1.059-0.985,1.898-0.985,2.518c0.657,3.175,0.985,4.981,0.985,5.419l-0.657,1.314l0.328,3.175
		c0,0.512-0.109,1.351-0.328,2.518c0.219,1.826,0.328,3.321,0.328,4.489c0,0.73-0.109,2.537-0.328,5.419
		c0.583,2.044,1.003,3.103,1.259,3.175c-0.402,0.766-0.602,1.624-0.602,2.573c0,1.497,0.839,2.244,2.518,2.244h3.832
		c0.547,0,1.076,1.059,1.587,3.175c-0.475,1.898-1.004,2.847-1.587,2.847h-4.489l-1.861,0.328c-0.803-0.438-1.661-0.657-2.573-0.657
		h-1.259c-0.584,0-1.223,0.219-1.916,0.657c-1.095-0.438-1.843-0.657-2.244-0.657c-0.256,0-1.314,0.109-3.175,0.329
		c-2.518-0.219-4.324-0.329-5.419-0.329v-1.259c0-0.474-0.11-0.894-0.329-1.259c0-1.205,2.025-2.171,6.076-2.901
		c0.62,0,1.04-1.478,1.259-4.434l-0.657-1.259c0.438-0.73,0.767-2.646,0.985-5.748l-0.328-3.175l0.328-2.901l-0.657-1.587
		c0.219-0.401,0.329-0.712,0.329-0.931c-0.438-1.35-0.657-2.427-0.657-3.23c0.219-0.62,0.438-0.931,0.657-0.931l-0.329-2.901
		c0-0.438,0.109-1.605,0.329-3.503l-0.329-0.602c0.219-0.364,0.329-0.802,0.329-1.313l-0.329-1.861l0.657-4.161
		c-0.402-1.934-0.73-2.901-0.985-2.901c0.438-0.767,0.657-1.715,0.657-2.847c-0.438-1.35-0.657-2.098-0.657-2.245
		c0.219-0.62,0.438-0.931,0.657-0.931l-0.329-3.175v-1.916l-0.931-1.587l0.274-0.657l-0.274-1.588l0.274-3.832
		c-0.11-0.583-0.639-1.113-1.588-1.587h-0.602l-3.229,0.328c0-0.255-0.84-0.693-2.518-1.313l-0.329-1.588
		C355.974,40.273,360.864,38.795,370.645,37.919z"/>
	<path fill="#E6E7E8" d="M417.832,57.462c10.802,1.095,16.204,2.847,16.204,5.255c1.678,1.789,2.518,4.379,2.518,7.773l-0.711,9.197
		c0.219,2.226,0.328,4.689,0.328,7.39c0,0.512-0.109,1.807-0.328,3.887h0.328c-0.219,0.438-0.328,0.785-0.328,1.04
		c0.692,2.117,1.04,3.887,1.04,5.31v3.175c0,1.752,1.642,2.92,4.927,3.503l1.751-1.04h0.384c0.291,0,0.876,0.584,1.751,1.752
		c0,3.212-1.88,5.565-5.638,7.062c-0.985,0-2.281,0.347-3.887,1.04c-4.927-0.839-7.391-2.006-7.391-3.503
		c-1.423-1.131-2.135-2.664-2.135-4.598h-0.711c-2.956,3.065-8.357,5.767-16.204,8.102c-7.737,0-12.792-3.887-15.163-11.66
		c0-6.679,2.006-11.13,6.021-13.357c1.204-1.788,4.726-3.449,10.565-4.981l1.04-1.369l1.752,0.329c0.255,0,0.62-0.11,1.095-0.329
		l2.08,0.329h0.383c1.314-1.167,4.36-2.098,9.142-2.792c0-1.277,0.347-2.098,1.04-2.463c-0.656-7.992-2.062-11.988-4.215-11.988
		c0-0.364-0.694-0.966-2.08-1.807c-7.299,0-10.948,0.821-10.948,2.463c-0.329,0-0.676,0.365-1.04,1.095v1.04l0.328,2.135
		c-0.219,0.402-0.328,0.858-0.328,1.369c0.219,0.73,0.438,1.095,0.657,1.095c-0.438,0.694-0.895,2.811-1.369,6.35
		c-0.146,0-1.679,0.109-4.598,0.328c-3.54-1.423-5.31-3.539-5.31-6.35v-2.792c0-0.255-0.109-0.383-0.328-0.383
		c3.284-6.35,6.569-9.525,9.854-9.525C410.35,58.667,413.525,57.974,417.832,57.462z M412.467,85.435l-3.503-0.329
		c-4.051,1.861-6.879,3.376-8.485,4.544c-2.117,2.555-3.175,5.146-3.175,7.773h0.383l-0.383,0.712c0,4.015,2.481,6.715,7.445,8.102
		h1.04c6.35-1.934,9.525-4.16,9.525-6.678c1.642-1.496,2.463-5.383,2.463-11.66c0.474,0,0.711-0.474,0.711-1.423
		c-0.402-1.058-1.114-1.879-2.135-2.463h-0.329C415.587,84.012,414.401,84.486,412.467,85.435z M423.744,67.097v0.383
		c0.073,0.475,0.31,0.711,0.711,0.711h0.712v-1.095c0-0.474-0.238-0.711-0.712-0.711C423.98,66.458,423.744,66.696,423.744,67.097z
		 M424.455,74.487v0.383h0.712c0.474,0,0.711-0.237,0.711-0.712v-0.711h-0.329C425.185,73.447,424.819,73.794,424.455,74.487z"/>
	<path fill="#E6E7E8" d="M490.802,60.035c2.116,0.183,4.853,1.807,8.211,4.872c0.109,0.913,0.292,1.387,0.548,1.423l-0.384,0.657
		l-0.055,0.711l1.752,3.23l-0.493,2.025l0.329,0.055l-0.384,0.657c0.365,0.767,0.529,1.46,0.493,2.081
		c-0.548,11.021-0.348,16.568,0.602,16.641l-0.547,2.354c-0.037,3.139-0.109,5.329-0.219,6.569c0.438,0.109,0.638,0.347,0.602,0.712
		l-0.547,2.025c0.767,0.766,2.116,1.241,4.051,1.423l2.737,0.219c0.985,0.109,1.514,1.88,1.587,5.31
		c-0.109,1.387-2.901,1.843-8.375,1.368c-0.73-0.547-1.405-0.839-2.025-0.875c-1.569,0.766-2.865,1.113-3.887,1.04l0.055-0.329
		l-0.712,0.274l-0.712-0.055c-0.511-0.51-0.949-0.784-1.313-0.821l-3.12,0.055l-1.313-0.438c-1.752,0.292-2.683,0.438-2.792,0.438
		c-0.402-1.825-0.767-3.011-1.095-3.558c0.109-1.24,0.638-2.007,1.587-2.299l1.04,0.109l2.025,0.547
		c1.643-0.438,2.5-1.058,2.573-1.861c0.255-2.956,0.237-5.255-0.055-6.897c0.328-1.24,0.528-2.263,0.603-3.065l0.219-2.737
		c0.072-0.62-0.092-1.332-0.493-2.135l0.548-2.354c-0.256-2.08-0.365-3.467-0.328-4.16l0.602-3.065
		c-0.512-1.678-0.767-2.628-0.767-2.847c0.329-0.876,0.511-1.66,0.548-2.354c0.182-1.971-1.989-4.689-6.515-8.156l-2.408-0.219
		c-5.292-0.474-9.435,3.522-12.427,11.988l-0.492,1.369c0.072,1.679,0.401,3.212,0.985,4.598c-0.365,1.643-0.84,3.084-1.424,4.325
		c0.657,1.022,1.076,4.051,1.26,9.087c-0.256,0.402-0.402,0.858-0.438,1.369c0.329,0.402,0.748,2.154,1.26,5.255
		c0.911,0.693,2.81,1.333,5.692,1.916c0.767,1.861,1.131,2.92,1.095,3.175c-0.073,0.949-2.208,1.679-6.404,2.189
		c-1.935-0.401-3.522-0.657-4.763-0.766c-0.985-0.073-2.025,0.073-3.12,0.438L462.172,111c-0.548-0.036-3.321,0.073-8.32,0.328
		c-0.621-0.985-1.077-2.409-1.369-4.27c0.511-0.693,0.803-1.35,0.876-1.971l0.109-1.04c0.657,0.073,1.496-0.438,2.519-1.533
		l0.219,1.423l2.08,0.165l0.931,0.821l0.712,0.055c0.328,0,0.839-0.528,1.532-1.587v-0.383c-0.803-1.021-1.168-1.97-1.095-2.846
		l0.055-0.712c0.109-0.438,0.347-0.638,0.712-0.602c0-2.262-0.328-3.777-0.985-4.543l0.273-2.792
		c0.109-1.459,0.347-2.919,0.712-4.379c0.036-0.183-0.128-2.281-0.493-6.295c0.036-0.364,0.274-1.715,0.712-4.051
		c-0.475-1.496-0.785-4.525-0.931-9.087l-1.259-1.149h-0.328c-0.84-0.073-1.916,0.292-3.23,1.095
		c-1.716-0.146-3.084-1.533-4.105-4.16c0.255-2.737,3.923-3.795,11.003-3.175c0.364,0.037,1.295-0.11,2.792-0.438l2.025,0.493
		c0.036-0.329,0.401-0.638,1.095-0.931l1.04,0.109c0.364,0.037,0.767,0.767,1.205,2.189c-0.293,0.402-0.438,0.73-0.438,0.985
		c0.328,1.497,0.474,2.318,0.438,2.463c-0.256,0.402-0.384,0.73-0.384,0.985c0.255,0.95,0.548,1.442,0.876,1.478l0.712,0.055
		l0.164-2.08c1.313,0.109,2.683-1.149,4.105-3.777c1.459-0.146,2.901-0.712,4.324-1.697l0.657,0.438
		C484.688,59.962,487.918,59.78,490.802,60.035z M466.551,84.504v0.329c0,0.475,0.2,0.711,0.603,0.711l0.328,0.055
		c0.329,0.037,0.712-0.273,1.149-0.93V84.34l-0.328-0.055L466.551,84.504z M467.099,82.479l-0.109,0.985l1.04,0.109l0.109-1.04
		L467.099,82.479z M492.279,90.526l-0.055,0.712l0.985,0.109l0.055-0.711L492.279,90.526z"/>
	<path fill="#E6E7E8" d="M524.248,101.419c1.715,0.402,2.883,0.913,3.504,1.533c1.021,1.095,1.532,2.409,1.532,3.941
		c0,2.737-1.168,4.635-3.503,5.693h-1.095c-2.628-0.62-3.941-1.496-3.941-2.628c-0.876-0.109-1.313-0.692-1.313-1.751l0.219-1.533
		c-0.146-0.292-0.219-0.511-0.219-0.657c0.729-2.919,2.335-4.379,4.816-4.379V101.419z"/>
	<path fill="#E6E7E8" d="M566.947,56.805c8.064,0,12.098,0.95,12.098,2.847c1.752,0,4.233,1.898,7.444,5.693
		c2.116,4.197,4.015,9.27,5.693,15.218v1.095l-0.383,2.463c0.474,0.876,0.711,1.826,0.711,2.847c0,9.197-3.303,16.642-9.908,22.334
		c0,0.657-2.5,1.843-7.499,3.558v-0.328c-0.913,0.475-2.209,0.711-3.887,0.711h-5.31c-0.548,0-1.022,0.109-1.424,0.329
		c-2.189-1.131-4.672-2.08-7.444-2.847c-5.438-5.729-8.997-13.302-10.675-22.718l0.383-2.463c-0.475-1.533-0.711-2.591-0.711-3.175
		c0.911-4.853,1.623-7.463,2.135-7.828l-0.384-0.711v-0.712c2.7-5.51,4.251-8.338,4.653-8.485l3.175-4.653
		c0.949,0,3.668-0.949,8.156-2.847C565.012,57.134,566.071,57.024,566.947,56.805z M556.655,80.235l0.712,1.423
		c-0.475,1.752-0.712,2.811-0.712,3.175l0.384,1.751l-0.384,2.135c0.475,1.204,0.84,1.806,1.095,1.806l-0.383,1.752v0.383
		c1.752,7.773,3.412,11.66,4.981,11.66c2.007,2.627,4.489,3.941,7.445,3.941c6.167-0.729,9.251-2.627,9.251-5.693
		c0-1.167,0.474-1.752,1.423-1.752v-2.518c0-1.277,0.347-3.047,1.04-5.31c0-0.985-0.109-2.28-0.328-3.887
		c0.474-0.766,0.712-1.478,0.712-2.135c0-1.131-0.365-1.952-1.095-2.463l0.711-4.27c-0.876-1.24-1.696-4.325-2.463-9.251
		c-2.154-5.438-5-8.156-8.54-8.156h-1.423c-6.131,0-9.196,2.007-9.196,6.021c-1.205,0.875-2.154,3.96-2.847,9.251
		C556.783,79.341,556.655,80.053,556.655,80.235z"/>
	<path fill="#E6E7E8" d="M633.895,56.641c6.021,1.241,9.033,5.31,9.033,12.208c-1.132,3.687-3.103,5.529-5.912,5.529
		c-2.628,0-5.183-1.149-7.664-3.449c0.255-2.518,0.729-4.835,1.423-6.952c-0.219,0-0.328-0.127-0.328-0.383
		c-2.336,0.547-5.237,4.489-8.704,11.824c-0.475,2.92-1.059,5.821-1.752,8.704v1.041c0,0.255,0.347,1.88,1.04,4.872l-0.711,1.423
		c0.219,2.044,0.328,3.321,0.328,3.832c-0.219,2.883-0.328,4.508-0.328,4.872c0.911,2.846,1.732,4.343,2.463,4.489h4.489
		c2.335,0,3.503,1.515,3.503,4.543c0,2.08-4.069,3.12-12.207,3.12c0,0.256-0.348,0.493-1.04,0.712l-1.368-0.329l-1.752,0.329
		c-0.329,0-1.606-0.237-3.832-0.712l-2.408,0.383c-4.892,0-7.336-1.277-7.336-3.832v-1.423c0.767-1.021,3.559-1.824,8.376-2.408
		c0.839-1.678,1.404-3.777,1.696-6.295c0-0.219-0.109-0.565-0.328-1.04c0.219-2.372,0.328-4.215,0.328-5.529
		c-0.219-2.883-0.328-4.397-0.328-4.543l0.328-0.712l-0.656-7.664l0.328-1.752c-0.183-2.299-0.42-3.449-0.712-3.449l0.384-0.711
		c0-5.547-0.931-8.321-2.792-8.321h-2.792l-2.408,0.657c-1.643,0-2.464-1.277-2.464-3.832c0-1.35,3.357-2.39,10.072-3.121
		c0-0.219,0.237-0.328,0.712-0.328c0.511,0,0.985,0.109,1.423,0.328c1.24-0.219,2.28-0.328,3.121-0.328h1.751
		c1.387,0.146,2.08,0.493,2.08,1.04v1.751c0,0.95-0.128,1.88-0.383,2.792c0.255,0.876,0.383,1.789,0.383,2.737v1.423h1.04
		c0.985-2.956,3.193-5.857,6.624-8.704c1.788-1.643,3.412-2.463,4.872-2.463h2.08C633.785,56.97,633.895,56.86,633.895,56.641z
		 M612.327,85.873v0.711h1.04v-1.423h-0.329C612.563,85.235,612.327,85.472,612.327,85.873z"/>
	<path fill="#E6E7E8" d="M682.122,53.959c4.524,0,6.788,2.062,6.788,6.186c-0.584,2.737-2.555,4.105-5.912,4.105
		c-0.402,0-1.278-0.985-2.628-2.956h-1.478c-0.402,0-0.603,0.311-0.603,0.931c2.153,2.592,3.229,5.529,3.229,8.813
		c-0.401,0-0.602,0.292-0.602,0.876c0,0.219,0.109,0.511,0.328,0.876c-0.512,3.649-1.897,6.788-4.16,9.416
		c-4.27,2.701-7.992,4.471-11.167,5.31c-0.184,0-0.274-0.09-0.274-0.273c-2.299,0.183-3.978,0.273-5.036,0.273h-1.478
		c-3.504,0.803-5.255,2.373-5.255,4.708c0,1.569,1.951,2.354,5.856,2.354h2.081c0.656,0,1.732-0.292,3.229-0.876
		c0.291,0,1.167,0.201,2.627,0.602c0.146,0,0.748-0.109,1.807-0.329l2.025,0.329c1.788-0.401,3.065-0.602,3.832-0.602h1.479
		c0.182,0,0.273-0.091,0.273-0.274c5.693,1.716,8.54,3.175,8.54,4.379c0.656,0,1.058,2.263,1.204,6.788v2.956
		c0,0.183,0.091,0.273,0.273,0.273c-1.241,3.941-3.485,6.879-6.733,8.813c-4.453,2.372-9.069,3.558-13.85,3.558
		c0,0.401-0.201,0.602-0.602,0.602h-1.149c-0.841,0-1.625,0.091-2.354,0.274c-9.817-1.205-14.726-3.65-14.726-7.335
		c-0.219,0-0.42-0.693-0.602-2.08c0-3.175,2.262-6.222,6.788-9.142c-3.723-1.423-5.584-4.27-5.584-8.54v-0.875
		c1.752-4.708,3.613-7.062,5.584-7.062c0-0.401,0.383-0.602,1.149-0.602v-0.876c-1.533,0-3.485-1.952-5.857-5.857
		c-0.584-2.081-0.876-3.156-0.876-3.23c0-1.971-0.109-4.342-0.328-7.116c1.167-3.613,2.646-5.967,4.434-7.062
		c0-1.35,3.229-2.919,9.689-4.708l0.602,0.329c0.803,0,1.588-0.11,2.354-0.329c0.767,0.219,1.551,0.329,2.354,0.329
		c0.146,0,0.729-0.11,1.752-0.329c3.028,1.569,5.091,2.354,6.186,2.354C678.144,55.62,680.406,53.959,682.122,53.959z
		 M668.601,102.241c-1.313-0.219-2.591-0.329-3.831-0.329l-1.807,0.329c-0.293-0.219-0.876-0.329-1.752-0.329
		c-1.388,0-3.048,1.278-4.981,3.832l0.273,0.602v0.602c-1.168,0-1.952,0.876-2.354,2.628c0.948,3.722,3.011,5.583,6.186,5.583
		l1.752,0.329c0.802-0.219,1.496-0.329,2.08-0.329l1.149,0.602l1.807-0.273l2.901,0.273c6.679-1.898,10.018-3.85,10.018-5.857
		l-0.273-1.478l0.273-1.478c-0.621-3.138-2.189-4.708-4.708-4.708c-0.475,0-0.967-0.2-1.478-0.602h-1.149
		C671.429,101.639,670.061,101.839,668.601,102.241z M655.901,73.118c0.583,1.095,0.875,2.263,0.875,3.503h-0.273
		c1.679,4.891,4.435,7.335,8.267,7.335c3.94,0,6.477-1.66,7.608-4.981c0.401-1.277,0.712-3.54,0.931-6.788
		c0-4.014-1.771-7.445-5.31-10.291c-1.68-0.182-3.048-0.274-4.105-0.274c-4.197,0-6.661,2.646-7.391,7.938
		C656.503,70.072,656.302,71.257,655.901,73.118z"/>
</g>
</svg>
