<?xml version="1.0" encoding="utf-8"?>
<!-- Generator: Adobe Illustrator 15.0.0, SVG Export Plug-In  -->
<!DOCTYPE svg PUBLIC "-//W3C//DTD SVG 1.1//EN" "http://www.w3.org/Graphics/SVG/1.1/DTD/svg11.dtd" [
	<!ENTITY ns_flows "http://ns.adobe.com/Flows/1.0/">
]>
<svg version="1.1"
	 xmlns="http://www.w3.org/2000/svg" xmlns:xlink="http://www.w3.org/1999/xlink" xmlns:a="http://ns.adobe.com/AdobeSVGViewerExtensions/3.0/"
	 x="0px" y="0px" width="118px" height="750px" viewBox="0 4 118 750" overflow="visible" enable-background="new 0 4 118 750"
	 xml:space="preserve">
<defs>
</defs>
<path fill="#F26522" d="M101.86,734.196c-0.306,0.062-0.553,0.192-0.753,0.387c-0.198,0.2-0.375,0.313-0.523,0.344l-2.326-8.078
	l-0.685,0.137l-0.227,0.045c-0.154,0.03-0.366,0.154-0.64,0.364c-0.276,0.215-0.489,0.335-0.639,0.365
	c-0.213-0.272-0.502-0.73-0.865-1.369c-0.366-0.638-0.732-1.077-1.096-1.323c-0.029-0.15-0.399-0.396-1.096-0.73
	c-0.701-0.334-1.064-0.577-1.095-0.73c-0.336-0.088-0.579-0.318-0.729-0.685c-0.155-0.362-0.258-0.698-0.319-1.004
	c-0.153,0.03-0.487-0.059-1.004-0.274c-0.518-0.211-0.791-0.395-0.822-0.548c-0.153,0.031-0.312-0.175-0.479-0.617
	c-0.169-0.44-0.434-0.78-0.798-1.026c-0.03-0.15-0.153-0.562-0.366-1.232c-0.214-0.668-0.396-0.989-0.546-0.959
	c-0.213-0.271-0.563-0.836-1.049-1.688c-0.244-0.425-0.473-0.772-0.685-1.05c-0.366-0.242-0.853-0.5-1.461-0.776
	c-0.609-0.271-1.094-0.529-1.458-0.776c-0.368-0.241-1.061-0.737-2.077-1.483c-1.021-0.745-1.697-1.163-2.031-1.255
	c-0.183-0.119-0.343-0.325-0.479-0.617c-0.139-0.288-0.284-0.417-0.433-0.387c-0.03-0.15-0.406-0.432-1.119-0.845
	c-0.716-0.409-1.166-0.676-1.346-0.8c-0.031-0.149-0.146-0.325-0.342-0.524c-0.2-0.198-0.312-0.372-0.342-0.526
	c-0.03-0.149-0.207-0.432-0.525-0.844c-0.318-0.411-0.557-0.6-0.708-0.57c-0.213-0.272-0.388-0.553-0.524-0.844
	c-0.139-0.288-0.282-0.419-0.433-0.389c-0.306,0.061-0.411,0.319-0.319,0.777c-0.306,0.061-0.557,0.388-0.752,0.98
	c-0.201,0.596-0.36,0.984-0.481,1.164c-0.609,0.121-0.882,0.335-0.82,0.638c-0.125,0.184-0.467,0.449-1.028,0.798
	c-0.565,0.35-0.982,0.633-1.255,0.844l-0.229,0.045c-0.03-0.149-0.197-0.394-0.502-0.729c-0.303-0.333-0.471-0.578-0.501-0.73
	l-0.319-0.412l-0.275-0.182c0.151-0.031-0.045-0.229-0.591-0.594l-0.548-0.365c-0.184-0.119-0.417-0.311-0.708-0.571
	c-0.289-0.257-0.586-0.357-0.89-0.296c-0.122-0.607-0.439-1.017-0.958-1.232l-0.593,0.592c0.031,0.153-0.003,0.397-0.092,0.731
	c-0.092,0.337-0.121,0.581-0.091,0.729l0.273,0.183c0.031,0.153,0.136,0.292,0.321,0.411l0.091,0.457
	c0.03,0.153,0.135,0.292,0.318,0.41c-0.153,0.031-0.42,0.084-0.798,0.16c-0.382,0.077-0.633,0.208-0.753,0.388
	c-0.457,0.092-0.867,0.41-1.234,0.958c-0.275,0.213-0.563,0.35-0.866,0.41c-0.307,0.062-0.562,0.154-0.775,0.273
	c-0.213,0.124-0.397,0.198-0.549,0.229l-1.186,1.186c-0.395,0.398-0.717,0.776-0.96,1.14c-0.122,0.185-0.312,0.62-0.57,1.302
	c-0.26,0.686-0.435,1.195-0.526,1.529c-0.061-0.304-0.38-0.518-0.958-0.64c-0.581-0.122-0.946-0.166-1.095-0.137l-0.273-0.183
	l-0.64,0.365c0.607-0.121,0.989,0.199,1.141,0.959l-0.731,1.095c0.062,0.306,0.062,0.898,0,1.779
	c-0.06,0.884-0.154,1.417-0.273,1.597c0.061,0.307-0.442,0.763-1.507,1.369c-1.064,0.609-1.661,1.006-1.781,1.186
	c-0.092,0.337-0.201,0.596-0.319,0.776c-0.123,0.184-0.261,0.289-0.411,0.318c-0.152,0.03-0.212,0.124-0.182,0.274
	c-0.124,0.185-0.403,0.358-0.846,0.525c-0.44,0.169-0.739,0.266-0.89,0.296c-0.183-0.119-0.351-0.167-0.502-0.138
	c-0.455,0.091-0.699,0.062-0.729-0.091c-0.154,0.031-0.321-0.014-0.502-0.138c-0.153,0.031-0.321-0.013-0.501-0.137l-0.092-0.455
	l-0.045-0.229l0.823-0.637c-0.061-0.304-0.208-0.631-0.433-0.983c-0.23-0.347-0.373-0.674-0.435-0.981l-1.14,0.228l0.364,1.826
	l-0.638,0.365c-0.308,0.061-0.58,0.274-0.822,0.639c-0.246,0.368-0.35,0.625-0.321,0.775c-0.152,0.03-0.288,0.335-0.409,0.912
	c-0.122,0.582-0.167,0.946-0.138,1.096c-0.154,0.03-0.198,0.199-0.138,0.502l0.091,0.456c0.062,0.307,0.145,0.724,0.251,1.254
	c0.107,0.535,0.234,0.784,0.389,0.753l0.045,0.229l0.045,0.229c-0.093,0.337-0.411,0.913-0.958,1.734
	c-0.548,0.82-0.945,1.416-1.187,1.779c-0.154,0.031-0.244-0.029-0.275-0.183c-0.182-0.118-0.287-0.257-0.318-0.411
	c-0.154,0.031-0.238-0.189-0.251-0.662c-0.017-0.471-0.038-0.782-0.068-0.936c-0.153,0.032-0.322-0.013-0.502-0.137l-0.547-0.365
	l-0.547,0.821c-0.124,0.184-0.192,0.435-0.206,0.753c-0.018,0.323-0.101,0.494-0.252,0.525c0.03,0.153,0.03,0.349,0,0.593
	c-0.032,0.243-0.015,0.518,0.045,0.821c-0.091,0.337-0.105,0.655-0.045,0.957c-0.124,0.185-0.176,0.314-0.16,0.389
	c0.015,0.079-0.04,0.208-0.161,0.387l-0.183,0.274c-0.153,0.031-0.41-0.073-0.775-0.32c-0.183-0.119-0.442-0.226-0.774-0.319
	c-0.155,0.031-0.312,0.222-0.481,0.571c-0.166,0.352-0.329,0.54-0.478,0.569c0.03,0.154-0.033,0.641-0.183,1.461
	c-0.155,0.825-0.353,1.416-0.595,1.779l-0.137,1.688c-0.062,0.487-0.351,1.417-0.868,2.783c-0.519,1.372-0.898,2.237-1.141,2.601
	c-0.306,0.061-0.627,0.244-0.959,0.548c-0.334,0.304-0.563,0.55-0.684,0.729c-0.154,0.031-0.351,0.229-0.594,0.593
	c-0.123,0.183-0.168,0.353-0.138,0.502c-0.153,0.031-0.242-0.03-0.273-0.184l-0.272-0.182l-0.32-0.411l-0.091-0.457
	c-0.03-0.15,0.014-0.319,0.138-0.501l0.41-0.32l0.137-0.503c-0.03-0.148-0.139-0.287-0.32-0.41
	c-0.153,0.031-0.243-0.029-0.273-0.182c-0.183-0.12-0.288-0.258-0.319-0.413c-0.337-0.087-0.868-0.575-1.597-1.459
	c-0.732-0.881-1.203-1.459-1.416-1.735l-0.911,0.184l-0.229,0.045c-0.275,0.214-0.548,0.428-0.82,0.638
	c-0.277,0.215-0.489,0.335-0.641,0.366c0.031,0.153-0.077,0.412-0.32,0.775c-0.122,0.184-0.166,0.352-0.136,0.502
	c-0.123,0.185-0.167,0.353-0.137,0.501c0.031,0.153-0.017,0.323-0.138,0.502l-0.913,0.182l-0.912,0.182l-0.548-0.365
	c-0.151,0.031-0.235,0.01-0.251-0.069c-0.016-0.074-0.101-0.098-0.251-0.068c-0.152,0.03-0.242-0.029-0.273-0.183
	c-0.154,0.031-0.322-0.013-0.502-0.137c-0.185-0.119-0.353-0.167-0.502-0.137c-0.307,0.061-0.844-0.068-1.619-0.388
	c-0.777-0.32-1.194-0.629-1.256-0.936c-0.306,0.06-0.669-0.183-1.095-0.73c-0.428-0.545-0.746-0.957-0.958-1.232
	c-0.061-0.304-0.215-0.669-0.456-1.096c-0.428-0.545-0.669-0.972-0.729-1.278l-0.047-0.229l-0.091-0.456
	c0.149-0.03,0.327-0.34,0.525-0.937c0.198-0.591,0.372-0.904,0.525-0.935c0.365-0.547,0.835-1.353,1.415-2.418
	c0.577-1.064,0.986-1.776,1.233-2.145c0.302-0.06,0.583-0.234,0.845-0.525c0.256-0.288,0.463-0.448,0.615-0.478
	c0.121-0.18,0.663-0.843,1.622-1.985c0.958-1.14,1.571-1.814,1.849-2.03c0.119-0.179,0.53-0.499,1.231-0.958
	c0.7-0.455,1.11-0.773,1.233-0.958l-0.091-0.456c-0.06-0.303-0.031-0.545,0.09-0.73c0.09-0.333,0.169-0.745,0.229-1.232l0.548-0.821
	c0.121-0.179,0.318-0.378,0.593-0.593c0.09-0.333,0.152-0.82,0.184-1.46c0.029-0.637,0.106-1.049,0.229-1.232
	c0.121-0.181,0.465-0.646,1.027-1.392c0.563-0.743,0.965-1.297,1.209-1.665c-0.03-0.15,0.137-0.303,0.502-0.457
	c0.363-0.15,0.698-0.258,1.004-0.319l0.274-1.004l0.275-1.003l0.683-0.138l0.687-0.136c0.119-0.18,0.243-0.56,0.364-1.14
	c0.124-0.578,0.257-0.882,0.412-0.914c-0.061-0.303-0.002-0.79,0.183-1.459c0.182-0.667,0.409-1.109,0.685-1.324
	c-0.03-0.149,0.014-0.318,0.137-0.502c0.12-0.179,0.228-0.437,0.321-0.774c0.088-0.333,0.196-0.593,0.318-0.776l1.37-0.273
	l0.366-0.548c0.365-0.548,0.469-0.806,0.32-0.775c0.12-0.18,0.366-0.548,0.729-1.096c0.366-0.547,0.683-0.926,0.959-1.14
	l0.229-0.047l0.685-0.135c-0.124,0.183-0.274,0.41-0.457,0.684c-0.183,0.274-0.245,0.564-0.184,0.867l0.183,0.912l0.913-0.182
	l-0.046-0.228l0.184-0.274c0.302-0.06,0.591-0.196,0.866-0.41c0.303-0.062,0.564-0.15,0.776-0.274
	c0.214-0.121,0.395-0.197,0.548-0.229c-0.06-0.303,0.074-0.608,0.41-0.912c0.332-0.304,0.562-0.547,0.686-0.729l0.274-1.004
	c0.089-0.334,0.123-0.577,0.092-0.731c-0.031-0.149,0.014-0.317,0.136-0.5c0.15-0.031,0.213-0.121,0.184-0.274l0.182-0.273
	l0.229-0.045l0.455-0.091c0.181,0.124,0.542,0.329,1.073,0.617c0.532,0.29,0.888,0.498,1.072,0.617l0.503,0.136l0.638-0.363
	l0.229-0.046c0.15-0.03,0.222-0.081,0.206-0.16c-0.016-0.075,0.051-0.129,0.205-0.159l0.457-0.092
	c0.12-0.18,0.287-0.531,0.502-1.049c0.212-0.517,0.379-0.866,0.503-1.049c-0.031-0.15,0.043-0.561,0.228-1.231
	c0.089-0.334,0.197-0.594,0.32-0.777c-0.031-0.149,0.121-0.379,0.457-0.684c0.333-0.304,0.486-0.531,0.456-0.685
	c0.243-0.363,0.417-0.676,0.526-0.936c0.104-0.258,0.278-0.568,0.524-0.935c0.243-0.365,0.411-0.713,0.502-1.051
	c-0.06-0.302-0.258-0.697-0.593-1.186c-0.333-0.485-0.668-0.775-1.003-0.868l0.182-0.273c0.151-0.029,0.319,0.018,0.503,0.137
	c0.03,0.153,0.387,0.36,1.071,0.616c0.683,0.261,1.118,0.451,1.301,0.571l0.229-0.045l0.455-0.091l-0.046-0.229
	c-0.031-0.149,0.016-0.318,0.138-0.501c-0.031-0.15,0.014-0.319,0.136-0.502l2.692,3.971l0.228-0.045l1.097-1.643l-0.046-0.229
	c-0.03-0.149-0.085-0.22-0.16-0.205c-0.078,0.015-0.129-0.052-0.16-0.206c-0.183-0.12-0.288-0.257-0.319-0.411l-0.182-0.913
	l-0.182-0.913c0.272-0.211,0.577-0.473,0.912-0.776c0.333-0.304,0.683-0.332,1.05-0.091l-0.822-0.548
	c0.12-0.179,0.29-0.333,0.503-0.457c0.212-0.12,0.456-0.288,0.73-0.501c0.119-0.18,0.316-0.379,0.592-0.593
	c0.365-0.548,0.534-0.896,0.503-1.05c0.15-0.03,0.591-0.196,1.323-0.502c0.73-0.301,1.169-0.47,1.324-0.501
	c0.241-0.364,0.614-0.872,1.119-1.529c0.499-0.652,0.722-1.131,0.661-1.436c0.365,0.245,1.331,0.724,2.898,1.438
	c1.566,0.717,2.53,1.196,2.896,1.438c0.364,0.246,0.563,0.444,0.593,0.594l0.458-0.092l0.684-0.136
	c0.182,0.123,0.577,0.322,1.187,0.593c0.608,0.275,1.019,0.549,1.232,0.822c0.03,0.153,0.256,0.504,0.684,1.049
	c0.425,0.549,0.729,0.885,0.911,1.004c0.365,0.246,1.264,0.975,2.693,2.191c1.43,1.221,2.325,1.95,2.691,2.192
	c0.365,0.245,0.593,0.593,0.684,1.049c0.032,0.153,0.291,0.261,0.775,0.32l1.005,0.273c0.03,0.154,0.182,0.521,0.457,1.096
	c0.271,0.58,0.5,0.931,0.683,1.049c0.031,0.153,0.16,0.406,0.388,0.753c0.225,0.351,0.508,0.574,0.845,0.662
	c0.18,0.124,0.715,0.609,1.596,1.46c0.882,0.855,1.429,1.417,1.643,1.689c0.15-0.029,0.309,0.176,0.479,0.617
	c0.166,0.441,0.356,0.8,0.57,1.073c0.365,0.247,1.079,1.053,2.144,2.419c1.064,1.37,1.702,2.192,1.917,2.465l1.914,2.464
	c0.152-0.03,0.275,0.183,0.367,0.639c0.09,0.455,0.227,0.748,0.409,0.867c0.211,0.276,0.592,0.99,1.141,2.146
	c0.547,1.159,0.896,1.718,1.05,1.687l2.51,0.686c0.03,0.154,0.21,0.277,0.547,0.365c0.333,0.095,0.651,0.107,0.957,0.047
	l-0.363,0.546l-0.184,0.275l0.273,1.369l0.684-0.136c0.761-0.153,1.097-0.458,1.006-0.914c0.363,0.246,0.75,0.603,1.163,1.073
	c0.41,0.475,0.721,0.846,0.937,1.118c0.18,0.123,0.423,0.747,0.729,1.872c0.303,1.125,0.501,1.916,0.592,2.373l0.5,2.51
	c0.031,0.154,0.173,0.678,0.434,1.575c0.257,0.897,0.478,1.41,0.661,1.529c0.062,0.306,0.122,0.806,0.183,1.506
	c0.06,0.699,0.166,1.034,0.318,1.003c0.031,0.154,0.214,0.473,0.548,0.958c0.335,0.489,0.518,0.809,0.547,0.959l0.319,0.411
	l-1.324,0.501c0.031,0.153-0.044,0.365-0.228,0.639c-0.182,0.273-0.258,0.489-0.229,0.64c0.061,0.306,0.181,0.52,0.366,0.639
	c0.18,0.124,0.378,0.321,0.592,0.593l0.091,0.457c0.031,0.153,0.122,0.212,0.274,0.182c0.031,0.154-0.016,0.322-0.138,0.502
	l0.047,0.229c-0.153,0.031-0.424,0.245-0.821,0.64c-0.395,0.397-0.747,0.623-1.05,0.684l-0.184,0.273l-0.501-0.136
	c-0.336-0.089-0.706-0.572-1.118-1.439c-0.41-0.867-0.738-1.512-0.979-1.939l-0.229-1.141l-0.274-0.183
	c-0.152,0.031-0.321-0.014-0.5-0.137l-0.458,0.091L101.86,734.196z M27.793,744.716c-0.306,0.061-0.434,0.205-0.388,0.434
	c0.045,0.228,0.218,0.311,0.524,0.25c0.273-0.21,0.396-0.393,0.365-0.547C28.266,744.704,28.097,744.656,27.793,744.716z
	 M28.305,714.005c0.031,0.153,0.135,0.292,0.319,0.411c0.149-0.031,0.243,0.033,0.273,0.183c0.062,0.306,0.167,0.441,0.32,0.411
	c0.148-0.03,0.213-0.122,0.182-0.274c-0.03-0.15,0.014-0.318,0.136-0.501l0.367-0.548l-0.548-0.366
	c-0.153,0.031-0.32-0.013-0.501-0.137c-0.306,0.061-0.41,0.32-0.319,0.776L28.305,714.005z M32.551,706.75
	c-0.306,0.062-0.417,0.284-0.341,0.662c0.076,0.381,0.263,0.541,0.57,0.479c0.455-0.09,0.646-0.326,0.571-0.707
	C33.274,706.805,33.006,706.659,32.551,706.75z M39.713,712.913l-0.136-0.685l-0.685,0.136L39.713,712.913z M39.853,702.919
	l0.685-0.136l-0.137-0.685L39.853,702.919z M42.223,711.226c-0.306,0.061-0.418,0.282-0.342,0.661
	c0.076,0.382,0.264,0.541,0.57,0.479c0.304-0.061,0.419-0.281,0.342-0.661C42.719,711.327,42.527,711.165,42.223,711.226z
	 M42.907,714.648c0.031,0.153,0.136,0.292,0.321,0.41c0.18,0.125,0.347,0.169,0.502,0.138l-0.273-1.369l-0.914,0.182L42.907,714.648
	z M45.917,720.216l1.141-0.227l-0.137-0.686l-1.141,0.228L45.917,720.216z M48.886,716.064c-0.155,0.031-0.292,0.14-0.411,0.319
	c-0.124,0.184-0.168,0.352-0.138,0.502l0.228,1.141l0.686-0.136l0.729-1.095l-0.091-0.457c-0.03-0.149-0.016-0.271,0.046-0.365
	c0.06-0.089,0.077-0.211,0.046-0.365L48.886,716.064z M59.935,695.35l0.685-0.138l-0.092-0.456l-0.684,0.137L59.935,695.35z
	 M64.631,703.429c0.031,0.152,0.13,0.252,0.297,0.296c0.166,0.048,0.267,0.146,0.296,0.296c0.303-0.061,0.637,0.033,1.004,0.274
	c0.181,0.123,0.35,0.168,0.502,0.138l1.369-0.274l0.686-0.137l0.228-0.045c0.148-0.031,0.289-0.136,0.411-0.319
	c0.119-0.18,0.318-0.378,0.593-0.594c0.121-0.179,0.456-0.483,1.004-0.911l-0.091-0.458l-0.091-0.456l-0.683,0.136
	c-0.153,0.032-0.321-0.013-0.503-0.137c-0.152,0.03-0.242-0.029-0.272-0.183l-0.091-0.457c-0.183-0.119-0.29-0.257-0.321-0.411
	c-0.06-0.302-0.265-0.737-0.616-1.3c-0.348-0.561-0.617-0.904-0.797-1.027c-0.03-0.15-0.358-0.403-0.98-0.754
	c-0.626-0.349-1.105-0.569-1.438-0.662c0.061,0.308,0.119,0.808,0.181,1.506c0.058,0.7,0.043,1.219-0.046,1.552
	c-0.277,0.214-0.473,0.413-0.592,0.594c-0.396,0.397-0.564,0.745-0.503,1.048c-0.124,0.184-0.166,0.352-0.137,0.501l0.137,0.685
	L64.631,703.429z"/>
<g>
	<path fill="#E6E7E8" d="M39.852,631.715v-1.368c0-0.949,4.653-1.605,13.959-1.971c1.205,0.219,2.081,0.328,2.628,0.328v-0.328
		c1.168,0,1.843,1.114,2.025,3.339c-2.554,0-6.204,2.537-10.948,7.609c0,1.095-0.347,2.537-1.04,4.325
		c0,5.547,1.661,9.087,4.981,10.62c1.46-0.438,2.463-0.657,3.011-0.657h0.985c2.664-3.175,3.996-4.945,3.996-5.31l-0.329-2.299
		c1.752-3.868,2.627-5.875,2.627-6.021c0-0.219-0.109-0.547-0.328-0.985c1.241-7.371,2.901-11.24,4.981-11.605
		c2.592-2.445,4.361-3.668,5.31-3.668h3.011c1.935-0.547,3.266-1.095,3.996-1.642c0.913,0.621,3.339,1.606,7.28,2.956
		c2.92,1.497,4.471,2.719,4.653,3.667c1.788,1.241,2.682,2.792,2.682,4.653v0.985c0,0.219-0.109,0.328-0.329,0.328l0.985,2.683
		c-0.547,4.817-1.551,9.124-3.011,12.919c2.883,2.117,4.325,3.777,4.325,4.981v1.04c-1.496,1.752-3.375,2.627-5.638,2.627v-0.328
		h-1.314l-0.329,1.642h-0.383l-0.985-0.657c-0.438,0-1.205,1.113-2.299,3.339h-0.985v-3.011H82.66c-0.474,0-0.912,0.109-1.314,0.329
		c-0.364-0.219-0.802-0.329-1.314-0.329c0,0.694-0.219,1.04-0.657,1.04c-0.876-1.13-1.879-1.697-3.011-1.697
		c-0.693,0.438-1.24,0.657-1.642,0.657c-1.095-1.095-1.879-2.299-2.354-3.613c0.219-0.802,3.212-2.81,8.978-6.021
		c3.722-3.394,5.821-6.04,6.295-7.938v-1.642c0-4.599-1.533-7.919-4.599-9.963l-1.368,0.328l-5.639-1.04
		c-2.226,0-3.887,4.763-4.981,14.288l0.329,3.011c-0.109,0.584-0.767,1.807-1.971,3.667c0,1.168-0.675,2.592-2.025,4.27l0.383,2.354
		h-0.383l-0.985-0.657h-0.657c-0.474,0-1.459,1.442-2.956,4.325l-1.369,0.329c-0.219-0.438-0.329-0.785-0.329-1.04
		c-1.095,0-1.642,0.238-1.642,0.711c-0.438-0.219-0.767-0.329-0.985-0.329h-0.329v0.329h0.657c-0.219,0.402-0.328,0.73-0.328,0.985
		h-0.329c-0.839-0.657-1.624-0.985-2.354-0.985l-2.299,0.329c0-0.693-0.456-1.04-1.369-1.04l-1.642,0.383
		c-2.591-1.24-4.689-2.573-6.295-3.996c-1.605-0.948-2.937-4.489-3.996-10.62c0.438-0.729,0.657-1.404,0.657-2.025h-0.328
		l0.328-0.657l-0.328-1.971c0.328,0,0.766-1.332,1.313-3.996c0.183,0,0.53-0.548,1.04-1.643v-0.711
		C40.856,633.723,39.852,632.518,39.852,631.715z M62.077,663.246v-1.314c0.329,0,0.676,0.329,1.04,0.985l-0.711,0.329H62.077z"/>
	<path fill="#E6E7E8" d="M18.393,599.855v-0.328c0-1.24,1.004-2.135,3.011-2.683c0.438,0.219,0.767,0.329,0.985,0.329
		c0.767,0,1.333-0.109,1.697-0.329c1.533,0.219,2.756,0.329,3.667,0.329h2.682c0.219,0,0.329-0.109,0.329-0.329
		c1.132,0.438,2.025,0.657,2.682,0.657c2.555-0.438,5.11-0.767,7.664-0.985v-4.708l-0.985-4.653l0.329-0.657l-0.329-2.025
		c1.278-1.788,2.847-2.682,4.708-2.682c2.008,0.767,3.011,2.774,3.011,6.021c-0.474,0-0.711,0.219-0.711,0.657
		c0,0.293,0.109,1.406,0.329,3.339l-0.329,1.369c0,1.971,1.789,3.194,5.365,3.667c2.117-0.219,4.125-0.328,6.021-0.328h0.985
		l4.708-1.04c0.475,0.183,1.697,0.42,3.668,0.711c1.825-0.219,4.836-0.894,9.032-2.025c1.204,0.219,2.208,0.329,3.011,0.329
		c3.358-0.985,5.036-2.208,5.036-3.668l0.329-3.339c-1.533-2.226-5.218-3.339-11.058-3.339c-0.365,0-1.041,0.219-2.026,0.657
		c-1.386,0-2.372-1.569-2.956-4.708c1.898-1.752,4.562-2.628,7.992-2.628c0.365,0.219,0.93,0.329,1.697,0.329v-0.329
		c4.125,0.876,6.569,1.88,7.335,3.011c4.453,1.898,6.678,4.015,6.678,6.35c0.402,0.657,1.187,2.665,2.354,6.021v1.314
		c-2.007,6.021-3.576,9.032-4.708,9.032c-0.438,0-0.657,0.219-0.657,0.657h-1.642c-2.518,0.876-5.201,1.333-8.047,1.369
		c-0.182,0-1.076-0.109-2.683-0.329c-4.27,0.438-7.5,0.657-9.689,0.657l-5.365-0.329c-1.204,0.219-2.208,0.329-3.011,0.329
		c-1.205-0.219-2.098-0.329-2.683-0.329c-5.51,1.059-8.393,1.825-8.649,2.299v5.036c0,1.241-1.003,2.244-3.011,3.011
		c-2.335,0-4.014-2.444-5.036-7.335c-0.438,0-0.657-0.346-0.657-1.04h-2.026c-4.086-2.444-6.642-3.667-7.664-3.667h-2.025
		c-0.219,0-0.329,0.109-0.329,0.328c-0.802-0.438-1.697-0.657-2.682-0.657c-0.146,0-1.587,0.109-4.325,0.329
		C19.069,601.955,18.393,600.731,18.393,599.855z"/>
	<path fill="#E6E7E8" d="M39.578,538.491c1.095-10.802,2.847-16.203,5.255-16.203c1.789-1.678,4.379-2.518,7.773-2.518l9.197,0.711
		c2.226-0.219,4.689-0.329,7.39-0.329c0.512,0,1.807,0.11,3.887,0.329v-0.329c0.438,0.219,0.785,0.329,1.04,0.329
		c2.117-0.693,3.887-1.04,5.31-1.04h3.175c1.752,0,2.92-1.642,3.503-4.927l-1.04-1.752v-0.383c0-0.292,0.584-0.876,1.752-1.752
		c3.212,0,5.565,1.88,7.062,5.638c0,0.985,0.347,2.281,1.04,3.887c-0.839,4.927-2.006,7.39-3.503,7.39
		c-1.131,1.423-2.664,2.135-4.598,2.135v0.711c3.065,2.956,5.767,8.357,8.102,16.204c0,7.737-3.887,12.792-11.66,15.163
		c-6.679,0-11.13-2.006-13.357-6.021c-1.788-1.204-3.449-4.726-4.981-10.565l-1.369-1.04l0.329-1.752c0-0.255-0.11-0.62-0.329-1.095
		l0.329-2.08v-0.383c-1.167-1.314-2.098-4.36-2.792-9.142c-1.277,0-2.098-0.347-2.463-1.041c-7.992,0.657-11.988,2.062-11.988,4.215
		c-0.364,0-0.966,0.694-1.807,2.08c0,7.299,0.821,10.948,2.463,10.948c0,0.329,0.365,0.676,1.095,1.04h1.04l2.135-0.328
		c0.402,0.219,0.858,0.328,1.369,0.328c0.73-0.219,1.095-0.438,1.095-0.657c0.694,0.438,2.811,0.895,6.35,1.369
		c0,0.146,0.109,1.679,0.328,4.598c-1.423,3.54-3.539,5.31-6.35,5.31h-2.792c-0.255,0-0.383,0.109-0.383,0.328
		c-6.35-3.284-9.525-6.569-9.525-9.854C40.782,545.973,40.089,542.797,39.578,538.491z M49.212,532.579h0.383
		c0.475-0.073,0.711-0.31,0.711-0.711v-0.712h-1.095c-0.474,0-0.711,0.238-0.711,0.712
		C48.574,532.342,48.812,532.579,49.212,532.579z M56.603,531.867h0.383v-0.712c0-0.474-0.237-0.711-0.712-0.711h-0.711v0.329
		C55.562,531.138,55.91,531.503,56.603,531.867z M67.551,543.855l-0.329,3.503c1.861,4.051,3.376,6.879,4.544,8.485
		c2.555,2.117,5.146,3.175,7.773,3.175v-0.383l0.712,0.383c4.015,0,6.715-2.481,8.102-7.445v-1.04
		c-1.934-6.35-4.16-9.525-6.678-9.525c-1.496-1.642-5.383-2.463-11.66-2.463c0-0.474-0.474-0.711-1.423-0.711
		c-1.058,0.402-1.879,1.114-2.463,2.135v0.329C66.127,540.735,66.602,541.921,67.551,543.855z"/>
	<path fill="#E6E7E8" d="M17.846,463.714c0.84-1.643,2.044-2.409,3.613-2.299l5.036,0.657l5.201-0.875
		c0.037,0.402,0.219,0.621,0.547,0.657l2.245,0.164c0.547-0.401,0.985-0.583,1.313-0.547l1.205,0.712
		c4.27,0.292,10.018-0.055,17.243-1.04l1.205,0.438c8.138-0.182,12.828-0.493,14.068-0.93v0.273
		c2.883-0.146,4.598-0.438,5.146-0.876l0.603,0.329l0.931,0.055c1.898,0.146,4.361-0.091,7.39-0.711l1.861,0.438
		c1.351-1.095,2.062-2.317,2.135-3.668c0.037-0.474-0.036-0.912-0.219-1.313c0.512-2.081,1.533-3.066,3.065-2.956l2.847,0.219
		c0.694,0.146,1.333,1.771,1.916,4.872l0.328,0.055l-1.095,1.807c0.037,2.336,0.311,4.361,0.821,6.076
		c-0.182,2.555-1.752,3.941-4.708,4.16c-0.875,0.256-1.313,0.53-1.313,0.821l1.204,0.766v-0.328
		c1.861,1.898,3.541,5.292,5.036,10.182l-0.164,2.245c-0.219,3.431-1.715,6.605-4.489,9.525c-1.678,2.993-7.134,5.474-16.368,7.445
		c-0.949,0.365-2.245,0.584-3.887,0.657c-0.219,0-0.528-0.127-0.931-0.383c-2.116,0.037-3.175,0.183-3.175,0.438l-0.657-0.383
		l-1.533-0.11c-0.219,0-0.346,0.11-0.383,0.329c-0.365-0.036-1.897-0.675-4.599-1.916l-0.055,0.329
		c-6.204-2.226-9.251-4.142-9.142-5.748c-2.007-0.145-3.667-3.539-4.981-10.182l0.383-1.587c-0.11-1.167-0.146-2.007-0.11-2.518
		c0.183-2.481,1.478-4.507,3.887-6.077l0.165-1.916h-0.329c-1.095-0.109-2.043-0.072-2.847,0.11
		c-1.167-0.292-2.006-0.456-2.518-0.493c-6.167,0.146-9.269,0.457-9.306,0.931l-1.533-0.438c-1.642-0.11-2.937,0.238-3.887,1.04
		l-1.587-0.438c-1.313,0.84-2.006,1.734-2.08,2.682l-0.164,2.245c-0.036,0.584,0.128,1.223,0.493,1.916
		c-0.767,1.423-1.441,2.117-2.025,2.08c-0.365,0.219-0.894,0.292-1.588,0.219l-0.657-0.055c-0.766-0.036-1.478-1.989-2.135-5.857
		l0.493-2.189C19.178,471.725,18.54,468.714,17.846,463.714z M65.361,490.537c8.357-0.583,14.27-1.752,17.736-3.503
		c3.577-2.226,5.365-4.562,5.365-7.007v-0.603c0-0.219-0.09-0.328-0.273-0.328c0.402-0.693,0.602-1.332,0.602-1.916v-1.259
		c-1.678-4.233-4.853-6.35-9.525-6.35c-2.153-0.219-3.412-0.419-3.777-0.603c-4.489,0.256-7.554,0.566-9.196,0.931l-0.657-0.328
		c-7.371,1.533-11.058,3.011-11.058,4.434c-1.752,0-2.919,2.117-3.503,6.35c1.642,5.73,3.869,8.595,6.678,8.595
		C58.628,489.534,61.165,490.063,65.361,490.537z"/>
	<path fill="#E6E7E8" d="M18.393,433.387v-0.328c0-1.24,1.004-2.135,3.011-2.683c0.438,0.219,0.767,0.329,0.985,0.329
		c0.767,0,1.333-0.109,1.697-0.329c1.533,0.219,2.756,0.329,3.667,0.329h2.682c0.219,0,0.329-0.109,0.329-0.329
		c1.132,0.438,2.025,0.657,2.682,0.657c2.555-0.438,5.11-0.767,7.664-0.985v-4.708l-0.985-4.653l0.329-0.657l-0.329-2.025
		c1.278-1.788,2.847-2.682,4.708-2.682c2.008,0.767,3.011,2.774,3.011,6.021c-0.474,0-0.711,0.219-0.711,0.657
		c0,0.293,0.109,1.406,0.329,3.339l-0.329,1.369c0,1.971,1.789,3.194,5.365,3.667c2.117-0.219,4.125-0.328,6.021-0.328h0.985
		l4.708-1.04c0.475,0.183,1.697,0.42,3.668,0.711c1.825-0.219,4.836-0.894,9.032-2.025c1.204,0.219,2.208,0.329,3.011,0.329
		c3.358-0.985,5.036-2.208,5.036-3.668l0.329-3.339c-1.533-2.226-5.218-3.339-11.058-3.339c-0.365,0-1.041,0.219-2.026,0.657
		c-1.386,0-2.372-1.569-2.956-4.708c1.898-1.752,4.562-2.628,7.992-2.628c0.365,0.219,0.93,0.329,1.697,0.329v-0.329
		c4.125,0.876,6.569,1.88,7.335,3.011c4.453,1.898,6.678,4.015,6.678,6.35c0.402,0.657,1.187,2.665,2.354,6.021v1.314
		c-2.007,6.021-3.576,9.032-4.708,9.032c-0.438,0-0.657,0.219-0.657,0.657h-1.642c-2.518,0.876-5.201,1.333-8.047,1.369
		c-0.182,0-1.076-0.109-2.683-0.329c-4.27,0.438-7.5,0.657-9.689,0.657l-5.365-0.329c-1.204,0.219-2.208,0.329-3.011,0.329
		c-1.205-0.219-2.098-0.329-2.683-0.329c-5.51,1.059-8.393,1.825-8.649,2.299v5.036c0,1.241-1.003,2.244-3.011,3.011
		c-2.335,0-4.014-2.444-5.036-7.335c-0.438,0-0.657-0.346-0.657-1.04h-2.026c-4.086-2.444-6.642-3.667-7.664-3.667h-2.025
		c-0.219,0-0.329,0.109-0.329,0.328c-0.802-0.438-1.697-0.657-2.682-0.657c-0.146,0-1.587,0.109-4.325,0.329
		C19.069,435.486,18.393,434.263,18.393,433.387z"/>
	<path fill="#E6E7E8" d="M19.105,388.006l0.219-2.901c0.037-0.401,0.383-0.583,1.04-0.548c0.219,0,0.311,0.11,0.274,0.329
		l1.313-0.219c1.533,0.328,2.391,0.511,2.573,0.547l1.314-0.219l1.587,0.438l1.314-0.547v0.329c0.511-0.146,1.935-0.255,4.27-0.329
		c1.497,0.767,2.427,1.168,2.792,1.205l3.339-1.369l1.587,0.438l4.215,0.328c1.533,0.11,5,0.055,10.401-0.164
		c0.292,0.219,0.93,0.383,1.916,0.493c1.423-0.329,2.409-0.474,2.956-0.438h0.329c0.876,0.074,2.044,0.274,3.503,0.602
		c2.08-0.474,3.285-0.693,3.613-0.657c0.146-1.642-1.824-4.069-5.912-7.281c-0.547-0.073-1.04-0.766-1.478-2.08
		c-1.861-0.948-2.737-2.098-2.627-3.449c-0.474-0.474-2.171-1.04-5.091-1.697c-0.985,1.861-1.533,3.339-1.642,4.434
		c0.365,0,0.766,0.457,1.204,1.369v0.328c-0.364,0.84-1.369,1.205-3.011,1.095c-0.767-0.073-1.387-0.456-1.861-1.149l0.383-0.602
		c0.146-2.153,0-3.248-0.438-3.285l0.383-0.602l-0.383-15.656l0.109-1.259c0.11-1.496,0.913-2.189,2.409-2.08l0.985,0.055
		c1.278,0.109,2.08,0.821,2.409,2.135c0,0.183-0.164,1.04-0.493,2.573c0.365,2.847,1.861,5.675,4.489,8.485
		c1.204,0.146,2.701,1.88,4.489,5.201c1.423,0.985,2.463,1.497,3.12,1.533c3.687-2.554,8.467-5.656,14.342-9.306
		c1.898-2.006,3.486-2.956,4.763-2.846c0.037,0.803,0.42,1.478,1.149,2.025l0.657-0.274c0.037-0.329-0.438-1.113-1.423-2.354
		c2.664-1.715,4.379-4.178,5.146-7.39l0.055-1.313c0.037-0.219-0.055-0.329-0.273-0.329c0.073-1.167,1.642-1.807,4.708-1.916
		c1.059,0.074,1.423,2.373,1.095,6.897c-0.62,5.073-1.167,7.957-1.642,8.649c0.621,0.255,0.895,0.913,0.821,1.971l-0.165,1.642
		c-1.568-0.146-2.773-1.222-3.613-3.23l-0.985-0.055l-0.383,0.602l-1.587-0.438h-0.329c0,0.219-0.127,0.529-0.383,0.93
		c0.183,0.402,0.255,0.84,0.219,1.314v0.329l-0.985-0.109c-0.474-0.438-1.113-0.693-1.916-0.767l0.055-0.657
		c1.095,0.073,1.661-0.091,1.697-0.493v-0.329l-0.165-1.642l-0.657-0.055l-0.055,0.657l-0.657-0.055
		c-0.255-0.036-0.748-0.729-1.478-2.08c-0.182,0-0.876,0.711-2.081,2.135c-0.036,0.402,0.365,0.639,1.205,0.711l-0.493,2.245
		l0.657,0.383c0.438-0.182,0.767-0.274,0.985-0.274c0.037,0.438,0.238,0.676,0.602,0.712l1.643-0.219l-0.055,0.329
		c-0.11,1.533-4.452,4.562-13.029,9.087c0,0.183-0.109,0.274-0.328,0.274h-0.329l-0.657-0.383c-0.693,0.73-1.058,1.46-1.095,2.189
		l-0.055,0.329c2.628,3.212,4.562,4.872,5.803,4.981c0.219,0,0.329-0.109,0.329-0.329l0.602,0.383
		c3.613,0.292,6.241,0.055,7.883-0.711c0.657,0.511,1.278,0.785,1.861,0.821l1.642,0.109c0.913,0.074,1.587-1.715,2.025-5.364
		h-0.329c0.074-1.021,1.095-1.588,3.065-1.697c1.168,0.074,1.734,0.985,1.697,2.737l-0.383,1.259
		c0.402,8.504,0.566,13.376,0.493,14.616l-0.493,1.916c0.329,0.037,0.73,0.511,1.205,1.423c-1.168,1.497-2.098,2.281-2.792,2.354
		c-1.897-0.146-3.248-0.784-4.051-1.916l0.109-1.971c0.146-1.934-0.748-2.974-2.682-3.12c-2.518-0.839-4.106-1.277-4.763-1.314
		l-2.299,0.438c-1.13-0.292-2.08-0.474-2.846-0.547c-0.73,0.365-1.295,0.547-1.697,0.547c-1.861-1.13-2.773-1.971-2.737-2.518
		l-0.603-0.055c-2.773,1.095-4.762,1.587-5.967,1.478l-3.941,0.712l-1.259-0.438c-1.533,0.037-2.317,0.201-2.354,0.493l-0.602-0.383
		l-2.901-0.219l-1.697,0.821c-1.24-0.511-3.047-0.966-5.419-1.369c-1.533,0.512-2.627,0.749-3.285,0.712l-1.587-0.438
		c-1.751,0.365-2.627,0.621-2.627,0.766c-1.314-0.547-2.171-0.839-2.573-0.875c-6.934,0.475-10.437,1.077-10.511,1.806l-1.04,1.205
		l-0.055,0.657c0.256,2.154,0.365,3.339,0.329,3.558c-0.876,1.241-2.208,1.788-3.996,1.643c-1.788-2.263-2.481-5.985-2.08-11.167
		c0.255-0.364,0.402-0.784,0.438-1.259C19.233,389.266,19.069,388.591,19.105,388.006z M26.331,357.516
		c0.183-0.876,0.402-1.314,0.657-1.314h0.438c1.497,0.584,2.445,0.876,2.847,0.876c-1.021,1.898-1.971,2.847-2.847,2.847h-0.219
		C26.769,359.924,26.477,359.122,26.331,357.516z M47.351,387.624l0.657,0.055l0.109-0.985l-0.657-0.055L47.351,387.624z
		 M67.441,375.854l0.657,0.055c0.438-0.036,0.913-0.528,1.423-1.478c-0.766-0.474-1.259-1.167-1.478-2.08
		c-0.876,0.146-1.35,0.547-1.423,1.204C67.205,374.65,67.478,375.416,67.441,375.854z M68.263,377.551l1.313,0.11
		c1.351-0.657,2.044-1.15,2.08-1.478l-1.259-1.04c-0.729,1.022-1.404,1.497-2.025,1.423L68.263,377.551z M69.138,383.135
		l0.329,0.055c0.438-0.036,0.676-0.237,0.711-0.602v-0.329l-0.93-0.109L69.138,383.135z M77.568,366.931
		c0.402,0.037,0.602,0.164,0.602,0.383c1.533-0.182,2.318-0.456,2.354-0.821l-0.219-1.642l-1.314-0.109l-0.055,1.313
		c-0.876-0.073-1.332,0.109-1.369,0.547V366.931z M90.597,374.102l0.109-0.985c0.438,0.037,0.639,0.274,0.602,0.712l-0.055,0.329
		L90.597,374.102z M92.02,372.569l0.055-0.657c0.11-0.401,0.348-0.583,0.712-0.547h0.657c-0.109,1.095,0.055,1.661,0.493,1.697
		c-0.364,0.84-0.711,1.241-1.04,1.205C92.97,373.208,92.677,372.643,92.02,372.569z M92.185,366.438l0.657,0.055l0.055-0.985
		l-0.657-0.055L92.185,366.438z"/>
	<path fill="#E6E7E8" d="M20.035,326.86c0-1.313,0.53-2.262,1.588-2.846h4.105c0.803-0.657,1.552-0.985,2.244-0.985h0.657
		l0.931,0.657h1.313c0.913,0,1.752-0.219,2.518-0.657c0.876,0.438,1.515,0.657,1.916,0.657c0.475,0,2.391-0.219,5.748-0.657
		c0.84,0.438,1.587,0.657,2.244,0.657c0.219,0,0.329-0.109,0.329-0.329l1.587,0.329h6.35c1.716,0,3.102-0.329,4.16-0.985
		c1.059,0.657,1.898,0.985,2.518,0.985c3.175-0.657,4.981-0.985,5.419-0.985l1.314,0.657l3.175-0.328
		c0.512,0,1.351,0.109,2.518,0.328c1.826-0.219,3.321-0.328,4.489-0.328c0.73,0,2.537,0.109,5.419,0.328
		c2.044-0.583,3.103-1.003,3.175-1.259c0.766,0.402,1.624,0.602,2.573,0.602c1.497,0,2.244-0.839,2.244-2.518v-3.832
		c0-0.547,1.059-1.076,3.175-1.587c1.898,0.475,2.847,1.004,2.847,1.587v4.489l0.328,1.861c-0.438,0.803-0.657,1.661-0.657,2.573
		v1.259c0,0.584,0.219,1.223,0.657,1.916c-0.438,1.095-0.657,1.843-0.657,2.244c0,0.256,0.109,1.314,0.329,3.175
		c-0.219,2.518-0.329,4.324-0.329,5.419h-1.259c-0.474,0-0.894,0.11-1.259,0.329c-1.205,0-2.171-2.025-2.901-6.076
		c0-0.62-1.478-1.04-4.434-1.259l-1.259,0.657c-0.73-0.438-2.646-0.767-5.748-0.985l-3.175,0.328l-2.901-0.328l-1.587,0.657
		c-0.401-0.219-0.712-0.329-0.931-0.329c-1.35,0.438-2.427,0.657-3.23,0.657c-0.62-0.219-0.931-0.438-0.931-0.657l-2.901,0.329
		c-0.438,0-1.605-0.109-3.503-0.329l-0.602,0.329c-0.364-0.219-0.802-0.329-1.313-0.329l-1.861,0.329l-4.161-0.657
		c-1.934,0.402-2.901,0.73-2.901,0.985c-0.767-0.438-1.715-0.657-2.847-0.657c-1.35,0.438-2.098,0.657-2.245,0.657
		c-0.62-0.219-0.931-0.438-0.931-0.657l-3.175,0.329h-1.916l-1.587,0.931l-0.657-0.274l-1.588,0.274l-3.832-0.274
		c-0.583,0.11-1.113,0.639-1.587,1.588v0.602l0.328,3.229c-0.255,0-0.693,0.84-1.313,2.518l-1.588,0.329
		C22.389,341.531,20.911,336.641,20.035,326.86z"/>
	<path fill="#E6E7E8" d="M39.578,279.673c1.095-10.802,2.847-16.204,5.255-16.204c1.789-1.678,4.379-2.518,7.773-2.518l9.197,0.711
		c2.226-0.219,4.689-0.328,7.39-0.328c0.512,0,1.807,0.109,3.887,0.328v-0.328c0.438,0.219,0.785,0.328,1.04,0.328
		c2.117-0.692,3.887-1.04,5.31-1.04h3.175c1.752,0,2.92-1.642,3.503-4.927l-1.04-1.751v-0.384c0-0.291,0.584-0.876,1.752-1.751
		c3.212,0,5.565,1.88,7.062,5.638c0,0.985,0.347,2.281,1.04,3.887c-0.839,4.927-2.006,7.391-3.503,7.391
		c-1.131,1.423-2.664,2.135-4.598,2.135v0.711c3.065,2.956,5.767,8.357,8.102,16.204c0,7.737-3.887,12.792-11.66,15.163
		c-6.679,0-11.13-2.006-13.357-6.021c-1.788-1.204-3.449-4.726-4.981-10.565l-1.369-1.04l0.329-1.752c0-0.255-0.11-0.62-0.329-1.095
		l0.329-2.08v-0.383c-1.167-1.314-2.098-4.36-2.792-9.142c-1.277,0-2.098-0.347-2.463-1.04c-7.992,0.656-11.988,2.062-11.988,4.215
		c-0.364,0-0.966,0.694-1.807,2.08c0,7.299,0.821,10.948,2.463,10.948c0,0.329,0.365,0.676,1.095,1.04h1.04l2.135-0.328
		c0.402,0.219,0.858,0.328,1.369,0.328c0.73-0.219,1.095-0.438,1.095-0.657c0.694,0.438,2.811,0.895,6.35,1.369
		c0,0.146,0.109,1.679,0.328,4.598c-1.423,3.54-3.539,5.31-6.35,5.31h-2.792c-0.255,0-0.383,0.109-0.383,0.328
		c-6.35-3.284-9.525-6.569-9.525-9.854C40.782,287.155,40.089,283.98,39.578,279.673z M49.212,273.761h0.383
		c0.475-0.073,0.711-0.31,0.711-0.711v-0.712h-1.095c-0.474,0-0.711,0.238-0.711,0.712
		C48.574,273.524,48.812,273.761,49.212,273.761z M56.603,273.05h0.383v-0.712c0-0.474-0.237-0.711-0.712-0.711h-0.711v0.329
		C55.562,272.32,55.91,272.686,56.603,273.05z M67.551,285.038l-0.329,3.503c1.861,4.051,3.376,6.879,4.544,8.485
		c2.555,2.117,5.146,3.175,7.773,3.175v-0.383l0.712,0.383c4.015,0,6.715-2.481,8.102-7.445v-1.04
		c-1.934-6.35-4.16-9.525-6.678-9.525c-1.496-1.642-5.383-2.463-11.66-2.463c0-0.474-0.474-0.711-1.423-0.711
		c-1.058,0.402-1.879,1.114-2.463,2.135v0.329C66.127,281.918,66.602,283.104,67.551,285.038z"/>
	<path fill="#E6E7E8" d="M42.151,206.703c0.183-2.116,1.807-4.853,4.872-8.211c0.913-0.109,1.387-0.292,1.423-0.548l0.657,0.384
		l0.711,0.055l3.23-1.752l2.025,0.493l0.055-0.329l0.657,0.384c0.767-0.365,1.46-0.529,2.081-0.493
		c11.021,0.548,16.568,0.348,16.641-0.602l2.354,0.547c3.139,0.037,5.329,0.109,6.569,0.219c0.109-0.438,0.347-0.638,0.712-0.602
		l2.025,0.547c0.766-0.767,1.241-2.116,1.423-4.051l0.219-2.737c0.109-0.985,1.88-1.514,5.31-1.587
		c1.387,0.109,1.843,2.901,1.368,8.375c-0.547,0.73-0.839,1.405-0.875,2.025c0.766,1.569,1.113,2.865,1.04,3.887l-0.329-0.055
		l0.274,0.712l-0.055,0.712c-0.51,0.511-0.784,0.949-0.821,1.313l0.055,3.12l-0.438,1.313c0.292,1.752,0.438,2.683,0.438,2.792
		c-1.825,0.402-3.011,0.767-3.558,1.095c-1.24-0.109-2.007-0.638-2.299-1.587l0.109-1.04l0.547-2.025
		c-0.438-1.643-1.058-2.5-1.861-2.573c-2.956-0.255-5.255-0.237-6.897,0.055c-1.24-0.328-2.263-0.528-3.065-0.603l-2.737-0.219
		c-0.62-0.072-1.332,0.092-2.135,0.493l-2.354-0.548c-2.08,0.256-3.467,0.365-4.16,0.328l-3.065-0.602
		c-1.678,0.512-2.628,0.767-2.847,0.767c-0.876-0.329-1.66-0.511-2.354-0.548c-1.971-0.182-4.689,1.989-8.156,6.515l-0.219,2.408
		c-0.474,5.292,3.522,9.435,11.988,12.427l1.369,0.492c1.679-0.072,3.212-0.401,4.598-0.985c1.643,0.365,3.084,0.84,4.325,1.424
		c1.022-0.657,4.051-1.076,9.087-1.26c0.402,0.256,0.858,0.402,1.369,0.438c0.402-0.329,2.154-0.748,5.255-1.26
		c0.693-0.911,1.333-2.81,1.916-5.692c1.861-0.767,2.92-1.131,3.175-1.095c0.949,0.073,1.679,2.208,2.189,6.404
		c-0.401,1.935-0.657,3.522-0.766,4.763c-0.073,0.985,0.073,2.025,0.438,3.12l-0.547,2.025c-0.036,0.548,0.073,3.321,0.328,8.32
		c-0.985,0.621-2.409,1.077-4.27,1.369c-0.693-0.511-1.35-0.803-1.971-0.876l-1.04-0.109c0.073-0.657-0.438-1.496-1.533-2.519
		l1.423-0.219l0.165-2.08l0.821-0.931l0.055-0.712c0-0.328-0.528-0.839-1.587-1.532h-0.383c-1.021,0.803-1.97,1.168-2.846,1.095
		l-0.712-0.055c-0.438-0.109-0.638-0.347-0.602-0.712c-2.262,0-3.777,0.328-4.543,0.985l-2.792-0.273
		c-1.459-0.109-2.919-0.347-4.379-0.712c-0.183-0.036-2.281,0.128-6.295,0.493c-0.364-0.036-1.715-0.274-4.051-0.712
		c-1.496,0.475-4.525,0.785-9.087,0.931l-1.149,1.259v0.328c-0.073,0.84,0.292,1.916,1.095,3.23
		c-0.146,1.716-1.533,3.084-4.16,4.105c-2.737-0.255-3.795-3.923-3.175-11.003c0.037-0.364-0.11-1.295-0.438-2.792l0.493-2.025
		c-0.329-0.036-0.638-0.401-0.931-1.095l0.109-1.04c0.037-0.364,0.767-0.767,2.189-1.205c0.402,0.293,0.73,0.438,0.985,0.438
		c1.497-0.328,2.318-0.474,2.463-0.438c0.402,0.256,0.73,0.384,0.985,0.384c0.95-0.255,1.442-0.548,1.478-0.876l0.055-0.712
		l-2.08-0.164c0.109-1.313-1.149-2.683-3.777-4.105c-0.146-1.459-0.712-2.901-1.697-4.324l0.438-0.657
		C42.078,212.816,41.896,209.587,42.151,206.703z M64.595,230.406l0.985,0.109l0.109-1.04l-1.04-0.109L64.595,230.406z
		 M66.62,230.954h0.329c0.475,0,0.711-0.2,0.711-0.603l0.055-0.328c0.037-0.329-0.273-0.712-0.93-1.149h-0.329l-0.055,0.328
		L66.62,230.954z M72.642,205.226l0.712,0.055l0.109-0.985l-0.711-0.055L72.642,205.226z"/>
	<path fill="#E6E7E8" d="M83.535,173.257c0.402-1.715,0.913-2.883,1.533-3.504c1.095-1.021,2.409-1.532,3.941-1.532
		c2.737,0,4.635,1.168,5.693,3.503v1.095c-0.62,2.628-1.496,3.941-2.628,3.941c-0.109,0.876-0.692,1.313-1.751,1.313l-1.533-0.219
		c-0.292,0.146-0.511,0.219-0.657,0.219c-2.919-0.729-4.379-2.335-4.379-4.816H83.535z"/>
	<path fill="#E6E7E8" d="M38.921,130.558c0-8.064,0.95-12.098,2.847-12.098c0-1.752,1.898-4.233,5.693-7.444
		c4.197-2.116,9.27-4.015,15.218-5.693h1.095l2.463,0.383c0.876-0.474,1.826-0.711,2.847-0.711c9.197,0,16.642,3.303,22.334,9.908
		c0.657,0,1.843,2.5,3.558,7.499h-0.328c0.475,0.913,0.711,2.209,0.711,3.887v5.31c0,0.548,0.109,1.022,0.329,1.424
		c-1.131,2.189-2.08,4.672-2.847,7.444c-5.729,5.438-13.302,8.997-22.718,10.675l-2.463-0.383c-1.533,0.475-2.591,0.711-3.175,0.711
		c-4.853-0.911-7.463-1.623-7.828-2.135l-0.711,0.384h-0.712c-5.51-2.7-8.338-4.251-8.485-4.653l-4.653-3.175
		c0-0.949-0.949-3.668-2.847-8.156C39.25,132.493,39.14,131.434,38.921,130.558z M62.351,140.85l1.423-0.712
		c1.752,0.475,2.811,0.712,3.175,0.712l1.751-0.384l2.135,0.384c1.204-0.475,1.806-0.84,1.806-1.095l1.752,0.383h0.383
		c7.773-1.752,11.66-3.412,11.66-4.981c2.627-2.007,3.941-4.489,3.941-7.445c-0.729-6.167-2.627-9.251-5.693-9.251
		c-1.167,0-1.752-0.474-1.752-1.423h-2.518c-1.277,0-3.047-0.347-5.31-1.04c-0.985,0-2.28,0.109-3.887,0.328
		c-0.766-0.474-1.478-0.712-2.135-0.712c-1.131,0-1.952,0.365-2.463,1.095l-4.27-0.711c-1.24,0.876-4.325,1.696-9.251,2.463
		c-5.438,2.154-8.156,5-8.156,8.54v1.423c0,6.131,2.007,9.196,6.021,9.196c0.875,1.205,3.96,2.154,9.251,2.847
		C61.457,140.722,62.168,140.85,62.351,140.85z"/>
	<path fill="#E6E7E8" d="M38.757,63.61c1.241-6.021,5.31-9.033,12.208-9.033c3.687,1.132,5.529,3.103,5.529,5.912
		c0,2.628-1.149,5.183-3.449,7.664c-2.518-0.255-4.835-0.729-6.952-1.423c0,0.219-0.127,0.328-0.383,0.328
		c0.547,2.336,4.489,5.237,11.824,8.704c2.92,0.475,5.821,1.059,8.704,1.752h1.041c0.255,0,1.88-0.347,4.872-1.04l1.423,0.711
		c2.044-0.219,3.321-0.328,3.832-0.328c2.883,0.219,4.508,0.328,4.872,0.328c2.846-0.911,4.343-1.732,4.489-2.463v-4.489
		c0-2.335,1.515-3.503,4.543-3.503c2.08,0,3.12,4.069,3.12,12.207c0.256,0,0.493,0.348,0.712,1.04l-0.329,1.368l0.329,1.752
		c0,0.329-0.237,1.606-0.712,3.832l0.383,2.408c0,4.892-1.277,7.336-3.832,7.336h-1.423c-1.021-0.767-1.824-3.559-2.408-8.376
		c-1.678-0.839-3.777-1.404-6.295-1.696c-0.219,0-0.565,0.109-1.04,0.328c-2.372-0.219-4.215-0.328-5.529-0.328
		c-2.883,0.219-4.397,0.328-4.543,0.328l-0.712-0.328l-7.664,0.656l-1.752-0.328c-2.299,0.183-3.449,0.42-3.449,0.712l-0.711-0.384
		c-5.547,0-8.321,0.931-8.321,2.792v2.792l0.657,2.408c0,1.643-1.277,2.464-3.832,2.464c-1.35,0-2.39-3.357-3.121-10.072
		c-0.219,0-0.328-0.237-0.328-0.712c0-0.511,0.109-0.985,0.328-1.423c-0.219-1.24-0.328-2.28-0.328-3.121v-1.751
		c0.146-1.387,0.493-2.08,1.04-2.08H43.3c0.95,0,1.88,0.128,2.792,0.383c0.876-0.255,1.789-0.383,2.737-0.383h1.423v-1.04
		c-2.956-0.985-5.857-3.193-8.704-6.624c-1.643-1.788-2.463-3.412-2.463-4.872v-2.08C39.085,63.72,38.976,63.61,38.757,63.61z
		 M67.989,85.178H68.7v-1.04h-1.423v0.329C67.351,84.941,67.587,85.178,67.989,85.178z"/>
	<path fill="#E6E7E8" d="M36.075,15.383c0-4.524,2.062-6.788,6.186-6.788c2.737,0.584,4.105,2.555,4.105,5.912
		c0,0.402-0.985,1.278-2.956,2.628v1.478c0,0.402,0.311,0.603,0.931,0.603c2.592-2.153,5.529-3.229,8.813-3.229
		c0,0.401,0.292,0.602,0.876,0.602c0.219,0,0.511-0.109,0.876-0.328c3.649,0.512,6.788,1.897,9.416,4.16
		c2.701,4.27,4.471,7.992,5.31,11.167c0,0.184-0.09,0.274-0.273,0.274c0.183,2.299,0.273,3.978,0.273,5.036v1.478
		c0.803,3.504,2.373,5.255,4.708,5.255c1.569,0,2.354-1.951,2.354-5.856v-2.081c0-0.656-0.292-1.732-0.876-3.229
		c0-0.291,0.201-1.167,0.602-2.627c0-0.146-0.109-0.748-0.329-1.807l0.329-2.025c-0.401-1.788-0.602-3.065-0.602-3.832v-1.479
		c0-0.182-0.091-0.273-0.274-0.273c1.716-5.693,3.175-8.54,4.379-8.54c0-0.656,2.263-1.058,6.788-1.204h2.956
		c0.183,0,0.273-0.091,0.273-0.273c3.941,1.241,6.879,3.485,8.813,6.733c2.372,4.453,3.558,9.069,3.558,13.85
		c0.401,0,0.602,0.201,0.602,0.602v1.149c0,0.841,0.091,1.625,0.274,2.354c-1.205,9.817-3.65,14.726-7.335,14.726
		c0,0.219-0.693,0.42-2.08,0.602c-3.175,0-6.222-2.262-9.142-6.788c-1.423,3.723-4.27,5.584-8.54,5.584h-0.875
		c-4.708-1.752-7.062-3.613-7.062-5.584c-0.401,0-0.602-0.383-0.602-1.149h-0.876c0,1.533-1.952,3.485-5.857,5.857
		c-2.081,0.584-3.156,0.876-3.23,0.876c-1.971,0-4.342,0.109-7.116,0.328c-3.613-1.167-5.967-2.646-7.062-4.434
		c-1.35,0-2.919-3.229-4.708-9.689l0.329-0.602c0-0.803-0.11-1.588-0.329-2.354c0.219-0.767,0.329-1.551,0.329-2.354
		c0-0.146-0.11-0.729-0.329-1.752c1.569-3.028,2.354-5.091,2.354-6.186C37.736,19.361,36.075,17.099,36.075,15.383z M55.234,41.604
		c1.095-0.583,2.263-0.875,3.503-0.875v0.273c4.891-1.679,7.335-4.435,7.335-8.267c0-3.94-1.66-6.477-4.981-7.608
		c-1.277-0.401-3.54-0.712-6.788-0.931c-4.014,0-7.445,1.771-10.291,5.31c-0.182,1.68-0.274,3.048-0.274,4.105
		c0,4.197,2.646,6.661,7.938,7.391C52.188,41.002,53.373,41.203,55.234,41.604z M84.356,28.904
		c-0.219,1.313-0.329,2.591-0.329,3.831l0.329,1.807c-0.219,0.293-0.329,0.876-0.329,1.752c0,1.388,1.278,3.048,3.832,4.981
		l0.602-0.273h0.602c0,1.168,0.876,1.952,2.628,2.354c3.722-0.948,5.583-3.011,5.583-6.186l0.329-1.752
		c-0.219-0.802-0.329-1.496-0.329-2.08l0.602-1.149l-0.273-1.807l0.273-2.901c-1.898-6.679-3.85-10.018-5.857-10.018l-1.478,0.273
		l-1.478-0.273c-3.138,0.621-4.708,2.189-4.708,4.708c0,0.475-0.2,0.967-0.602,1.478v1.149
		C83.754,26.076,83.955,27.444,84.356,28.904z"/>
</g>
</svg>
