<?xml version="1.0" encoding="utf-8"?>
<!-- Generator: Adobe Illustrator 15.0.0, SVG Export Plug-In  -->
<!DOCTYPE svg PUBLIC "-//W3C//DTD SVG 1.1//EN" "http://www.w3.org/Graphics/SVG/1.1/DTD/svg11.dtd" [
	<!ENTITY ns_flows "http://ns.adobe.com/Flows/1.0/">
]>
<svg version="1.1"
	 xmlns="http://www.w3.org/2000/svg" xmlns:xlink="http://www.w3.org/1999/xlink" xmlns:a="http://ns.adobe.com/AdobeSVGViewerExtensions/3.0/"
	 x="0px" y="0px" width="200px" height="50px" viewBox="0 0 200 50" overflow="visible" enable-background="new 0 0 200 50"
	 xml:space="preserve">
<defs>
</defs>
<g>
	<path fill="#3C3C3B" d="M0,26.026h0.551c0,0.137-0.138,0.283-0.413,0.436L0,26.163V26.026z M13.219,16.707h0.574
		c0.397,0,0.673,1.951,0.826,5.853c-0.092,0.505-0.138,0.872-0.138,1.102h0.138c0,0.49-0.467,0.772-1.4,0.849
		c0-1.07-1.063-2.601-3.19-4.59c-0.459,0-1.063-0.145-1.813-0.436c-2.326,0-3.81,0.696-4.452,2.088
		c0.184,0.612,0.275,1.033,0.275,1.263v0.413c1.331,1.117,2.073,1.676,2.226,1.676l0.964-0.139c1.622,0.734,2.463,1.102,2.524,1.102
		c0.092,0,0.229-0.045,0.413-0.137c3.09,0.52,4.712,1.215,4.865,2.088c1.025,1.086,1.538,1.828,1.538,2.227v1.262
		c0.229,0.811,0.459,1.369,0.688,1.676c-0.26,0.381-0.673,1.398-1.239,3.051c-0.627,1.225-1.14,1.875-1.538,1.951
		c-0.521,0.75-1.17,1.125-1.951,1.125h-0.413c-0.092,0-0.138-0.047-0.138-0.139l-1.125,0.414c-2.02-0.23-3.825-0.65-5.416-1.262
		c-0.888,1.207-1.583,1.812-2.088,1.812H2.915c-0.734-0.627-1.102-1.416-1.102-2.363h0.138v-0.551l-0.688-0.139v-0.16l0.275-0.414
		c0-0.184-0.467-0.504-1.4-0.963v-0.414H1.4v-0.297c0-0.199-0.046-0.383-0.138-0.551C1.354,33.95,1.4,33.766,1.4,33.553
		c-0.291,0-0.436-0.092-0.436-0.275c0.474-0.367,0.711-0.789,0.711-1.264C1.492,31.725,1.4,31.495,1.4,31.327
		c0.459-0.459,0.964-0.789,1.515-0.986c0.336,0.092,1.178,1.346,2.524,3.764c1.423,1.561,2.532,2.439,3.328,2.639h0.688
		c1.928,0,3.32-0.643,4.177-1.928l-0.138-0.574l0.436-2.363c0-0.934-1.997-1.629-5.99-2.088l-1.262,0.137
		c-0.245-0.045-0.757-0.32-1.538-0.826c-0.49,0-1.086-0.283-1.79-0.85l-0.987,0.162V28.25l0.275-0.412v-0.275
		c0-0.199-0.604-0.611-1.813-1.24L0.688,25.75c0.184-0.092,0.329-0.139,0.436-0.139c0-0.459-0.1-0.688-0.298-0.688
		c0.092-0.184,0.138-0.322,0.138-0.414v-0.137H0.826v0.275C0.658,24.557,0.52,24.51,0.413,24.51v-0.137
		c0.275-0.353,0.413-0.681,0.413-0.987l-0.138-0.964c0.291,0,0.436-0.191,0.436-0.574L0.964,21.16
		c0.52-1.087,1.079-1.966,1.675-2.64c0.397-0.673,1.882-1.231,4.452-1.675c0.306,0.184,0.589,0.275,0.849,0.275v-0.139l0.275,0.139
		l0.826-0.139c0,0.139,0.558,0.322,1.675,0.551c0,0.077,0.229,0.223,0.688,0.437h0.298C12.377,17.129,12.882,16.707,13.219,16.707z"
		/>
	<path fill="#3C3C3B" d="M26.575,7.711h0.138c0.52,0,0.895,0.422,1.125,1.263C27.746,9.157,27.7,9.295,27.7,9.387
		c0,0.321,0.046,0.559,0.138,0.711c-0.092,0.643-0.138,1.156-0.138,1.538v1.124c0,0.092,0.046,0.139,0.138,0.139
		c-0.184,0.474-0.275,0.849-0.275,1.124c0.184,1.071,0.321,2.143,0.413,3.213h1.974l1.951-0.413l0.275,0.138l0.849-0.138
		c0.75,0.536,1.125,1.193,1.125,1.974c-0.321,0.842-1.163,1.263-2.524,1.263c0-0.199-0.092-0.299-0.275-0.299
		c-0.123,0-0.589,0.046-1.4,0.138l-0.574-0.138c-0.826,0-1.339,0.75-1.538,2.249c0.092,0.888,0.138,1.729,0.138,2.524v0.413
		l0.436,1.974c-0.077,0.199-0.176,0.711-0.298,1.537c0.092,0.766,0.375,2.027,0.849,3.787c-0.092,0.504-0.138,0.926-0.138,1.262
		c0.413,1.408,0.925,2.111,1.538,2.111l1.4,0.139c0.933-0.643,1.4-2.189,1.4-4.637c0-0.152-0.092-0.436-0.275-0.85
		c0-0.58,0.658-0.994,1.974-1.238c0.734,0.795,1.102,1.912,1.102,3.35c-0.092,0.154-0.138,0.391-0.138,0.713h0.138
		c-0.367,1.729-0.788,2.754-1.262,3.074c-0.796,1.867-1.683,2.801-2.662,2.801c-0.275,0.168-1.117,0.496-2.524,0.986h-0.551
		c-2.524-0.842-3.787-1.5-3.787-1.975c0-0.184-0.092-0.275-0.275-0.275v-0.688c-0.367-1.057-0.559-2.18-0.574-3.373
		c0-0.078,0.046-0.451,0.138-1.125c-0.184-1.791-0.275-3.145-0.275-4.062l0.138-2.248c-0.092-0.506-0.138-0.926-0.138-1.263
		c0.092-0.505,0.138-0.88,0.138-1.124c-0.444-2.311-0.765-3.52-0.964-3.627h-2.111c-0.521,0-0.941-0.42-1.262-1.262
		c0-0.979,1.025-1.683,3.075-2.111c0-0.184,0.145-0.275,0.436-0.275v-0.85c1.025-1.713,1.538-2.784,1.538-3.213v-0.849
		c0-0.092-0.046-0.138-0.138-0.138c0.184-0.336,0.275-0.711,0.275-1.125c0-0.061-0.046-0.665-0.138-1.812
		C25.695,7.995,26.208,7.711,26.575,7.711z"/>
	<path fill="#3C3C3B" d="M52.301,16.593c4.528,0.459,6.793,1.193,6.793,2.203c0.704,0.75,1.056,1.836,1.056,3.259l-0.298,3.856
		c0.092,0.934,0.138,1.965,0.138,3.098c0,0.215-0.046,0.758-0.138,1.629h0.138c-0.092,0.184-0.138,0.33-0.138,0.438
		c0.291,0.887,0.436,1.629,0.436,2.225v1.332c0,0.734,0.688,1.225,2.065,1.469l0.734-0.436h0.161c0.122,0,0.367,0.244,0.734,0.734
		c0,1.346-0.788,2.332-2.364,2.959c-0.413,0-0.957,0.146-1.629,0.438c-2.065-0.354-3.098-0.842-3.098-1.469
		c-0.597-0.475-0.895-1.117-0.895-1.928h-0.298c-1.239,1.285-3.504,2.416-6.793,3.396c-3.244,0-5.363-1.631-6.357-4.889
		c0-2.801,0.841-4.666,2.524-5.6c0.505-0.75,1.981-1.445,4.429-2.088l0.436-0.574l0.734,0.137c0.107,0,0.26-0.045,0.459-0.137
		l0.872,0.137h0.161c0.551-0.488,1.828-0.879,3.833-1.17c0-0.535,0.145-0.879,0.436-1.032c-0.275-3.351-0.865-5.026-1.767-5.026
		c0-0.152-0.291-0.404-0.872-0.757c-3.06,0-4.59,0.345-4.59,1.032c-0.138,0-0.283,0.153-0.436,0.459v0.437l0.138,0.896
		c-0.092,0.168-0.138,0.359-0.138,0.573c0.092,0.307,0.184,0.459,0.275,0.459c-0.184,0.291-0.375,1.179-0.574,2.662
		c-0.062,0-0.704,0.046-1.928,0.138c-1.484-0.597-2.226-1.483-2.226-2.662v-1.17c0-0.107-0.046-0.161-0.138-0.161
		c1.377-2.662,2.754-3.993,4.131-3.993C49.165,17.098,50.496,16.808,52.301,16.593z M50.052,28.321l-1.469-0.139
		c-1.698,0.781-2.884,1.416-3.557,1.904c-0.888,1.072-1.331,2.158-1.331,3.26h0.161l-0.161,0.299c0,1.682,1.04,2.814,3.121,3.396
		h0.436c2.662-0.812,3.993-1.744,3.993-2.801c0.688-0.627,1.033-2.256,1.033-4.889c0.199,0,0.298-0.197,0.298-0.596
		c-0.168-0.443-0.467-0.789-0.895-1.033h-0.138C51.36,27.723,50.863,27.922,50.052,28.321z M54.78,20.632v0.161
		c0.03,0.198,0.13,0.298,0.298,0.298h0.298v-0.459c0-0.198-0.1-0.298-0.298-0.298C54.879,20.364,54.78,20.464,54.78,20.632z
		 M55.078,23.73v0.16h0.298c0.199,0,0.298-0.1,0.298-0.299v-0.298h-0.138C55.384,23.294,55.231,23.439,55.078,23.73z"/>
	<path fill="#3C3C3B" d="M83.65,7.482c0.688,0.352,1.01,0.856,0.964,1.514l-0.275,2.111l0.367,2.181
		c-0.168,0.016-0.26,0.092-0.275,0.229l-0.069,0.941c0.168,0.229,0.245,0.412,0.229,0.551l-0.298,0.504
		c-0.123,1.791,0.023,4.2,0.436,7.229l-0.184,0.505c0.076,3.413,0.207,5.377,0.39,5.899H84.82c0.061,1.207,0.184,1.928,0.367,2.156
		l-0.138,0.252l-0.023,0.391c-0.062,0.795,0.038,1.828,0.298,3.098l-0.184,0.781c0.459,0.566,0.971,0.863,1.538,0.895
		c0.199,0.016,0.382-0.016,0.551-0.092c0.872,0.215,1.285,0.643,1.239,1.285l-0.092,1.193c-0.062,0.291-0.742,0.559-2.042,0.803
		l-0.023,0.139l-0.757-0.459c-0.979,0.016-1.829,0.129-2.547,0.344c-1.071-0.076-1.652-0.734-1.744-1.973
		c-0.107-0.367-0.222-0.551-0.344-0.551l-0.321,0.504h0.138c-0.796,0.781-2.219,1.484-4.269,2.111l-0.941-0.068
		c-1.438-0.092-2.77-0.719-3.993-1.883c-1.255-0.703-2.295-2.99-3.121-6.861c-0.153-0.398-0.245-0.941-0.275-1.629
		c0-0.092,0.053-0.223,0.161-0.391c-0.016-0.887-0.077-1.33-0.184-1.33l0.161-0.275l0.046-0.643c0-0.092-0.046-0.146-0.138-0.162
		c0.015-0.152,0.283-0.795,0.803-1.927l-0.138-0.022c0.933-2.602,1.736-3.879,2.41-3.833c0.061-0.841,1.484-1.538,4.269-2.089
		l0.666,0.161c0.489-0.046,0.841-0.061,1.056-0.046c1.04,0.077,1.889,0.619,2.547,1.629l0.803,0.069v-0.138
		c0.046-0.459,0.03-0.856-0.046-1.193c0.122-0.489,0.191-0.841,0.207-1.056c-0.062-2.585-0.191-3.886-0.39-3.901l0.184-0.643
		c0.046-0.688-0.1-1.231-0.436-1.629l0.184-0.666c-0.352-0.551-0.727-0.841-1.125-0.872l-0.941-0.069
		c-0.245-0.015-0.513,0.055-0.803,0.207c-0.597-0.321-0.888-0.604-0.872-0.85c-0.092-0.152-0.123-0.374-0.092-0.665l0.023-0.275
		c0.015-0.321,0.833-0.62,2.456-0.896l0.918,0.207C80.292,8.041,81.554,7.772,83.65,7.482z M72.405,27.403
		c0.245,3.502,0.734,5.98,1.469,7.436c0.933,1.498,1.912,2.248,2.938,2.248h0.252c0.092,0,0.138-0.037,0.138-0.115
		c0.291,0.17,0.558,0.254,0.803,0.254h0.528c1.774-0.705,2.662-2.035,2.662-3.994c0.092-0.902,0.176-1.43,0.252-1.584
		c-0.107-1.881-0.237-3.166-0.39-3.855l0.138-0.275c-0.643-3.089-1.262-4.635-1.859-4.635c0-0.734-0.888-1.224-2.662-1.469
		c-2.402,0.688-3.603,1.622-3.603,2.8C72.825,24.579,72.604,25.643,72.405,27.403z"/>
	<path fill="#3C3C3B" d="M96.364,7.711h0.138c0.52,0,0.895,0.422,1.125,1.263c-0.092,0.184-0.138,0.321-0.138,0.413
		c0,0.321,0.046,0.559,0.138,0.711c-0.092,0.643-0.138,1.156-0.138,1.538v1.124c0,0.092,0.046,0.139,0.138,0.139
		c-0.184,0.474-0.275,0.849-0.275,1.124c0.184,1.071,0.321,2.143,0.413,3.213h1.974l1.951-0.413l0.275,0.138l0.849-0.138
		c0.75,0.536,1.125,1.193,1.125,1.974c-0.321,0.842-1.163,1.263-2.524,1.263c0-0.199-0.092-0.299-0.275-0.299
		c-0.123,0-0.589,0.046-1.4,0.138l-0.574-0.138c-0.826,0-1.339,0.75-1.538,2.249c0.092,0.888,0.138,1.729,0.138,2.524v0.413
		L98.2,26.92c-0.077,0.199-0.176,0.711-0.298,1.537c0.092,0.766,0.375,2.027,0.849,3.787c-0.092,0.504-0.138,0.926-0.138,1.262
		c0.413,1.408,0.925,2.111,1.538,2.111l1.4,0.139c0.933-0.643,1.4-2.189,1.4-4.637c0-0.152-0.092-0.436-0.275-0.85
		c0-0.58,0.658-0.994,1.974-1.238c0.734,0.795,1.102,1.912,1.102,3.35c-0.092,0.154-0.138,0.391-0.138,0.713h0.138
		c-0.367,1.729-0.788,2.754-1.262,3.074c-0.796,1.867-1.683,2.801-2.662,2.801c-0.275,0.168-1.117,0.496-2.524,0.986H98.75
		c-2.524-0.842-3.787-1.5-3.787-1.975c0-0.184-0.092-0.275-0.275-0.275v-0.688c-0.367-1.057-0.559-2.18-0.574-3.373
		c0-0.078,0.046-0.451,0.138-1.125c-0.184-1.791-0.275-3.145-0.275-4.062l0.138-2.248c-0.092-0.506-0.138-0.926-0.138-1.263
		c0.092-0.505,0.138-0.88,0.138-1.124c-0.444-2.311-0.765-3.52-0.964-3.627H91.04c-0.521,0-0.941-0.42-1.262-1.262
		c0-0.979,1.025-1.683,3.075-2.111c0-0.184,0.145-0.275,0.436-0.275v-0.85c1.025-1.713,1.538-2.784,1.538-3.213v-0.849
		c0-0.092-0.046-0.138-0.138-0.138c0.184-0.336,0.275-0.711,0.275-1.125c0-0.061-0.046-0.665-0.138-1.812
		C95.484,7.995,95.997,7.711,96.364,7.711z"/>
	<path fill="#3C3C3B" d="M115.389,8.01l1.216,0.092c0.168,0.016,0.245,0.16,0.23,0.436c0,0.092-0.047,0.131-0.139,0.115l0.092,0.551
		c-0.137,0.643-0.214,1.002-0.229,1.078l0.092,0.551l-0.184,0.666l0.229,0.551h-0.137c0.061,0.215,0.106,0.812,0.137,1.79
		c-0.32,0.628-0.489,1.018-0.504,1.171l0.573,1.399l-0.184,0.665l-0.138,1.768c-0.046,0.643-0.023,2.097,0.068,4.36
		c-0.092,0.123-0.16,0.39-0.206,0.804c0.138,0.596,0.198,1.01,0.184,1.238v0.139c-0.03,0.368-0.114,0.856-0.253,1.469
		c0.199,0.871,0.291,1.377,0.275,1.514c0.689,0.061,1.706-0.766,3.053-2.479c0.03-0.229,0.321-0.436,0.872-0.62
		c0.397-0.78,0.88-1.147,1.446-1.102c0.198-0.198,0.436-0.91,0.711-2.135c-0.78-0.412-1.4-0.643-1.859-0.688
		c0,0.152-0.191,0.32-0.573,0.504h-0.138c-0.352-0.152-0.505-0.573-0.459-1.262c0.03-0.321,0.191-0.581,0.482-0.78l0.252,0.161
		c0.902,0.061,1.361,0,1.377-0.184l0.252,0.16l6.564-0.16l0.527,0.045c0.627,0.047,0.918,0.383,0.872,1.01l-0.022,0.414
		c-0.047,0.535-0.345,0.871-0.896,1.01c-0.077,0-0.437-0.069-1.079-0.207c-1.193,0.153-2.379,0.78-3.557,1.882
		c-0.062,0.505-0.788,1.133-2.18,1.882c-0.414,0.596-0.628,1.033-0.643,1.309c1.07,1.545,2.371,3.549,3.9,6.012
		c0.842,0.795,1.24,1.461,1.193,1.996c-0.336,0.016-0.619,0.176-0.849,0.482l0.114,0.275c0.139,0.016,0.467-0.184,0.987-0.596
		c0.719,1.115,1.751,1.836,3.099,2.156l0.551,0.023c0.092,0.016,0.137-0.023,0.137-0.115c0.49,0.031,0.758,0.689,0.804,1.975
		c-0.03,0.443-0.995,0.596-2.892,0.459c-2.127-0.262-3.336-0.49-3.626-0.689c-0.107,0.26-0.383,0.375-0.826,0.344l-0.688-0.068
		c0.061-0.658,0.512-1.162,1.354-1.514l0.023-0.414l-0.252-0.16l0.184-0.666v-0.137c-0.092,0-0.223-0.055-0.391-0.162
		c-0.168,0.078-0.352,0.107-0.551,0.092h-0.138l0.046-0.412c0.184-0.199,0.291-0.467,0.321-0.803l0.275,0.021
		c-0.03,0.459,0.038,0.697,0.206,0.713h0.139l0.688-0.07l0.023-0.275l-0.275-0.021l0.023-0.275c0.015-0.107,0.305-0.314,0.871-0.621
		c0-0.076-0.298-0.367-0.895-0.871c-0.168-0.016-0.268,0.152-0.299,0.504l-0.94-0.205l-0.161,0.275
		c0.076,0.184,0.115,0.32,0.115,0.412c-0.184,0.016-0.283,0.1-0.299,0.252l0.092,0.689l-0.137-0.023
		c-0.643-0.045-1.913-1.867-3.811-5.461c-0.076,0-0.114-0.047-0.114-0.139v-0.137l0.161-0.275c-0.307-0.291-0.613-0.445-0.918-0.459
		l-0.139-0.023c-1.346,1.102-2.042,1.912-2.088,2.432c0,0.092,0.046,0.139,0.138,0.139l-0.161,0.252
		c-0.122,1.516-0.022,2.617,0.299,3.305c-0.215,0.275-0.329,0.535-0.344,0.781l-0.047,0.688c-0.03,0.383,0.719,0.666,2.25,0.85
		v-0.139c0.428,0.031,0.665,0.459,0.711,1.285c-0.031,0.49-0.413,0.727-1.147,0.713l-0.528-0.162
		c-3.564,0.17-5.607,0.238-6.127,0.207l-0.803-0.207c-0.016,0.139-0.215,0.307-0.597,0.506c-0.627-0.49-0.956-0.881-0.987-1.17
		c0.062-0.797,0.329-1.363,0.803-1.699l0.826,0.047c0.811,0.061,1.247-0.314,1.309-1.125c0.352-1.057,0.535-1.721,0.551-1.996
		l-0.184-0.965c0.122-0.475,0.199-0.871,0.229-1.193c-0.153-0.307-0.229-0.543-0.229-0.711c0.475-0.781,0.826-1.162,1.056-1.148
		l0.022-0.252c-0.459-1.162-0.665-1.996-0.619-2.502l-0.299-1.652l0.184-0.528c-0.016-0.643-0.084-0.971-0.206-0.986l0.161-0.252
		l0.092-1.217l-0.345-0.711c0.214-0.521,0.405-1.277,0.573-2.272c-0.214-0.643-0.313-1.102-0.298-1.377l0.184-0.665
		c-0.153-0.734-0.261-1.102-0.321-1.102c0.229-0.551,0.352-0.91,0.367-1.079c-0.199-2.906-0.451-4.375-0.758-4.406l-0.504-0.437
		l-0.275-0.022c-0.903,0.107-1.4,0.153-1.492,0.138c-0.521-0.367-0.75-0.926-0.688-1.676c0.948-0.749,2.509-1.04,4.682-0.871
		c0.153,0.106,0.329,0.168,0.528,0.184C114.86,8.063,115.144,7.995,115.389,8.01z M115.55,19.852l-0.023,0.275l0.413,0.046
		l0.022-0.275L115.55,19.852z M117.431,28.985l-0.022,0.139c0.015,0.184,0.099,0.283,0.253,0.299h0.137l0.047-0.391L117.431,28.985z
		 M119.772,28.618l-0.047,0.551c0.275,0.566,0.482,0.857,0.62,0.873l0.437-0.527c-0.43-0.307-0.628-0.59-0.598-0.85L119.772,28.618z
		 M120.483,28.274l-0.023,0.275c0.016,0.184,0.223,0.383,0.62,0.598c0.198-0.322,0.489-0.529,0.872-0.621
		c-0.062-0.367-0.229-0.564-0.505-0.596C120.988,28.174,120.667,28.29,120.483,28.274z M121.86,38.579l0.275,0.023
		c0.168,0.045,0.244,0.145,0.229,0.297v0.275c-0.459-0.045-0.696,0.023-0.712,0.207c-0.352-0.152-0.52-0.299-0.504-0.436
		C121.593,38.977,121.829,38.854,121.86,38.579z M121.218,37.981l0.413,0.047c-0.016,0.184-0.114,0.268-0.298,0.252l-0.139-0.023
		L121.218,37.981z M124.224,32.52c-0.016,0.168-0.068,0.252-0.16,0.252c0.076,0.643,0.191,0.973,0.344,0.986l0.689-0.092
		l0.045-0.551l-0.551-0.021c0.031-0.367-0.045-0.559-0.229-0.574H124.224z M124.431,38.647l-0.023,0.275l0.414,0.023l0.022-0.275
		L124.431,38.647z M128.171,11.039c0.367,0.077,0.551,0.169,0.551,0.275v0.184c-0.244,0.628-0.367,1.025-0.367,1.193
		c-0.795-0.428-1.193-0.826-1.193-1.193v-0.092C127.161,11.223,127.498,11.101,128.171,11.039z"/>
	<path fill="#3C3C3B" d="M141.022,8.4c0.551,0,0.949,0.222,1.193,0.665v1.722c0.275,0.336,0.414,0.65,0.414,0.94v0.275l-0.275,0.39
		v0.551c0,0.383,0.092,0.734,0.275,1.057c-0.184,0.367-0.275,0.635-0.275,0.803c0,0.199,0.092,1.002,0.275,2.41
		c-0.184,0.352-0.275,0.665-0.275,0.94c0,0.092,0.045,0.138,0.137,0.138l-0.137,0.666v2.662c0,0.719,0.137,1.3,0.412,1.744
		c-0.275,0.443-0.412,0.795-0.412,1.055c0.275,1.333,0.412,2.088,0.412,2.272l-0.275,0.551l0.139,1.332
		c0,0.215-0.047,0.566-0.139,1.055c0.092,0.766,0.139,1.393,0.139,1.883c0,0.307-0.047,1.062-0.139,2.271
		c0.245,0.857,0.421,1.301,0.528,1.332c-0.169,0.32-0.253,0.68-0.253,1.078c0,0.627,0.352,0.941,1.057,0.941h1.605
		c0.23,0,0.451,0.443,0.666,1.33c-0.199,0.795-0.421,1.193-0.666,1.193h-1.881l-0.781,0.139c-0.336-0.184-0.695-0.275-1.078-0.275
		h-0.527c-0.246,0-0.514,0.092-0.804,0.275c-0.459-0.184-0.772-0.275-0.94-0.275c-0.107,0-0.551,0.045-1.332,0.137
		c-1.055-0.092-1.812-0.137-2.271-0.137v-0.529c0-0.197-0.046-0.375-0.138-0.527c0-0.504,0.849-0.91,2.548-1.217
		c0.26,0,0.436-0.619,0.527-1.857l-0.275-0.529c0.184-0.305,0.321-1.109,0.413-2.408l-0.138-1.332l0.138-1.217l-0.275-0.664
		c0.092-0.17,0.138-0.299,0.138-0.391c-0.184-0.566-0.275-1.018-0.275-1.354c0.092-0.262,0.184-0.391,0.275-0.391l-0.138-1.217
		c0-0.184,0.046-0.673,0.138-1.469l-0.138-0.252c0.092-0.152,0.138-0.336,0.138-0.551l-0.138-0.78l0.275-1.744
		c-0.169-0.811-0.306-1.216-0.413-1.216c0.184-0.322,0.275-0.72,0.275-1.193c-0.184-0.566-0.275-0.88-0.275-0.941
		c0.092-0.26,0.184-0.391,0.275-0.391l-0.138-1.33v-0.804l-0.39-0.665l0.114-0.275l-0.114-0.666l0.114-1.606
		c-0.046-0.244-0.269-0.467-0.665-0.665h-0.253l-1.354,0.137c0-0.106-0.352-0.29-1.055-0.551l-0.139-0.665
		C134.872,9.387,136.923,8.768,141.022,8.4z"/>
	<path fill="#3C3C3B" d="M160.806,16.593c4.527,0.459,6.793,1.193,6.793,2.203c0.703,0.75,1.055,1.836,1.055,3.259l-0.298,3.856
		c0.092,0.934,0.138,1.965,0.138,3.098c0,0.215-0.046,0.758-0.138,1.629h0.138c-0.092,0.184-0.138,0.33-0.138,0.438
		c0.29,0.887,0.437,1.629,0.437,2.225v1.332c0,0.734,0.688,1.225,2.064,1.469l0.734-0.436h0.161c0.122,0,0.367,0.244,0.734,0.734
		c0,1.346-0.788,2.332-2.364,2.959c-0.412,0-0.956,0.146-1.629,0.438c-2.065-0.354-3.098-0.842-3.098-1.469
		c-0.598-0.475-0.896-1.117-0.896-1.928h-0.298c-1.24,1.285-3.504,2.416-6.793,3.396c-3.244,0-5.363-1.631-6.357-4.889
		c0-2.801,0.842-4.666,2.524-5.6c0.505-0.75,1.981-1.445,4.429-2.088l0.437-0.574l0.734,0.137c0.106,0,0.26-0.045,0.459-0.137
		l0.872,0.137h0.16c0.551-0.488,1.828-0.879,3.833-1.17c0-0.535,0.146-0.879,0.437-1.032c-0.275-3.351-0.865-5.026-1.768-5.026
		c0-0.152-0.291-0.404-0.872-0.757c-3.06,0-4.59,0.345-4.59,1.032c-0.138,0-0.283,0.153-0.437,0.459v0.437l0.139,0.896
		c-0.092,0.168-0.139,0.359-0.139,0.573c0.092,0.307,0.184,0.459,0.275,0.459c-0.184,0.291-0.375,1.179-0.573,2.662
		c-0.062,0-0.704,0.046-1.928,0.138c-1.484-0.597-2.226-1.483-2.226-2.662v-1.17c0-0.107-0.047-0.161-0.139-0.161
		c1.377-2.662,2.754-3.993,4.131-3.993C157.669,17.098,158.999,16.808,160.806,16.593z M158.556,28.321l-1.469-0.139
		c-1.697,0.781-2.884,1.416-3.557,1.904c-0.888,1.072-1.331,2.158-1.331,3.26h0.161l-0.161,0.299c0,1.682,1.04,2.814,3.121,3.396
		h0.437c2.662-0.812,3.992-1.744,3.992-2.801c0.689-0.627,1.033-2.256,1.033-4.889c0.199,0,0.299-0.197,0.299-0.596
		c-0.169-0.443-0.467-0.789-0.896-1.033h-0.138C159.864,27.723,159.366,27.922,158.556,28.321z M163.284,20.632v0.161
		c0.029,0.198,0.129,0.298,0.298,0.298h0.298v-0.459c0-0.198-0.1-0.298-0.298-0.298C163.383,20.364,163.284,20.464,163.284,20.632z
		 M163.582,23.73v0.16h0.298c0.199,0,0.299-0.1,0.299-0.299v-0.298h-0.138C163.888,23.294,163.735,23.439,163.582,23.73z"/>
	<path fill="#3C3C3B" d="M191.396,17.672c0.887,0.076,2.034,0.757,3.442,2.042c0.046,0.383,0.122,0.582,0.229,0.597l-0.16,0.275
		l-0.023,0.299l0.734,1.354l-0.207,0.85l0.139,0.022l-0.161,0.275c0.152,0.321,0.222,0.612,0.206,0.872
		c-0.229,4.622-0.146,6.946,0.253,6.977l-0.229,0.986c-0.016,1.316-0.046,2.234-0.092,2.754c0.184,0.047,0.268,0.146,0.252,0.299
		l-0.229,0.85c0.32,0.32,0.887,0.52,1.697,0.596l1.148,0.092c0.412,0.047,0.634,0.789,0.665,2.227
		c-0.046,0.582-1.216,0.771-3.511,0.574c-0.307-0.23-0.59-0.354-0.85-0.367c-0.658,0.32-1.201,0.467-1.629,0.436l0.022-0.139
		l-0.298,0.115l-0.299-0.023c-0.215-0.213-0.398-0.328-0.551-0.344l-1.309,0.023l-0.551-0.184c-0.734,0.123-1.124,0.184-1.17,0.184
		c-0.169-0.766-0.321-1.262-0.459-1.492c0.046-0.52,0.268-0.842,0.666-0.963l0.436,0.045l0.85,0.23
		c0.688-0.184,1.047-0.445,1.078-0.781c0.106-1.238,0.1-2.203-0.023-2.891c0.139-0.521,0.222-0.949,0.253-1.285l0.092-1.148
		c0.03-0.26-0.038-0.559-0.206-0.895l0.229-0.986c-0.106-0.873-0.152-1.455-0.137-1.744l0.252-1.285
		c-0.215-0.705-0.321-1.102-0.321-1.194c0.138-0.367,0.214-0.696,0.229-0.987c0.076-0.826-0.834-1.966-2.73-3.419l-1.01-0.092
		c-2.219-0.199-3.956,1.477-5.21,5.025l-0.206,0.575c0.03,0.703,0.168,1.346,0.412,1.928c-0.152,0.688-0.352,1.293-0.596,1.812
		c0.275,0.428,0.45,1.697,0.527,3.809c-0.107,0.17-0.169,0.359-0.184,0.574c0.138,0.168,0.313,0.902,0.527,2.203
		c0.383,0.291,1.179,0.559,2.387,0.803c0.322,0.781,0.475,1.225,0.459,1.332c-0.03,0.398-0.926,0.703-2.685,0.918
		c-0.812-0.168-1.477-0.275-1.997-0.322c-0.412-0.029-0.849,0.031-1.308,0.184l-0.85-0.229c-0.229-0.016-1.393,0.031-3.488,0.137
		c-0.26-0.412-0.451-1.01-0.573-1.789c0.214-0.291,0.337-0.566,0.367-0.826l0.046-0.436c0.275,0.029,0.627-0.184,1.056-0.643
		l0.092,0.596l0.872,0.068l0.391,0.346l0.298,0.021c0.138,0,0.352-0.221,0.643-0.664v-0.162c-0.337-0.428-0.489-0.826-0.459-1.193
		l0.022-0.297c0.047-0.184,0.146-0.268,0.299-0.254c0-0.947-0.138-1.582-0.413-1.904l0.114-1.17
		c0.047-0.611,0.146-1.225,0.299-1.836c0.016-0.076-0.054-0.957-0.207-2.639c0.016-0.154,0.115-0.721,0.299-1.7
		c-0.199-0.627-0.329-1.896-0.391-3.809l-0.527-0.482h-0.138c-0.353-0.03-0.804,0.123-1.354,0.459
		c-0.719-0.061-1.293-0.643-1.721-1.744c0.107-1.147,1.645-1.591,4.613-1.331c0.152,0.016,0.543-0.046,1.17-0.184l0.849,0.206
		c0.016-0.137,0.169-0.267,0.459-0.39l0.437,0.046c0.152,0.016,0.321,0.321,0.505,0.918c-0.123,0.169-0.184,0.307-0.184,0.413
		c0.138,0.628,0.198,0.972,0.184,1.032c-0.107,0.169-0.16,0.307-0.16,0.414c0.106,0.397,0.229,0.604,0.367,0.619l0.298,0.023
		l0.069-0.873c0.551,0.047,1.124-0.481,1.721-1.583c0.611-0.061,1.217-0.298,1.812-0.712l0.275,0.184
		C188.834,17.641,190.188,17.564,191.396,17.672z M181.23,27.93v0.137c0,0.199,0.084,0.299,0.252,0.299l0.138,0.023
		c0.138,0.016,0.298-0.115,0.481-0.391v-0.137l-0.137-0.023L181.23,27.93z M181.459,27.081l-0.045,0.414l0.436,0.045l0.046-0.436
		L181.459,27.081z M192.016,30.454l-0.022,0.299l0.413,0.047l0.023-0.299L192.016,30.454z"/>
</g>
</svg>
